<?xml version="1.0" encoding="UTF-8" standalone="no"?>
<!-- Created with Inkscape (http://www.inkscape.org/) -->

<svg
   width="210mm"
   height="297mm"
   viewBox="0 0 210 297"
   version="1.1"
   id="svg1"
   inkscape:version="1.4.2 (f4327f4, 2025-05-13)"
   sodipodi:docname="batch decoupe 3mm.svg"
   xmlns:inkscape="http://www.inkscape.org/namespaces/inkscape"
   xmlns:sodipodi="http://sodipodi.sourceforge.net/DTD/sodipodi-0.dtd"
   xmlns="http://www.w3.org/2000/svg"
   xmlns:svg="http://www.w3.org/2000/svg">
  <sodipodi:namedview
     id="namedview1"
     pagecolor="#ffffff"
     bordercolor="#000000"
     borderopacity="0.25"
     inkscape:showpageshadow="2"
     inkscape:pageopacity="0.0"
     inkscape:pagecheckerboard="0"
     inkscape:deskcolor="#d1d1d1"
     inkscape:document-units="mm"
     inkscape:zoom="0.71891835"
     inkscape:cx="265.6769"
     inkscape:cy="436.07177"
     inkscape:window-width="1920"
     inkscape:window-height="1009"
     inkscape:window-x="-8"
     inkscape:window-y="-8"
     inkscape:window-maximized="1"
     inkscape:current-layer="layer1" />
  <defs
     id="defs1" />
  <g
     inkscape:label="Calque 1"
     inkscape:groupmode="layer"
     id="layer1">
    <g
       id="g28"
       transform="matrix(0.26458333,0,0,0.26458333,-138.76827,-32.229404)"
       style="stroke:#ff0000;stroke-width:0.377953;stroke-dasharray:none;stroke-opacity:1">
      <path
         d="m 817.53511,219.02388 a 5.669313,5.669313 0 0 0 -11.33862,0 5.669313,5.669313 0 0 0 11.33862,0 z"
         style="fill:none;stroke:#ff0000;stroke-width:0.377953;stroke-dasharray:none;stroke-opacity:1"
         id="path5" />
      <path
         d="m 690.54293,219.02395 a 5.669284,5.669284 0 0 0 -11.33856,0 5.669284,5.669284 0 0 0 11.33856,0 z"
         style="fill:none;stroke:#ff0000;stroke-width:0.377953;stroke-dasharray:none;stroke-opacity:1"
         id="path6" />
      <path
         d="m 742.55028,265.23626 a 9.070831,9.070831 0 1 0 2.70336,-15.47686"
         style="fill:none;stroke:#ff0000;stroke-width:0.377953;stroke-dasharray:none;stroke-opacity:1"
         id="path7" />
      <path
         d="m 745.25367,249.75948 a 9.070737,9.070737 0 0 0 -2.70342,15.47681"
         style="fill:none;stroke:#ff0000;stroke-width:0.377953;stroke-dasharray:none;stroke-opacity:1"
         id="path8" />
      <path
         d="m 670.69561,519.12422 a 4.535416,4.535416 0 0 0 -9.07083,0 4.535416,4.535416 0 0 0 9.07083,0 z"
         style="fill:none;stroke:#ff0000;stroke-width:0.377953;stroke-dasharray:none;stroke-opacity:1"
         id="path9" />
      <path
         d="m 834.50723,521.39193 a 4.537421,4.537421 0 0 0 0,-4.53542"
         style="fill:none;stroke:#ff0000;stroke-width:0.377953;stroke-dasharray:none;stroke-opacity:1"
         id="path10" />
      <path
         d="m 834.50705,516.85661 a 4.535398,4.535398 0 1 0 0,4.53522"
         style="fill:none;stroke:#ff0000;stroke-width:0.377953;stroke-dasharray:none;stroke-opacity:1"
         id="path11" />
      <path
         d="m 832.09097,266.99343 a 5.669328,5.669328 0 1 0 -5.66922,-7e-5"
         style="fill:none;stroke:#ff0000;stroke-width:0.377953;stroke-dasharray:none;stroke-opacity:1"
         id="path12" />
      <path
         d="m 826.4217,266.99345 a 5.670986,5.670986 0 0 0 5.66929,0"
         style="fill:none;stroke:#ff0000;stroke-width:0.377953;stroke-dasharray:none;stroke-opacity:1"
         id="path13" />
      <path
         d="m 673.15235,262.08355 a 5.66932,5.66932 0 0 0 -11.33864,0 5.66932,5.66932 0 0 0 11.33864,0 z"
         style="fill:none;stroke:#ff0000;stroke-width:0.377953;stroke-dasharray:none;stroke-opacity:1"
         id="path14" />
      <path
         d="m 754.03894,508.49794 a 5.669255,5.669255 0 0 0 -11.33851,0 5.669255,5.669255 0 0 0 11.33851,0 z"
         style="fill:none;stroke:#ff0000;stroke-width:0.377953;stroke-dasharray:none;stroke-opacity:1"
         id="path15" />
      <path
         style="fill:none;stroke:#ff0000;stroke-width:0.377953;stroke-dasharray:none;stroke-opacity:1"
         d="M 894.831,207.685 H 601.908"
         id="path16" />
      <path
         style="fill:none;stroke:#ff0000;stroke-width:0.377953;stroke-dasharray:none;stroke-opacity:1"
         d="M 894.831,550.94 H 601.908"
         id="path17" />
      <path
         style="fill:none;stroke:#ff0000;stroke-width:0.377953;stroke-dasharray:none;stroke-opacity:1"
         d="M 894.831,207.685 V 550.94"
         id="path18" />
      <path
         style="fill:none;stroke:#ff0000;stroke-width:0.377953;stroke-dasharray:none;stroke-opacity:1"
         d="M 601.908,550.94 V 207.685"
         id="path19" />
      <path
         style="fill:none;stroke:#ff0000;stroke-width:0.377953;stroke-dasharray:none;stroke-opacity:1"
         d="m 617.026,222.804 v 45.354"
         id="path20" />
      <path
         style="fill:none;stroke:#ff0000;stroke-width:0.377953;stroke-dasharray:none;stroke-opacity:1"
         d="M 641.593,222.804 H 617.026"
         id="path21" />
      <path
         style="fill:none;stroke:#ff0000;stroke-width:0.377953;stroke-dasharray:none;stroke-opacity:1"
         d="M 641.593,268.158 V 222.804"
         id="path22" />
      <path
         style="fill:none;stroke:#ff0000;stroke-width:0.377953;stroke-dasharray:none;stroke-opacity:1"
         d="m 617.026,268.158 h 24.567"
         id="path23" />
      <path
         style="fill:none;stroke:#ff0000;stroke-width:0.377953;stroke-dasharray:none;stroke-opacity:1"
         d="m 855.146,222.804 v 45.354"
         id="path24" />
      <path
         style="fill:none;stroke:#ff0000;stroke-width:0.377953;stroke-dasharray:none;stroke-opacity:1"
         d="M 879.713,222.804 H 855.146"
         id="path25" />
      <path
         style="fill:none;stroke:#ff0000;stroke-width:0.377953;stroke-dasharray:none;stroke-opacity:1"
         d="M 879.713,268.158 V 222.804"
         id="path26" />
      <path
         style="fill:none;stroke:#ff0000;stroke-width:0.377953;stroke-dasharray:none;stroke-opacity:1"
         d="m 855.146,268.158 h 24.567"
         id="path27" />
    </g>
    <g
       id="g1"
       transform="matrix(0.26458333,0,0,0.26458333,41.899878,-50.496267)">
      <path
         d="m 425.65331,341.29729 a 5.6466105,5.6466105 0 0 0 -11.29322,0 5.6466105,5.6466105 0 0 0 11.29322,0 z"
         style="fill:none;stroke:#ff0000;stroke-width:0.377953;stroke-dasharray:none;stroke-opacity:1"
         id="path5-1" />
      <path
         d="m 329.22549,341.29729 a 5.59663,5.59663 0 0 0 -11.19326,0 5.59663,5.59663 0 0 0 11.19326,0 z"
         style="fill:none;stroke:#ff0000;stroke-width:0.377953;stroke-dasharray:none;stroke-opacity:1"
         id="path6-2" />
      <path
         d="m 510.90863,342.76455 a 5.669262,5.669262 0 1 0 9.48479,-5.47611"
         style="fill:none;stroke:#ff0000;stroke-width:0.377953;stroke-dasharray:none;stroke-opacity:1"
         id="path7-3" />
      <path
         d="m 520.39342,337.28844 a 5.669208,5.669208 0 0 0 -9.48474,5.47609"
         style="fill:none;stroke:#ff0000;stroke-width:0.377953;stroke-dasharray:none;stroke-opacity:1"
         id="path8-3" />
      <path
         style="fill:none;stroke:#ff0000;stroke-width:0.377953;stroke-dasharray:none;stroke-opacity:1"
         d="m 273.54567,437.39129 -31.177,-26.456"
         id="path9-4" />
      <path
         style="fill:none;stroke:#ff0000;stroke-width:0.377953;stroke-dasharray:none;stroke-opacity:1"
         d="m 273.54567,448.73029 v -11.339"
         id="path10-1" />
      <path
         style="fill:none;stroke:#ff0000;stroke-width:0.377953;stroke-dasharray:none;stroke-opacity:1"
         d="m 566.46867,448.73029 h -292.923"
         id="path11-1" />
      <path
         style="fill:none;stroke:#ff0000;stroke-width:0.377953;stroke-dasharray:none;stroke-opacity:1"
         d="m 566.46867,437.39129 v 11.339"
         id="path12-3" />
      <path
         style="fill:none;stroke:#ff0000;stroke-width:0.377953;stroke-dasharray:none;stroke-opacity:1"
         d="m 597.64467,410.93529 -31.176,26.456"
         id="path13-8" />
      <path
         style="fill:none;stroke:#ff0000;stroke-width:0.377953;stroke-dasharray:none;stroke-opacity:1"
         d="m 597.64467,329.95829 v 80.977"
         id="path14-7" />
      <path
         style="fill:none;stroke:#ff0000;stroke-width:0.377953;stroke-dasharray:none;stroke-opacity:1"
         d="m 242.36867,329.95829 h 355.276"
         id="path15-4" />
      <path
         style="fill:none;stroke:#ff0000;stroke-width:0.377953;stroke-dasharray:none;stroke-opacity:1"
         d="m 242.36867,410.93529 v -80.977"
         id="path16-2" />
    </g>
    <text
       xml:space="preserve"
       style="font-size:25px;line-height:0;font-family:Calibri;-inkscape-font-specification:Calibri;text-align:start;letter-spacing:0.783167px;writing-mode:lr-tb;direction:ltr;text-anchor:start;fill:none;stroke:#00ff00;stroke-width:0.1;stroke-opacity:1"
       x="26.866171"
       y="137.27509"
       id="text1"><tspan
         sodipodi:role="line"
         id="tspan1"
         style="fill:#00ff00;fill-opacity:1;stroke:#00ff00;stroke-width:0.1;stroke-opacity:1"
         x="26.866171"
         y="137.27509">Decoupe 3mm</tspan></text>
  </g>
</svg>
