%TF.GenerationSoftware,KiCad,Pcbnew,9.0.6*%
%TF.CreationDate,2026-01-16T11:33:55+01:00*%
%TF.ProjectId,Sumositoire_reborn,53756d6f-7369-4746-9f69-72655f726562,rev?*%
%TF.SameCoordinates,Original*%
%TF.FileFunction,Copper,L1,Top*%
%TF.FilePolarity,Positive*%
%FSLAX46Y46*%
G04 Gerber Fmt 4.6, Leading zero omitted, Abs format (unit mm)*
G04 Created by KiCad (PCBNEW 9.0.6) date 2026-01-16 11:33:55*
%MOMM*%
%LPD*%
G01*
G04 APERTURE LIST*
G04 Aperture macros list*
%AMRoundRect*
0 Rectangle with rounded corners*
0 $1 Rounding radius*
0 $2 $3 $4 $5 $6 $7 $8 $9 X,Y pos of 4 corners*
0 Add a 4 corners polygon primitive as box body*
4,1,4,$2,$3,$4,$5,$6,$7,$8,$9,$2,$3,0*
0 Add four circle primitives for the rounded corners*
1,1,$1+$1,$2,$3*
1,1,$1+$1,$4,$5*
1,1,$1+$1,$6,$7*
1,1,$1+$1,$8,$9*
0 Add four rect primitives between the rounded corners*
20,1,$1+$1,$2,$3,$4,$5,0*
20,1,$1+$1,$4,$5,$6,$7,0*
20,1,$1+$1,$6,$7,$8,$9,0*
20,1,$1+$1,$8,$9,$2,$3,0*%
G04 Aperture macros list end*
%TA.AperFunction,SMDPad,CuDef*%
%ADD10RoundRect,0.250000X-0.325000X-0.650000X0.325000X-0.650000X0.325000X0.650000X-0.325000X0.650000X0*%
%TD*%
%TA.AperFunction,WasherPad*%
%ADD11C,5.600000*%
%TD*%
%TA.AperFunction,SMDPad,CuDef*%
%ADD12RoundRect,0.200000X0.275000X-0.200000X0.275000X0.200000X-0.275000X0.200000X-0.275000X-0.200000X0*%
%TD*%
%TA.AperFunction,ComponentPad*%
%ADD13O,1.700000X2.400000*%
%TD*%
%TA.AperFunction,ComponentPad*%
%ADD14R,1.700000X2.400000*%
%TD*%
%TA.AperFunction,SMDPad,CuDef*%
%ADD15RoundRect,0.162500X0.447500X0.162500X-0.447500X0.162500X-0.447500X-0.162500X0.447500X-0.162500X0*%
%TD*%
%TA.AperFunction,SMDPad,CuDef*%
%ADD16RoundRect,0.250000X0.650000X-0.325000X0.650000X0.325000X-0.650000X0.325000X-0.650000X-0.325000X0*%
%TD*%
%TA.AperFunction,SMDPad,CuDef*%
%ADD17RoundRect,0.225000X-0.225000X-0.250000X0.225000X-0.250000X0.225000X0.250000X-0.225000X0.250000X0*%
%TD*%
%TA.AperFunction,SMDPad,CuDef*%
%ADD18RoundRect,0.200000X-0.275000X0.200000X-0.275000X-0.200000X0.275000X-0.200000X0.275000X0.200000X0*%
%TD*%
%TA.AperFunction,SMDPad,CuDef*%
%ADD19RoundRect,0.200000X-0.200000X-0.275000X0.200000X-0.275000X0.200000X0.275000X-0.200000X0.275000X0*%
%TD*%
%TA.AperFunction,SMDPad,CuDef*%
%ADD20R,0.600000X2.100000*%
%TD*%
%TA.AperFunction,SMDPad,CuDef*%
%ADD21RoundRect,0.250000X0.325000X0.650000X-0.325000X0.650000X-0.325000X-0.650000X0.325000X-0.650000X0*%
%TD*%
%TA.AperFunction,SMDPad,CuDef*%
%ADD22RoundRect,0.162500X-0.162500X0.447500X-0.162500X-0.447500X0.162500X-0.447500X0.162500X0.447500X0*%
%TD*%
%TA.AperFunction,SMDPad,CuDef*%
%ADD23RoundRect,0.250000X0.375000X0.625000X-0.375000X0.625000X-0.375000X-0.625000X0.375000X-0.625000X0*%
%TD*%
%TA.AperFunction,SMDPad,CuDef*%
%ADD24RoundRect,0.625000X1.375000X-0.625000X1.375000X0.625000X-1.375000X0.625000X-1.375000X-0.625000X0*%
%TD*%
%TA.AperFunction,SMDPad,CuDef*%
%ADD25RoundRect,0.250000X2.250000X-0.250000X2.250000X0.250000X-2.250000X0.250000X-2.250000X-0.250000X0*%
%TD*%
%TA.AperFunction,ComponentPad*%
%ADD26O,2.400000X1.800000*%
%TD*%
%TA.AperFunction,ComponentPad*%
%ADD27R,2.400000X1.800000*%
%TD*%
%TA.AperFunction,SMDPad,CuDef*%
%ADD28R,0.901500X0.289380*%
%TD*%
%TA.AperFunction,SMDPad,CuDef*%
%ADD29R,0.901500X0.289000*%
%TD*%
%TA.AperFunction,SMDPad,CuDef*%
%ADD30R,0.901500X0.279400*%
%TD*%
%TA.AperFunction,SMDPad,CuDef*%
%ADD31R,0.901500X0.290780*%
%TD*%
%TA.AperFunction,SMDPad,CuDef*%
%ADD32R,0.901500X0.290400*%
%TD*%
%TA.AperFunction,SMDPad,CuDef*%
%ADD33R,0.800050X4.400000*%
%TD*%
%TA.AperFunction,SMDPad,CuDef*%
%ADD34R,0.901500X0.290020*%
%TD*%
%TA.AperFunction,SMDPad,CuDef*%
%ADD35R,0.901500X0.288620*%
%TD*%
%TA.AperFunction,SMDPad,CuDef*%
%ADD36RoundRect,0.375000X0.625000X0.375000X-0.625000X0.375000X-0.625000X-0.375000X0.625000X-0.375000X0*%
%TD*%
%TA.AperFunction,SMDPad,CuDef*%
%ADD37RoundRect,0.500000X0.500000X1.400000X-0.500000X1.400000X-0.500000X-1.400000X0.500000X-1.400000X0*%
%TD*%
%TA.AperFunction,SMDPad,CuDef*%
%ADD38RoundRect,0.250000X-1.000000X2.000000X-1.000000X-2.000000X1.000000X-2.000000X1.000000X2.000000X0*%
%TD*%
%TA.AperFunction,SMDPad,CuDef*%
%ADD39R,1.500000X0.450000*%
%TD*%
%TA.AperFunction,SMDPad,CuDef*%
%ADD40R,0.450000X1.500000*%
%TD*%
%TA.AperFunction,SMDPad,CuDef*%
%ADD41R,1.500000X2.200000*%
%TD*%
%TA.AperFunction,SMDPad,CuDef*%
%ADD42RoundRect,0.250000X-0.650000X0.325000X-0.650000X-0.325000X0.650000X-0.325000X0.650000X0.325000X0*%
%TD*%
%TA.AperFunction,SMDPad,CuDef*%
%ADD43RoundRect,0.225000X0.250000X-0.225000X0.250000X0.225000X-0.250000X0.225000X-0.250000X-0.225000X0*%
%TD*%
%TA.AperFunction,SMDPad,CuDef*%
%ADD44RoundRect,0.250000X-0.375000X-0.625000X0.375000X-0.625000X0.375000X0.625000X-0.375000X0.625000X0*%
%TD*%
%TA.AperFunction,ComponentPad*%
%ADD45R,2.400000X1.700000*%
%TD*%
%TA.AperFunction,ComponentPad*%
%ADD46O,2.400000X1.700000*%
%TD*%
%TA.AperFunction,ViaPad*%
%ADD47C,1.200000*%
%TD*%
%TA.AperFunction,Conductor*%
%ADD48C,0.750000*%
%TD*%
%TA.AperFunction,Conductor*%
%ADD49C,0.350000*%
%TD*%
%TA.AperFunction,Conductor*%
%ADD50C,1.000000*%
%TD*%
%TA.AperFunction,Conductor*%
%ADD51C,0.500000*%
%TD*%
%TA.AperFunction,Conductor*%
%ADD52C,0.250000*%
%TD*%
%TA.AperFunction,Conductor*%
%ADD53C,0.200000*%
%TD*%
G04 APERTURE END LIST*
D10*
%TO.P,C7,1*%
%TO.N,+5V*%
X155785000Y-61430000D03*
%TO.P,C7,2*%
%TO.N,GND*%
X158735000Y-61430000D03*
%TD*%
D11*
%TO.P,H1,*%
%TO.N,*%
X128500000Y-111000000D03*
%TD*%
D12*
%TO.P,R3,1*%
%TO.N,+5V*%
X139500000Y-97150000D03*
%TO.P,R3,2*%
%TO.N,/BP_START*%
X139500000Y-95500000D03*
%TD*%
D13*
%TO.P,J1,1,Pin_1*%
%TO.N,/RXD*%
X140775000Y-90525000D03*
%TO.P,J1,2,Pin_2*%
%TO.N,/TXD*%
X138235000Y-90525000D03*
%TO.P,J1,3,Pin_3*%
%TO.N,/RST*%
X135695000Y-90525000D03*
D14*
%TO.P,J1,4,Pin_4*%
%TO.N,GND*%
X133155000Y-90525000D03*
%TD*%
D15*
%TO.P,S2,1,G*%
%TO.N,Net-(J12-Pin_2)*%
X177490000Y-95420000D03*
%TO.P,S2,2,S*%
%TO.N,Net-(S1-S)*%
X177490000Y-93520000D03*
%TO.P,S2,3,D*%
%TO.N,+BATT*%
X174870000Y-94470000D03*
%TD*%
D16*
%TO.P,C9,1*%
%TO.N,+5V*%
X172330000Y-72880000D03*
%TO.P,C9,2*%
%TO.N,GND*%
X172330000Y-69930000D03*
%TD*%
D11*
%TO.P,H2,*%
%TO.N,*%
X158500000Y-96000000D03*
%TD*%
D17*
%TO.P,C2,1*%
%TO.N,+BATT*%
X174900000Y-89890000D03*
%TO.P,C2,2*%
%TO.N,GND*%
X176450000Y-89890000D03*
%TD*%
D14*
%TO.P,J5,1,Pin_1*%
%TO.N,GND*%
X160990000Y-65270000D03*
D13*
%TO.P,J5,2,Pin_2*%
%TO.N,/ECHO*%
X158450000Y-65270000D03*
%TO.P,J5,3,Pin_3*%
%TO.N,/TRIGGER*%
X155910000Y-65270000D03*
%TO.P,J5,4,Pin_4*%
%TO.N,+5V*%
X153370000Y-65270000D03*
%TD*%
D18*
%TO.P,R11,1*%
%TO.N,Net-(S1-S)*%
X179070000Y-93615000D03*
%TO.P,R11,2*%
%TO.N,Net-(J12-Pin_2)*%
X179070000Y-95265000D03*
%TD*%
%TO.P,R2,1*%
%TO.N,Net-(U4-MODE)*%
X152922500Y-111429300D03*
%TO.P,R2,2*%
%TO.N,+5V*%
X152922500Y-113079300D03*
%TD*%
D12*
%TO.P,R1,1*%
%TO.N,~+5V*%
X133500000Y-97000000D03*
%TO.P,R1,2*%
%TO.N,/RST*%
X133500000Y-95350000D03*
%TD*%
D16*
%TO.P,C14,1*%
%TO.N,+5V*%
X154075000Y-100325000D03*
%TO.P,C14,2*%
%TO.N,GND*%
X154075000Y-97375000D03*
%TD*%
D19*
%TO.P,R5,1*%
%TO.N,~+5V*%
X138050000Y-99475000D03*
%TO.P,R5,2*%
%TO.N,+5V*%
X139700000Y-99475000D03*
%TD*%
D20*
%TO.P,Y1,1,1*%
%TO.N,/XT1*%
X139225000Y-104725000D03*
%TO.P,Y1,2,2*%
%TO.N,GND*%
X140425000Y-104725000D03*
%TO.P,Y1,3,3*%
%TO.N,/XT2*%
X141625000Y-104725000D03*
%TD*%
D11*
%TO.P,H3,*%
%TO.N,*%
X188500000Y-96000000D03*
%TD*%
D21*
%TO.P,C12,1*%
%TO.N,+5V*%
X149460000Y-114080000D03*
%TO.P,C12,2*%
%TO.N,GND*%
X146510000Y-114080000D03*
%TD*%
D22*
%TO.P,S1,1,G*%
%TO.N,GND*%
X182480000Y-93170000D03*
%TO.P,S1,2,S*%
%TO.N,Net-(S1-S)*%
X180580000Y-93170000D03*
%TO.P,S1,3,D*%
%TO.N,Net-(J11-Pin_1)*%
X181530000Y-95790000D03*
%TD*%
D21*
%TO.P,C6,1*%
%TO.N,+5V*%
X149800000Y-87550000D03*
%TO.P,C6,2*%
%TO.N,GND*%
X146850000Y-87550000D03*
%TD*%
D23*
%TO.P,D1,1,K*%
%TO.N,GND*%
X155040000Y-106270000D03*
%TO.P,D1,2,A*%
%TO.N,Net-(D1-A)*%
X152240000Y-106270000D03*
%TD*%
D24*
%TO.P,J13,*%
%TO.N,*%
X165887500Y-79880000D03*
X165887500Y-67880000D03*
D25*
%TO.P,J13,1,Pin_1*%
%TO.N,/CAPTLAVD*%
X168437500Y-76880000D03*
%TO.P,J13,2,Pin_2*%
%TO.N,/CAPTLAVG*%
X168437500Y-74880000D03*
%TO.P,J13,3,Pin_3*%
%TO.N,+5V*%
X168437500Y-72880000D03*
%TO.P,J13,4,Pin_4*%
%TO.N,GND*%
X168437500Y-70880000D03*
%TD*%
D19*
%TO.P,R10,1*%
%TO.N,/LED_VERTE*%
X149020000Y-105150000D03*
%TO.P,R10,2*%
%TO.N,Net-(D2-A)*%
X150670000Y-105150000D03*
%TD*%
D26*
%TO.P,U5,1,OUT*%
%TO.N,/REMOTE*%
X135900000Y-93725000D03*
D27*
%TO.P,U5,2,GND*%
%TO.N,GND*%
X135900000Y-96265000D03*
D26*
%TO.P,U5,3,Vs*%
%TO.N,~+5V*%
X135900000Y-98805000D03*
%TD*%
D21*
%TO.P,C8,1*%
%TO.N,+5V*%
X160895000Y-87430000D03*
%TO.P,C8,2*%
%TO.N,GND*%
X157945000Y-87430000D03*
%TD*%
D23*
%TO.P,D2,1,K*%
%TO.N,GND*%
X158420000Y-103970000D03*
%TO.P,D2,2,A*%
%TO.N,Net-(D2-A)*%
X155620000Y-103970000D03*
%TD*%
D28*
%TO.P,U4,1,VM*%
%TO.N,+BATT*%
X156934250Y-110873990D03*
D29*
%TO.P,U4,2,AOUT1*%
%TO.N,Net-(J3-Pin_2)*%
X156934250Y-110373800D03*
D30*
%TO.P,U4,3,AOUT2*%
%TO.N,Net-(J3-Pin_1)*%
X156934250Y-109878220D03*
D31*
%TO.P,U4,4,BOUT1*%
%TO.N,Net-(J4-Pin_1)*%
X156934250Y-109374690D03*
D32*
%TO.P,U4,5,BOUT2*%
%TO.N,Net-(J4-Pin_2)*%
X156934250Y-108874500D03*
D33*
%TO.P,U4,6,GND*%
%TO.N,GND*%
X155784975Y-109629300D03*
D34*
X156934250Y-108374310D03*
D30*
%TO.P,U4,7,BIN2/BEN*%
%TO.N,/BIN2*%
X154635750Y-108379620D03*
%TO.P,U4,8,BIN1/BPH*%
%TO.N,/BIN1*%
X154635750Y-108880000D03*
D31*
%TO.P,U4,9,AIN2/AEN*%
%TO.N,/AIN2*%
X154635750Y-109374690D03*
D35*
%TO.P,U4,10,AIN1/APH*%
%TO.N,/AIN1*%
X154635750Y-109873610D03*
D29*
%TO.P,U4,11,MODE*%
%TO.N,Net-(U4-MODE)*%
X154635750Y-110373800D03*
D30*
%TO.P,U4,12,VCC*%
%TO.N,+5V*%
X154635750Y-110878980D03*
%TD*%
D36*
%TO.P,U3,1,GND*%
%TO.N,GND*%
X172440000Y-94610000D03*
%TO.P,U3,2,VO*%
%TO.N,+5V*%
X172440000Y-92310000D03*
D37*
X166140000Y-92310000D03*
D36*
%TO.P,U3,3,VI*%
%TO.N,+BATT*%
X172440000Y-90010000D03*
%TD*%
D38*
%TO.P,C1,1*%
%TO.N,+BATT*%
X171410105Y-105550000D03*
%TO.P,C1,2*%
%TO.N,GND*%
X171410105Y-114050000D03*
%TD*%
D39*
%TO.P,U1,1,(3/OC2B/INT1)PD3*%
%TO.N,/BP_START*%
X141410000Y-95480000D03*
%TO.P,U1,2,(4/T0)PD4*%
%TO.N,unconnected-(U1-(4{slash}T0)PD4-Pad2)*%
X141410000Y-96280000D03*
%TO.P,U1,3,GND*%
%TO.N,GND*%
X141410000Y-97080000D03*
%TO.P,U1,4,VCC*%
%TO.N,+5V*%
X141410000Y-97880000D03*
%TO.P,U1,5,GND*%
%TO.N,GND*%
X141410000Y-98680000D03*
%TO.P,U1,6,VCC*%
%TO.N,+5V*%
X141410000Y-99480000D03*
%TO.P,U1,7,(XTAL1)PB6*%
%TO.N,/XT1*%
X141410000Y-100280000D03*
%TO.P,U1,8,(XTAL2)PB7*%
%TO.N,/XT2*%
X141410000Y-101080000D03*
D40*
%TO.P,U1,9,(5/OC0B/T1)PD5*%
%TO.N,/AIN1*%
X143210000Y-102880000D03*
%TO.P,U1,10,(6/OC0A/AIN0)PD6*%
%TO.N,/AIN2*%
X144010000Y-102880000D03*
%TO.P,U1,11,(7/AIN1)PD7*%
%TO.N,/BIN1*%
X144810000Y-102880000D03*
%TO.P,U1,12,(8)PB0*%
%TO.N,/BIN2*%
X145610000Y-102880000D03*
%TO.P,U1,13,(9/OC1A)PB1*%
%TO.N,/LED_BLEUE*%
X146410000Y-102880000D03*
%TO.P,U1,14,(10/OC1B/~{SS})PB2*%
%TO.N,unconnected-(U1-(10{slash}OC1B{slash}~{SS})PB2-Pad14)*%
X147210000Y-102880000D03*
%TO.P,U1,15,(11/OC2A/MOSI)PB3*%
%TO.N,/LED_VERTE*%
X148010000Y-102880000D03*
%TO.P,U1,16,(12/MISO)PB4*%
%TO.N,/ECHO*%
X148810000Y-102880000D03*
D39*
%TO.P,U1,17,(13/SCK)PB5*%
%TO.N,/TRIGGER*%
X150610000Y-101080000D03*
%TO.P,U1,18,AVCC*%
%TO.N,+5V*%
X150610000Y-100280000D03*
%TO.P,U1,19,(A6)ADC6*%
%TO.N,unconnected-(U1-(A6)ADC6-Pad19)*%
X150610000Y-99480000D03*
%TO.P,U1,20,AREF*%
%TO.N,unconnected-(U1-AREF-Pad20)*%
X150610000Y-98680000D03*
%TO.P,U1,21,GND*%
%TO.N,GND*%
X150610000Y-97880000D03*
%TO.P,U1,22,(A7)ADC7*%
%TO.N,/CAPT_INFRA_3*%
X150610000Y-97080000D03*
%TO.P,U1,23,(A0)PC0*%
%TO.N,/CAPTLAVD*%
X150610000Y-96280000D03*
%TO.P,U1,24,(A1)PC1*%
%TO.N,/CAPTLAVG*%
X150610000Y-95480000D03*
D40*
%TO.P,U1,25,(A2)PC2*%
%TO.N,/CAPTAR*%
X148810000Y-93680000D03*
%TO.P,U1,26,(A3)PC3*%
%TO.N,unconnected-(U1-(A3)PC3-Pad26)*%
X148010000Y-93680000D03*
%TO.P,U1,27,(SDA/A4)PC4*%
%TO.N,/CAPT_INFRA_2*%
X147210000Y-93680000D03*
%TO.P,U1,28,(SCL/A5)PC5*%
%TO.N,/CAPT_INFRA_1*%
X146410000Y-93680000D03*
%TO.P,U1,29,(~{RESET})PC6*%
%TO.N,/RST*%
X145610000Y-93680000D03*
%TO.P,U1,30,(0/RXD)PD0*%
%TO.N,/RXD*%
X144810000Y-93680000D03*
%TO.P,U1,31,(1/TXD)PD1*%
%TO.N,/TXD*%
X144010000Y-93680000D03*
%TO.P,U1,32,(2/INT0)PD2*%
%TO.N,/REMOTE*%
X143210000Y-93680000D03*
%TD*%
D13*
%TO.P,J11,1,Pin_1*%
%TO.N,Net-(J11-Pin_1)*%
X190875000Y-102325000D03*
D14*
%TO.P,J11,2,Pin_2*%
%TO.N,GND*%
X188335000Y-102325000D03*
%TD*%
D41*
%TO.P,SW1,1,1*%
%TO.N,GND*%
X126135000Y-99330000D03*
X126135000Y-89330000D03*
%TO.P,SW1,2,2*%
%TO.N,/BP_START*%
X130635000Y-99330000D03*
X130635000Y-89330000D03*
%TD*%
D42*
%TO.P,C4,1*%
%TO.N,+5V*%
X166189434Y-98439684D03*
%TO.P,C4,2*%
%TO.N,GND*%
X166189434Y-101389684D03*
%TD*%
%TO.P,C11,1*%
%TO.N,+5V*%
X149660000Y-65295000D03*
%TO.P,C11,2*%
%TO.N,GND*%
X149660000Y-68245000D03*
%TD*%
D10*
%TO.P,C3,1*%
%TO.N,+5V*%
X170000000Y-100829749D03*
%TO.P,C3,2*%
%TO.N,GND*%
X172950000Y-100829749D03*
%TD*%
D43*
%TO.P,C16,1*%
%TO.N,+5V*%
X151440862Y-113026783D03*
%TO.P,C16,2*%
%TO.N,GND*%
X151440862Y-111476783D03*
%TD*%
D10*
%TO.P,C13,1*%
%TO.N,+5V*%
X169989434Y-98459684D03*
%TO.P,C13,2*%
%TO.N,GND*%
X172939434Y-98459684D03*
%TD*%
D24*
%TO.P,J2,*%
%TO.N,*%
X145790000Y-79950000D03*
X145790000Y-67950000D03*
D25*
%TO.P,J2,1,Pin_1*%
%TO.N,unconnected-(J2-Pin_1-Pad1)*%
X148340000Y-76950000D03*
%TO.P,J2,2,Pin_2*%
%TO.N,/CAPTAR*%
X148340000Y-74950000D03*
%TO.P,J2,3,Pin_3*%
%TO.N,+5V*%
X148340000Y-72950000D03*
%TO.P,J2,4,Pin_4*%
%TO.N,GND*%
X148340000Y-70950000D03*
%TD*%
D44*
%TO.P,R6,1*%
%TO.N,unconnected-(R6-Pad1)*%
X945000Y-1195000D03*
%TO.P,R6,2*%
%TO.N,unconnected-(R6-Pad2)*%
X3745000Y-1195000D03*
%TD*%
D21*
%TO.P,C5,1*%
%TO.N,+5V*%
X172605000Y-87410000D03*
%TO.P,C5,2*%
%TO.N,GND*%
X169655000Y-87410000D03*
%TD*%
D19*
%TO.P,R9,1*%
%TO.N,/LED_BLEUE*%
X149010000Y-106660000D03*
%TO.P,R9,2*%
%TO.N,Net-(D1-A)*%
X150660000Y-106660000D03*
%TD*%
D43*
%TO.P,C15,1*%
%TO.N,GND*%
X157610000Y-114005000D03*
%TO.P,C15,2*%
%TO.N,+BATT*%
X157610000Y-112455000D03*
%TD*%
D45*
%TO.P,J4,1,Pin_1*%
%TO.N,Net-(J4-Pin_1)*%
X163375000Y-103800000D03*
D46*
%TO.P,J4,2,Pin_2*%
%TO.N,Net-(J4-Pin_2)*%
X163375000Y-101260000D03*
%TD*%
D45*
%TO.P,J3,1,Pin_1*%
%TO.N,Net-(J3-Pin_1)*%
X163380000Y-107550000D03*
D46*
%TO.P,J3,2,Pin_2*%
%TO.N,Net-(J3-Pin_2)*%
X163380000Y-110090000D03*
%TD*%
D13*
%TO.P,J7,1,Pin_1*%
%TO.N,+5V*%
X160900000Y-84500000D03*
D14*
%TO.P,J7,2,Pin_2*%
%TO.N,GND*%
X158360000Y-84500000D03*
D13*
%TO.P,J7,3,Pin_3*%
%TO.N,/CAPT_INFRA_2*%
X155820000Y-84500000D03*
%TD*%
%TO.P,J6,1,Pin_1*%
%TO.N,+5V*%
X149190000Y-84500000D03*
D14*
%TO.P,J6,2,Pin_2*%
%TO.N,GND*%
X146650000Y-84500000D03*
D13*
%TO.P,J6,3,Pin_3*%
%TO.N,/CAPT_INFRA_1*%
X144110000Y-84500000D03*
%TD*%
%TO.P,J8,1,Pin_1*%
%TO.N,+5V*%
X172610000Y-84500000D03*
D14*
%TO.P,J8,2,Pin_2*%
%TO.N,GND*%
X170070000Y-84500000D03*
D13*
%TO.P,J8,3,Pin_3*%
%TO.N,/CAPT_INFRA_3*%
X167530000Y-84500000D03*
%TD*%
D45*
%TO.P,J12,1,Pin_1*%
%TO.N,GND*%
X184600000Y-89300000D03*
D46*
%TO.P,J12,2,Pin_2*%
%TO.N,Net-(J12-Pin_2)*%
X184600000Y-91840000D03*
%TD*%
D47*
%TO.N,GND*%
X169350000Y-68720000D03*
X145910000Y-97880000D03*
X182160000Y-102320000D03*
X147160000Y-111980000D03*
X135490000Y-103575000D03*
X152350000Y-68420000D03*
X172915000Y-96550000D03*
X157120000Y-106460000D03*
X166130000Y-103270000D03*
X180800000Y-90000000D03*
X180250000Y-114290000D03*
%TO.N,+5V*%
X154720000Y-114080000D03*
X168280000Y-98439684D03*
%TO.N,/CAPTAR*%
X146437636Y-90338416D03*
X148400000Y-90920000D03*
%TO.N,/ECHO*%
X153510000Y-81170000D03*
X154790000Y-102060000D03*
%TO.N,/TRIGGER*%
X152670000Y-101410000D03*
X151350000Y-81090000D03*
%TD*%
D48*
%TO.N,+BATT*%
X166020000Y-112430000D02*
X157635000Y-112430000D01*
D49*
X156834020Y-111030000D02*
X156834020Y-111679020D01*
D48*
X173950000Y-105800000D02*
X174800000Y-104950000D01*
X174050000Y-105800000D02*
X171410105Y-105800000D01*
X167610000Y-110840000D02*
X166020000Y-112430000D01*
X174900000Y-94440000D02*
X174870000Y-94470000D01*
X172440000Y-90010000D02*
X172570000Y-89880000D01*
X171410105Y-105800000D02*
X169380000Y-105800000D01*
X174870000Y-104980000D02*
X174050000Y-105800000D01*
X169380000Y-105800000D02*
X167610000Y-107570000D01*
D49*
X156834020Y-111679020D02*
X157610000Y-112455000D01*
D48*
X167610000Y-107570000D02*
X167610000Y-110840000D01*
X171410105Y-105800000D02*
X173950000Y-105800000D01*
X157635000Y-112430000D02*
X157610000Y-112455000D01*
X172570000Y-89880000D02*
X174650000Y-89880000D01*
X174870000Y-94470000D02*
X174870000Y-104980000D01*
X174900000Y-90010000D02*
X174900000Y-94440000D01*
D50*
%TO.N,GND*%
X156580000Y-115980000D02*
X157610000Y-114950000D01*
D48*
X149660000Y-68245000D02*
X149665000Y-68250000D01*
X157945000Y-87430000D02*
X157945000Y-86318720D01*
X169350000Y-68720000D02*
X171890000Y-68720000D01*
D50*
X157610000Y-114950000D02*
X157610000Y-114005000D01*
D51*
X141410000Y-98680000D02*
X143090000Y-98680000D01*
D50*
X146510000Y-114080000D02*
X146510000Y-114930000D01*
X146510000Y-114930000D02*
X147560000Y-115980000D01*
D48*
X156550000Y-113980000D02*
X157585000Y-113980000D01*
D51*
X182480000Y-93170000D02*
X182480000Y-91680000D01*
D50*
X158420000Y-105840000D02*
X157800000Y-106460000D01*
X147560000Y-115980000D02*
X156580000Y-115980000D01*
D48*
X152350000Y-68420000D02*
X152350000Y-69530000D01*
D49*
X156834020Y-108180000D02*
X156834020Y-106745980D01*
D50*
X155040000Y-106270000D02*
X155180000Y-106410000D01*
D48*
X163610000Y-70880000D02*
X168437500Y-70880000D01*
D51*
X135490000Y-105165000D02*
X137750000Y-107425000D01*
D50*
X146510000Y-114080000D02*
X146510000Y-112630000D01*
X172939434Y-98459684D02*
X172939434Y-96574434D01*
D51*
X145910000Y-97880000D02*
X150610000Y-97880000D01*
D50*
X166189434Y-103039434D02*
X166189434Y-101389684D01*
D48*
X149665000Y-68250000D02*
X152180000Y-68250000D01*
X172330000Y-69160000D02*
X172330000Y-69930000D01*
X155785000Y-107795000D02*
X155785000Y-109629300D01*
D51*
X140425000Y-106875000D02*
X140425000Y-104725000D01*
X143510000Y-97460000D02*
X143510000Y-97880000D01*
D48*
X169655000Y-87410000D02*
X169655000Y-85995000D01*
X160960000Y-62140000D02*
X160960000Y-68230000D01*
D50*
X147160000Y-111980000D02*
X146960000Y-112180000D01*
D51*
X137750000Y-107425000D02*
X139875000Y-107425000D01*
D48*
X168437500Y-70880000D02*
X168437500Y-69632500D01*
D50*
X184600000Y-89300000D02*
X181500000Y-89300000D01*
D48*
X155760000Y-113180000D02*
X155760000Y-113190000D01*
D50*
X126135000Y-99330000D02*
X126135000Y-100785000D01*
D48*
X180690000Y-89890000D02*
X180800000Y-90000000D01*
D50*
X172440000Y-96075000D02*
X172915000Y-96550000D01*
X172950000Y-100829749D02*
X172950000Y-102024118D01*
D51*
X155785000Y-113155000D02*
X155760000Y-113180000D01*
D49*
X152545000Y-97880000D02*
X150610000Y-97880000D01*
D50*
X181500000Y-89300000D02*
X180800000Y-90000000D01*
D49*
X156834020Y-106745980D02*
X157120000Y-106460000D01*
D48*
X171890000Y-68720000D02*
X172330000Y-69160000D01*
X169655000Y-85995000D02*
X170070000Y-85580000D01*
D51*
X166189434Y-103210566D02*
X166130000Y-103270000D01*
D50*
X146850000Y-87550000D02*
X146875000Y-87525000D01*
D51*
X143510000Y-98260000D02*
X143510000Y-97880000D01*
D50*
X126135000Y-100785000D02*
X128925000Y-103575000D01*
X157070000Y-106410000D02*
X157120000Y-106460000D01*
X146875000Y-85955000D02*
X146650000Y-85730000D01*
D48*
X150930000Y-70950000D02*
X148340000Y-70950000D01*
X152180000Y-68250000D02*
X152350000Y-68420000D01*
D50*
X155780000Y-107390000D02*
X155780000Y-106410000D01*
D49*
X154075000Y-97375000D02*
X153050000Y-97375000D01*
D51*
X141410000Y-97080000D02*
X143130000Y-97080000D01*
D48*
X170070000Y-85580000D02*
X170070000Y-84500000D01*
D50*
X147160000Y-111980000D02*
X147663217Y-111476783D01*
D52*
X172950000Y-98470250D02*
X172939434Y-98459684D01*
D51*
X182480000Y-91680000D02*
X180800000Y-90000000D01*
D50*
X172950000Y-100829749D02*
X172950000Y-98470250D01*
D48*
X160960000Y-68230000D02*
X163610000Y-70880000D01*
D51*
X143090000Y-98680000D02*
X143510000Y-98260000D01*
D50*
X172950000Y-102024118D02*
X172484118Y-102490000D01*
D48*
X158360000Y-85903720D02*
X158360000Y-84500000D01*
D50*
X126135000Y-99330000D02*
X126135000Y-89330000D01*
D49*
X156830920Y-108350000D02*
X156189080Y-108350000D01*
D50*
X172484118Y-102490000D02*
X168510000Y-102490000D01*
X146510000Y-112630000D02*
X147160000Y-111980000D01*
D48*
X158735000Y-61430000D02*
X160250000Y-61430000D01*
X155760000Y-113190000D02*
X156550000Y-113980000D01*
D51*
X139875000Y-107425000D02*
X140425000Y-106875000D01*
D50*
X157800000Y-106460000D02*
X157120000Y-106460000D01*
D51*
X143130000Y-97080000D02*
X143510000Y-97460000D01*
D50*
X172440000Y-94610000D02*
X172440000Y-96075000D01*
X168510000Y-102490000D02*
X167750000Y-103250000D01*
D51*
X157585000Y-113980000D02*
X157610000Y-114005000D01*
X143510000Y-97880000D02*
X145910000Y-97880000D01*
D50*
X155180000Y-106410000D02*
X157070000Y-106410000D01*
D48*
X168437500Y-69632500D02*
X169350000Y-68720000D01*
D50*
X147663217Y-111476783D02*
X151440862Y-111476783D01*
D48*
X152350000Y-69530000D02*
X150930000Y-70950000D01*
X160250000Y-61430000D02*
X160960000Y-62140000D01*
D50*
X128925000Y-103575000D02*
X135490000Y-103575000D01*
D48*
X155785000Y-109629300D02*
X155785000Y-113155000D01*
D50*
X146875000Y-87525000D02*
X146875000Y-85955000D01*
D48*
X157945000Y-86318720D02*
X158360000Y-85903720D01*
D51*
X135490000Y-103575000D02*
X135490000Y-105165000D01*
D50*
X166150000Y-103250000D02*
X166130000Y-103270000D01*
D51*
X172939434Y-96574434D02*
X172915000Y-96550000D01*
D48*
X176450000Y-89890000D02*
X180690000Y-89890000D01*
D50*
X158420000Y-103970000D02*
X158420000Y-105840000D01*
D49*
X153050000Y-97375000D02*
X152545000Y-97880000D01*
D50*
X167750000Y-103250000D02*
X166150000Y-103250000D01*
X146650000Y-85730000D02*
X146650000Y-84500000D01*
D48*
%TO.N,+5V*%
X152620000Y-74020000D02*
X151550000Y-72950000D01*
X169969434Y-98439684D02*
X169989434Y-98459684D01*
X149775000Y-87525000D02*
X149775000Y-85085000D01*
D51*
X151060000Y-114080000D02*
X151440862Y-113699138D01*
D53*
X166140000Y-92310000D02*
X166189434Y-92359434D01*
D51*
X149460000Y-114080000D02*
X151060000Y-114080000D01*
D50*
X153370000Y-62850000D02*
X154790000Y-61430000D01*
D48*
X149800000Y-87550000D02*
X149775000Y-87525000D01*
D52*
X153582040Y-113079300D02*
X154735980Y-111925360D01*
D48*
X170000000Y-100829749D02*
X170000000Y-98470250D01*
X169370000Y-92310000D02*
X169370000Y-90230000D01*
D50*
X153370000Y-65270000D02*
X153350000Y-65290000D01*
X160900000Y-83170000D02*
X160900000Y-84500000D01*
D49*
X144760000Y-99480000D02*
X145580000Y-100300000D01*
D52*
X152922500Y-113079300D02*
X153582040Y-113079300D01*
D49*
X139500000Y-97150000D02*
X139625000Y-97275000D01*
D48*
X172190000Y-87410000D02*
X172605000Y-87410000D01*
D50*
X144310000Y-65290000D02*
X142650000Y-66950000D01*
X144640000Y-72950000D02*
X148340000Y-72950000D01*
X166140000Y-92310000D02*
X168830000Y-92310000D01*
D48*
X155795000Y-60655000D02*
X156630000Y-59820000D01*
X149775000Y-85085000D02*
X149190000Y-84500000D01*
X155795000Y-61690000D02*
X155795000Y-60655000D01*
D49*
X139700000Y-99475000D02*
X141405000Y-99475000D01*
D50*
X152530000Y-84500000D02*
X154890000Y-82140000D01*
D51*
X152922500Y-113512500D02*
X152922500Y-113079300D01*
D50*
X154075000Y-100325000D02*
X160675000Y-100325000D01*
X166189434Y-92359434D02*
X166189434Y-98439684D01*
X153370000Y-65270000D02*
X153370000Y-62850000D01*
X166189434Y-98439684D02*
X168280000Y-98439684D01*
X153350000Y-65290000D02*
X144310000Y-65290000D01*
D49*
X139625000Y-97275000D02*
X139625000Y-99400000D01*
X139625000Y-99400000D02*
X139700000Y-99475000D01*
D51*
X150610000Y-100280000D02*
X154030000Y-100280000D01*
D50*
X142650000Y-66950000D02*
X142650000Y-70960000D01*
D48*
X149190000Y-84500000D02*
X149190000Y-80870000D01*
D49*
X139500000Y-97525000D02*
X139500000Y-97150000D01*
X141410000Y-99480000D02*
X144760000Y-99480000D01*
D48*
X152620000Y-77440000D02*
X152620000Y-74020000D01*
D50*
X142650000Y-70960000D02*
X144640000Y-72950000D01*
X172605000Y-87410000D02*
X172605000Y-84505000D01*
D49*
X141405000Y-99475000D02*
X141410000Y-99480000D01*
D48*
X169370000Y-90230000D02*
X172190000Y-87410000D01*
D51*
X154030000Y-100280000D02*
X154075000Y-100325000D01*
D48*
X156630000Y-59820000D02*
X165220000Y-59820000D01*
D50*
X172610000Y-78110000D02*
X172330000Y-77830000D01*
D48*
X174520000Y-71930000D02*
X173570000Y-72880000D01*
X173570000Y-72880000D02*
X172330000Y-72880000D01*
D50*
X172330000Y-77830000D02*
X172330000Y-72880000D01*
X149190000Y-84500000D02*
X152530000Y-84500000D01*
D51*
X151440862Y-113699138D02*
X151440862Y-113026783D01*
X151440862Y-113026783D02*
X152869983Y-113026783D01*
D49*
X150590000Y-100300000D02*
X150610000Y-100280000D01*
D48*
X160895000Y-87430000D02*
X160895000Y-84505000D01*
D50*
X159870000Y-82140000D02*
X160900000Y-83170000D01*
X168280000Y-98439684D02*
X169969434Y-98439684D01*
D49*
X145580000Y-100300000D02*
X150590000Y-100300000D01*
D50*
X169370000Y-92310000D02*
X172440000Y-92310000D01*
D48*
X174520000Y-69120000D02*
X174520000Y-71930000D01*
X149190000Y-80870000D02*
X152620000Y-77440000D01*
X151550000Y-72950000D02*
X148340000Y-72950000D01*
D50*
X154790000Y-61430000D02*
X155785000Y-61430000D01*
D49*
X141410000Y-97880000D02*
X139855000Y-97880000D01*
D50*
X172610000Y-84500000D02*
X172610000Y-78110000D01*
D49*
X139855000Y-97880000D02*
X139500000Y-97525000D01*
D50*
X168830000Y-92310000D02*
X169370000Y-92310000D01*
X160675000Y-100325000D02*
X162560316Y-98439684D01*
D48*
X165220000Y-59820000D02*
X174520000Y-69120000D01*
D49*
X152869983Y-113026783D02*
X152922500Y-113079300D01*
D51*
X153490000Y-114080000D02*
X152922500Y-113512500D01*
D50*
X172605000Y-84505000D02*
X172610000Y-84500000D01*
D53*
X170000000Y-98470250D02*
X169989434Y-98459684D01*
D48*
X168437500Y-72880000D02*
X172330000Y-72880000D01*
D50*
X154890000Y-82140000D02*
X159870000Y-82140000D01*
X162560316Y-98439684D02*
X166189434Y-98439684D01*
D51*
X154720000Y-114080000D02*
X153490000Y-114080000D01*
D52*
X154735980Y-111925360D02*
X154735980Y-110878980D01*
D51*
%TO.N,Net-(D1-A)*%
X151180000Y-106660000D02*
X151570000Y-106270000D01*
X150660000Y-106660000D02*
X151180000Y-106660000D01*
X151570000Y-106270000D02*
X152240000Y-106270000D01*
%TO.N,Net-(D2-A)*%
X151220000Y-105150000D02*
X152400000Y-103970000D01*
X152400000Y-103970000D02*
X155620000Y-103970000D01*
X150670000Y-105150000D02*
X151220000Y-105150000D01*
D49*
%TO.N,/RXD*%
X140775000Y-90525000D02*
X140870000Y-90620000D01*
X144810000Y-92500000D02*
X144810000Y-93680000D01*
X142930000Y-90620000D02*
X144810000Y-92500000D01*
X140870000Y-90620000D02*
X142930000Y-90620000D01*
D51*
%TO.N,/RST*%
X133500000Y-93570000D02*
X135695000Y-91375000D01*
D49*
X136350000Y-88275000D02*
X141785000Y-88275000D01*
D51*
X135695000Y-91375000D02*
X135695000Y-90525000D01*
D49*
X145610000Y-92100000D02*
X145610000Y-93680000D01*
D51*
X133500000Y-95350000D02*
X133500000Y-93570000D01*
D49*
X135695000Y-88930000D02*
X136350000Y-88275000D01*
X135695000Y-90525000D02*
X135695000Y-88930000D01*
X141785000Y-88275000D02*
X145610000Y-92100000D01*
%TO.N,/TXD*%
X138750000Y-92360000D02*
X143690000Y-92360000D01*
X138235000Y-91845000D02*
X138750000Y-92360000D01*
X138235000Y-90525000D02*
X138235000Y-91845000D01*
X144010000Y-92680000D02*
X144010000Y-93680000D01*
X143690000Y-92360000D02*
X144010000Y-92680000D01*
%TO.N,/CAPTAR*%
X148400000Y-91870000D02*
X148810000Y-92280000D01*
X148400000Y-90920000D02*
X148400000Y-91870000D01*
D48*
X145288416Y-90338416D02*
X146437636Y-90338416D01*
X148340000Y-74950000D02*
X144260000Y-74950000D01*
X144260000Y-74950000D02*
X142190000Y-77020000D01*
X142190000Y-77020000D02*
X142190000Y-87240000D01*
X142190000Y-87240000D02*
X145288416Y-90338416D01*
D49*
X148810000Y-92280000D02*
X148810000Y-93680000D01*
D52*
%TO.N,Net-(J3-Pin_2)*%
X159721400Y-110378600D02*
X156834020Y-110378600D01*
X160520000Y-110100000D02*
X160000000Y-110100000D01*
X160000000Y-110100000D02*
X159721400Y-110378600D01*
D51*
X160520000Y-110100000D02*
X163350000Y-110100000D01*
%TO.N,Net-(J3-Pin_1)*%
X161650000Y-107560000D02*
X163350000Y-107560000D01*
D52*
X159930000Y-109285000D02*
X159336780Y-109878220D01*
X159930000Y-109280000D02*
X159930000Y-109285000D01*
D51*
X159930000Y-109280000D02*
X161650000Y-107560000D01*
D52*
X159336780Y-109878220D02*
X156834020Y-109878220D01*
D51*
%TO.N,Net-(J4-Pin_2)*%
X160190000Y-106330000D02*
X160190000Y-102951450D01*
D52*
X156834020Y-108880000D02*
X157650000Y-108880000D01*
X158040000Y-108490000D02*
X158040000Y-108480000D01*
D51*
X160190000Y-102951450D02*
X161881450Y-101260000D01*
D52*
X157650000Y-108880000D02*
X158040000Y-108490000D01*
D51*
X158040000Y-108480000D02*
X160190000Y-106330000D01*
X161881450Y-101260000D02*
X163375000Y-101260000D01*
D52*
%TO.N,Net-(J4-Pin_1)*%
X158720000Y-108930000D02*
X158720000Y-108920000D01*
D51*
X161850000Y-103800000D02*
X163375000Y-103800000D01*
X161230000Y-106420000D02*
X161230000Y-104420000D01*
X161230000Y-104420000D02*
X161850000Y-103800000D01*
D52*
X156834020Y-109380380D02*
X158269620Y-109380380D01*
D51*
X158720000Y-108920000D02*
X160950000Y-106690000D01*
D52*
X158269620Y-109380380D02*
X158720000Y-108930000D01*
X160950000Y-106690000D02*
X160960000Y-106690000D01*
D51*
X160960000Y-106690000D02*
X161230000Y-106420000D01*
D49*
%TO.N,/ECHO*%
X153970000Y-102880000D02*
X148810000Y-102880000D01*
D50*
X158420000Y-76140000D02*
X158420000Y-65270000D01*
D49*
X154790000Y-102060000D02*
X153970000Y-102880000D01*
D50*
X153520000Y-81040000D02*
X158420000Y-76140000D01*
D52*
%TO.N,/TRIGGER*%
X152670000Y-101370000D02*
X152380000Y-101080000D01*
D50*
X155880000Y-65270000D02*
X155880000Y-76560000D01*
D52*
X152670000Y-101410000D02*
X152670000Y-101370000D01*
X152380000Y-101080000D02*
X150610000Y-101080000D01*
D50*
X155880000Y-76560000D02*
X151350000Y-81090000D01*
D49*
%TO.N,/CAPT_INFRA_1*%
X146410000Y-92289173D02*
X147425000Y-91274173D01*
X144110000Y-87440000D02*
X144110000Y-84500000D01*
X145595000Y-88925000D02*
X144110000Y-87440000D01*
X146410000Y-93680000D02*
X146410000Y-92289173D01*
X146700000Y-88925000D02*
X145595000Y-88925000D01*
X147425000Y-89650000D02*
X146700000Y-88925000D01*
X147425000Y-91274173D02*
X147425000Y-89650000D01*
%TO.N,/CAPT_INFRA_2*%
X147680000Y-95190000D02*
X147210000Y-94720000D01*
X155820000Y-84500000D02*
X155820000Y-86050000D01*
X150220000Y-94060000D02*
X149090000Y-95190000D01*
X149090000Y-95190000D02*
X147680000Y-95190000D01*
X150220000Y-91650000D02*
X150220000Y-94060000D01*
X147210000Y-94720000D02*
X147210000Y-93680000D01*
X155820000Y-86050000D02*
X150220000Y-91650000D01*
%TO.N,/CAPT_INFRA_3*%
X150610000Y-97080000D02*
X152007500Y-97080000D01*
X163575000Y-91150000D02*
X163610000Y-91150000D01*
X167530000Y-87230000D02*
X167530000Y-84500000D01*
X152007500Y-97080000D02*
X157517500Y-91570000D01*
X163610000Y-91150000D02*
X167530000Y-87230000D01*
X163155000Y-91570000D02*
X163575000Y-91150000D01*
X157517500Y-91570000D02*
X163155000Y-91570000D01*
D48*
%TO.N,Net-(J11-Pin_1)*%
X189975000Y-99950000D02*
X190900000Y-100875000D01*
X190900000Y-102300000D02*
X190875000Y-102325000D01*
X183980000Y-99950000D02*
X189975000Y-99950000D01*
X181530000Y-97500000D02*
X183980000Y-99950000D01*
X181530000Y-95790000D02*
X181530000Y-97500000D01*
X190900000Y-100875000D02*
X190900000Y-102300000D01*
D51*
%TO.N,Net-(J12-Pin_2)*%
X179070000Y-95265000D02*
X178305000Y-95265000D01*
X178305000Y-95265000D02*
X178170000Y-95400000D01*
X180440000Y-94490000D02*
X179665000Y-95265000D01*
X179665000Y-95265000D02*
X179070000Y-95265000D01*
X183370000Y-94490000D02*
X180440000Y-94490000D01*
X184600000Y-93260000D02*
X183370000Y-94490000D01*
X178170000Y-95400000D02*
X177422500Y-95400000D01*
X184600000Y-91840000D02*
X184600000Y-93260000D01*
D49*
%TO.N,/CAPTLAVD*%
X165790000Y-82630000D02*
X165790000Y-86490000D01*
X151470000Y-96280000D02*
X150610000Y-96280000D01*
X161760000Y-90520000D02*
X157230000Y-90520000D01*
X168670000Y-77112500D02*
X168670000Y-81510000D01*
X168670000Y-81510000D02*
X168090000Y-82090000D01*
X157230000Y-90520000D02*
X151470000Y-96280000D01*
X168437500Y-76880000D02*
X168670000Y-77112500D01*
X165790000Y-86490000D02*
X161760000Y-90520000D01*
X166330000Y-82090000D02*
X165790000Y-82630000D01*
X168090000Y-82090000D02*
X166330000Y-82090000D01*
%TO.N,/CAPTLAVG*%
X164520000Y-74880000D02*
X168437500Y-74880000D01*
X156070000Y-89510000D02*
X161390000Y-89510000D01*
X162740000Y-76660000D02*
X164520000Y-74880000D01*
X150610000Y-94970000D02*
X156070000Y-89510000D01*
X162740000Y-88160000D02*
X162740000Y-76660000D01*
X161390000Y-89510000D02*
X162740000Y-88160000D01*
X150610000Y-95480000D02*
X150610000Y-94970000D01*
D52*
%TO.N,Net-(U4-MODE)*%
X153532740Y-110378600D02*
X154735980Y-110378600D01*
X152922500Y-111429300D02*
X152922500Y-110988840D01*
X152922500Y-110988840D02*
X153532740Y-110378600D01*
D49*
%TO.N,/BP_START*%
X130635000Y-100535000D02*
X130635000Y-99330000D01*
X138875000Y-100375000D02*
X137750000Y-101500000D01*
D52*
X138875000Y-100375000D02*
X138875000Y-98550000D01*
D49*
X131600000Y-101500000D02*
X130635000Y-100535000D01*
D50*
X130635000Y-89330000D02*
X130635000Y-99330000D01*
D49*
X138875000Y-98550000D02*
X138100000Y-97775000D01*
X139530000Y-95480000D02*
X141410000Y-95480000D01*
X138100000Y-97775000D02*
X138100000Y-96250000D01*
X138100000Y-96250000D02*
X138850000Y-95500000D01*
X138850000Y-95500000D02*
X139500000Y-95500000D01*
X137750000Y-101500000D02*
X131600000Y-101500000D01*
%TO.N,/LED_BLEUE*%
X146410000Y-104750000D02*
X148320000Y-106660000D01*
X148320000Y-106660000D02*
X149010000Y-106660000D01*
X146410000Y-102880000D02*
X146410000Y-104750000D01*
%TO.N,/LED_VERTE*%
X148460000Y-105150000D02*
X148010000Y-104700000D01*
X148010000Y-104700000D02*
X148010000Y-102880000D01*
X149020000Y-105150000D02*
X148460000Y-105150000D01*
D51*
%TO.N,Net-(S1-S)*%
X177532500Y-93615000D02*
X177420000Y-93502500D01*
X179070000Y-93615000D02*
X177532500Y-93615000D01*
X179070000Y-93615000D02*
X179565000Y-93615000D01*
X180010000Y-93170000D02*
X180580000Y-93170000D01*
X179565000Y-93615000D02*
X180010000Y-93170000D01*
D49*
%TO.N,/XT2*%
X141410000Y-101080000D02*
X141625000Y-101295000D01*
X141625000Y-101295000D02*
X141625000Y-104725000D01*
%TO.N,/XT1*%
X139225000Y-101650000D02*
X139225000Y-104725000D01*
X140595000Y-100280000D02*
X139225000Y-101650000D01*
X141410000Y-100280000D02*
X140595000Y-100280000D01*
D52*
%TO.N,/BIN1*%
X146490000Y-108880000D02*
X154735980Y-108880000D01*
D49*
X144810000Y-107200000D02*
X146115000Y-108505000D01*
D52*
X146490000Y-108880000D02*
X146115000Y-108505000D01*
D49*
X144810000Y-102880000D02*
X144810000Y-107200000D01*
X146115000Y-108505000D02*
X146330000Y-108720000D01*
%TO.N,/BIN2*%
X145610000Y-106657206D02*
X146883897Y-107931103D01*
D52*
X147685000Y-107930000D02*
X147683897Y-107931103D01*
X147683897Y-107931103D02*
X146883897Y-107931103D01*
D49*
X145610000Y-102880000D02*
X145610000Y-106657206D01*
D52*
X153919620Y-108379620D02*
X153470000Y-107930000D01*
X153470000Y-107930000D02*
X147685000Y-107930000D01*
X154735980Y-108379620D02*
X153919620Y-108379620D01*
D49*
%TO.N,/AIN1*%
X143210000Y-102880000D02*
X143210000Y-108060000D01*
D52*
X154735980Y-109878220D02*
X149701780Y-109878220D01*
X149280000Y-110300000D02*
X148304620Y-110300000D01*
D49*
X145450000Y-110300000D02*
X148304620Y-110300000D01*
D52*
X149701780Y-109878220D02*
X149280000Y-110300000D01*
D49*
X143210000Y-108060000D02*
X145450000Y-110300000D01*
D51*
%TO.N,/REMOTE*%
X143210000Y-93680000D02*
X135945000Y-93680000D01*
X135945000Y-93680000D02*
X135900000Y-93725000D01*
D49*
%TO.N,/AIN2*%
X145990380Y-109380380D02*
X145670380Y-109380380D01*
D52*
X154735980Y-109380380D02*
X145990380Y-109380380D01*
D49*
X145670380Y-109380380D02*
X144010000Y-107720000D01*
X144010000Y-107720000D02*
X144010000Y-102880000D01*
D48*
%TO.N,~+5V*%
X133500000Y-97000000D02*
X133500000Y-97950000D01*
X138050000Y-99475000D02*
X136570000Y-99475000D01*
X134355000Y-98805000D02*
X135900000Y-98805000D01*
X133500000Y-97950000D02*
X134355000Y-98805000D01*
X136570000Y-99475000D02*
X135900000Y-98805000D01*
%TD*%
%TA.AperFunction,Conductor*%
%TO.N,GND*%
G36*
X188909589Y-101042934D02*
G01*
X188924791Y-101054241D01*
X189259355Y-101345344D01*
X189297008Y-101404198D01*
X189301955Y-101440018D01*
X189231283Y-109202791D01*
X189210989Y-109269648D01*
X189198004Y-109286200D01*
X182583545Y-116383992D01*
X182523439Y-116419617D01*
X182492829Y-116423454D01*
X170213774Y-116423454D01*
X170146735Y-116403769D01*
X170123670Y-116384643D01*
X169677848Y-115913101D01*
X169646095Y-115850864D01*
X169643955Y-115828796D01*
X169614905Y-111752877D01*
X169634111Y-111685699D01*
X169640816Y-111676130D01*
X170479805Y-110591582D01*
X170536395Y-110550601D01*
X170577884Y-110543454D01*
X175544177Y-110543454D01*
X176748829Y-109202791D01*
X177116510Y-108793598D01*
X177124997Y-104401315D01*
X177125032Y-104398639D01*
X177148933Y-103394810D01*
X177170208Y-103328259D01*
X177179467Y-103316235D01*
X178346750Y-101978723D01*
X178353530Y-101971552D01*
X179207596Y-101137348D01*
X179269306Y-101104589D01*
X179293211Y-101102061D01*
X188842394Y-101023799D01*
X188909589Y-101042934D01*
G37*
%TD.AperFunction*%
%TD*%
M02*
