%TF.GenerationSoftware,KiCad,Pcbnew,9.0.6*%
%TF.CreationDate,2026-01-16T11:33:55+01:00*%
%TF.ProjectId,Sumositoire_reborn,53756d6f-7369-4746-9f69-72655f726562,rev?*%
%TF.SameCoordinates,Original*%
%TF.FileFunction,Copper,L2,Bot*%
%TF.FilePolarity,Positive*%
%FSLAX46Y46*%
G04 Gerber Fmt 4.6, Leading zero omitted, Abs format (unit mm)*
G04 Created by KiCad (PCBNEW 9.0.6) date 2026-01-16 11:33:55*
%MOMM*%
%LPD*%
G01*
G04 APERTURE LIST*
%TA.AperFunction,WasherPad*%
%ADD10C,5.600000*%
%TD*%
%TA.AperFunction,ComponentPad*%
%ADD11O,1.700000X2.400000*%
%TD*%
%TA.AperFunction,ComponentPad*%
%ADD12R,1.700000X2.400000*%
%TD*%
%TA.AperFunction,ComponentPad*%
%ADD13O,2.400000X1.800000*%
%TD*%
%TA.AperFunction,ComponentPad*%
%ADD14R,2.400000X1.800000*%
%TD*%
%TA.AperFunction,ComponentPad*%
%ADD15R,2.400000X1.700000*%
%TD*%
%TA.AperFunction,ComponentPad*%
%ADD16O,2.400000X1.700000*%
%TD*%
%TA.AperFunction,ViaPad*%
%ADD17C,1.200000*%
%TD*%
%TA.AperFunction,Conductor*%
%ADD18C,1.000000*%
%TD*%
%TA.AperFunction,Conductor*%
%ADD19C,0.350000*%
%TD*%
%TA.AperFunction,Conductor*%
%ADD20C,0.500000*%
%TD*%
%TA.AperFunction,Conductor*%
%ADD21C,0.750000*%
%TD*%
G04 APERTURE END LIST*
D10*
%TO.P,H1,*%
%TO.N,*%
X128500000Y-111000000D03*
%TD*%
D11*
%TO.P,J1,1,Pin_1*%
%TO.N,/RXD*%
X140775000Y-90525000D03*
%TO.P,J1,2,Pin_2*%
%TO.N,/TXD*%
X138235000Y-90525000D03*
%TO.P,J1,3,Pin_3*%
%TO.N,/RST*%
X135695000Y-90525000D03*
D12*
%TO.P,J1,4,Pin_4*%
%TO.N,GND*%
X133155000Y-90525000D03*
%TD*%
D10*
%TO.P,H2,*%
%TO.N,*%
X158500000Y-96000000D03*
%TD*%
D12*
%TO.P,J5,1,Pin_1*%
%TO.N,GND*%
X160990000Y-65270000D03*
D11*
%TO.P,J5,2,Pin_2*%
%TO.N,/ECHO*%
X158450000Y-65270000D03*
%TO.P,J5,3,Pin_3*%
%TO.N,/TRIGGER*%
X155910000Y-65270000D03*
%TO.P,J5,4,Pin_4*%
%TO.N,+5V*%
X153370000Y-65270000D03*
%TD*%
D10*
%TO.P,H3,*%
%TO.N,*%
X188500000Y-96000000D03*
%TD*%
D13*
%TO.P,U5,1,OUT*%
%TO.N,/REMOTE*%
X135900000Y-93725000D03*
D14*
%TO.P,U5,2,GND*%
%TO.N,GND*%
X135900000Y-96265000D03*
D13*
%TO.P,U5,3,Vs*%
%TO.N,~+5V*%
X135900000Y-98805000D03*
%TD*%
D11*
%TO.P,J11,1,Pin_1*%
%TO.N,Net-(J11-Pin_1)*%
X190875000Y-102325000D03*
D12*
%TO.P,J11,2,Pin_2*%
%TO.N,GND*%
X188335000Y-102325000D03*
%TD*%
D15*
%TO.P,J4,1,Pin_1*%
%TO.N,Net-(J4-Pin_1)*%
X163375000Y-103800000D03*
D16*
%TO.P,J4,2,Pin_2*%
%TO.N,Net-(J4-Pin_2)*%
X163375000Y-101260000D03*
%TD*%
D15*
%TO.P,J3,1,Pin_1*%
%TO.N,Net-(J3-Pin_1)*%
X163380000Y-107550000D03*
D16*
%TO.P,J3,2,Pin_2*%
%TO.N,Net-(J3-Pin_2)*%
X163380000Y-110090000D03*
%TD*%
D11*
%TO.P,J7,1,Pin_1*%
%TO.N,+5V*%
X160900000Y-84500000D03*
D12*
%TO.P,J7,2,Pin_2*%
%TO.N,GND*%
X158360000Y-84500000D03*
D11*
%TO.P,J7,3,Pin_3*%
%TO.N,/CAPT_INFRA_2*%
X155820000Y-84500000D03*
%TD*%
%TO.P,J6,1,Pin_1*%
%TO.N,+5V*%
X149190000Y-84500000D03*
D12*
%TO.P,J6,2,Pin_2*%
%TO.N,GND*%
X146650000Y-84500000D03*
D11*
%TO.P,J6,3,Pin_3*%
%TO.N,/CAPT_INFRA_1*%
X144110000Y-84500000D03*
%TD*%
%TO.P,J8,1,Pin_1*%
%TO.N,+5V*%
X172610000Y-84500000D03*
D12*
%TO.P,J8,2,Pin_2*%
%TO.N,GND*%
X170070000Y-84500000D03*
D11*
%TO.P,J8,3,Pin_3*%
%TO.N,/CAPT_INFRA_3*%
X167530000Y-84500000D03*
%TD*%
D15*
%TO.P,J12,1,Pin_1*%
%TO.N,GND*%
X184600000Y-89300000D03*
D16*
%TO.P,J12,2,Pin_2*%
%TO.N,Net-(J12-Pin_2)*%
X184600000Y-91840000D03*
%TD*%
D17*
%TO.N,GND*%
X169350000Y-68720000D03*
X145910000Y-97880000D03*
X182160000Y-102320000D03*
X147160000Y-111980000D03*
X135490000Y-103575000D03*
X152350000Y-68420000D03*
X172915000Y-96550000D03*
X157120000Y-106460000D03*
X166130000Y-103270000D03*
X180800000Y-90000000D03*
X180250000Y-114290000D03*
%TO.N,+5V*%
X154720000Y-114080000D03*
X168280000Y-98439684D03*
%TO.N,/CAPTAR*%
X146437636Y-90338416D03*
X148400000Y-90920000D03*
%TO.N,/ECHO*%
X153510000Y-81170000D03*
X154790000Y-102060000D03*
%TO.N,/TRIGGER*%
X152670000Y-101410000D03*
X151350000Y-81090000D03*
%TD*%
D18*
%TO.N,GND*%
X145910000Y-94660000D02*
X143870000Y-92620000D01*
X146650000Y-84500000D02*
X146650000Y-81600000D01*
X170070000Y-84500000D02*
X170070000Y-69440000D01*
X141085000Y-96265000D02*
X135900000Y-96265000D01*
X145910000Y-97880000D02*
X154490000Y-106460000D01*
X149840000Y-78410000D02*
X149840000Y-70930000D01*
X172915000Y-96550000D02*
X174250000Y-96550000D01*
X165040000Y-105690000D02*
X166130000Y-104600000D01*
X158360000Y-84500000D02*
X158360000Y-82880000D01*
X139090000Y-101550000D02*
X139100000Y-101550000D01*
X146650000Y-81600000D02*
X149840000Y-78410000D01*
X165900000Y-65270000D02*
X169350000Y-68720000D01*
X158360000Y-80480000D02*
X158360000Y-82880000D01*
X160990000Y-65270000D02*
X165900000Y-65270000D01*
X158360000Y-84500000D02*
X158360000Y-70050000D01*
X143870000Y-89000000D02*
X146650000Y-86220000D01*
X129160000Y-96740000D02*
X129160000Y-91800000D01*
X174250000Y-96550000D02*
X180800000Y-90000000D01*
X173830000Y-90000000D02*
X170070000Y-86240000D01*
X142770000Y-97880000D02*
X145910000Y-97880000D01*
X129160000Y-101490000D02*
X131245000Y-103575000D01*
X131245000Y-103575000D02*
X135490000Y-103575000D01*
X135490000Y-103575000D02*
X137065000Y-103575000D01*
X154490000Y-106460000D02*
X157120000Y-106460000D01*
X158360000Y-70050000D02*
X160990000Y-67420000D01*
X139100000Y-101550000D02*
X142770000Y-97880000D01*
X145910000Y-97880000D02*
X145910000Y-94660000D01*
X182930000Y-89300000D02*
X184600000Y-89300000D01*
X130435000Y-90525000D02*
X133155000Y-90525000D01*
X170070000Y-86240000D02*
X170070000Y-84500000D01*
X182160000Y-102320000D02*
X182160000Y-90070000D01*
X147160000Y-111980000D02*
X151600000Y-111980000D01*
X182160000Y-90070000D02*
X182930000Y-89300000D01*
X160990000Y-67420000D02*
X160990000Y-65270000D01*
D19*
X145890000Y-97900000D02*
X145910000Y-97880000D01*
D18*
X137065000Y-103575000D02*
X139090000Y-101550000D01*
X146650000Y-86220000D02*
X146650000Y-84500000D01*
D20*
X180790000Y-89990000D02*
X180800000Y-90000000D01*
D18*
X149840000Y-70930000D02*
X152350000Y-68420000D01*
X151600000Y-111980000D02*
X157120000Y-106460000D01*
X165040000Y-105690000D02*
X157890000Y-105690000D01*
X129160000Y-95320000D02*
X129160000Y-96740000D01*
X129160000Y-96740000D02*
X129160000Y-101490000D01*
X170070000Y-69440000D02*
X169350000Y-68720000D01*
X156290000Y-78410000D02*
X158360000Y-80480000D01*
X166130000Y-104600000D02*
X166130000Y-103270000D01*
X142770000Y-97880000D02*
X142700000Y-97880000D01*
X143870000Y-92620000D02*
X143870000Y-89000000D01*
X180800000Y-90000000D02*
X173830000Y-90000000D01*
X142700000Y-97880000D02*
X141085000Y-96265000D01*
X129160000Y-91800000D02*
X130435000Y-90525000D01*
X157890000Y-105690000D02*
X157120000Y-106460000D01*
X149840000Y-78410000D02*
X156290000Y-78410000D01*
%TO.N,+5V*%
X164640000Y-114080000D02*
X154760000Y-114080000D01*
X168300000Y-110420000D02*
X164640000Y-114080000D01*
X168280000Y-98439684D02*
X168300000Y-98459684D01*
X154760000Y-114080000D02*
X154740000Y-114100000D01*
X168300000Y-98459684D02*
X168300000Y-110420000D01*
D21*
%TO.N,/CAPTAR*%
X146437636Y-90338416D02*
X147818416Y-90338416D01*
X147818416Y-90338416D02*
X148400000Y-90920000D01*
%TO.N,/ECHO*%
X154790000Y-99820000D02*
X153510000Y-98540000D01*
X154790000Y-102060000D02*
X154790000Y-99820000D01*
X153510000Y-98540000D02*
X153510000Y-81170000D01*
%TO.N,/TRIGGER*%
X151320000Y-99960000D02*
X151320000Y-81120000D01*
X152510000Y-101150000D02*
X151320000Y-99960000D01*
X152670000Y-101350000D02*
X152510000Y-101190000D01*
X151320000Y-81120000D02*
X151350000Y-81090000D01*
X152670000Y-101410000D02*
X152670000Y-101350000D01*
X152510000Y-101190000D02*
X152510000Y-101150000D01*
%TD*%
%TA.AperFunction,Conductor*%
%TO.N,GND*%
G36*
X175442539Y-56520185D02*
G01*
X175488294Y-56572989D01*
X175499500Y-56624500D01*
X175499500Y-86565891D01*
X175533608Y-86693187D01*
X175566554Y-86750250D01*
X175599500Y-86807314D01*
X175692686Y-86900500D01*
X175806814Y-86966392D01*
X175934108Y-87000500D01*
X192375500Y-87000500D01*
X192442539Y-87020185D01*
X192488294Y-87072989D01*
X192499500Y-87124500D01*
X192499500Y-116875500D01*
X192479815Y-116942539D01*
X192427011Y-116988294D01*
X192375500Y-116999500D01*
X124624500Y-116999500D01*
X124557461Y-116979815D01*
X124511706Y-116927011D01*
X124500500Y-116875500D01*
X124500500Y-110837860D01*
X125199500Y-110837860D01*
X125199500Y-111162139D01*
X125231284Y-111484857D01*
X125231287Y-111484874D01*
X125294545Y-111802902D01*
X125294548Y-111802913D01*
X125388686Y-112113247D01*
X125512786Y-112412849D01*
X125512788Y-112412854D01*
X125665646Y-112698830D01*
X125665657Y-112698848D01*
X125845811Y-112968467D01*
X125845821Y-112968481D01*
X126051546Y-113219158D01*
X126280841Y-113448453D01*
X126280846Y-113448457D01*
X126280847Y-113448458D01*
X126531524Y-113654183D01*
X126801158Y-113834347D01*
X126801167Y-113834352D01*
X126801169Y-113834353D01*
X127087145Y-113987211D01*
X127087147Y-113987211D01*
X127087153Y-113987215D01*
X127386754Y-114111314D01*
X127697077Y-114205449D01*
X127697083Y-114205450D01*
X127697086Y-114205451D01*
X127697097Y-114205454D01*
X127896528Y-114245122D01*
X128015132Y-114268714D01*
X128337857Y-114300500D01*
X128337860Y-114300500D01*
X128662140Y-114300500D01*
X128662143Y-114300500D01*
X128984868Y-114268714D01*
X129142295Y-114237399D01*
X129302902Y-114205454D01*
X129302913Y-114205451D01*
X129302913Y-114205450D01*
X129302923Y-114205449D01*
X129613246Y-114111314D01*
X129897942Y-113993389D01*
X153619500Y-113993389D01*
X153619500Y-114166610D01*
X153635671Y-114268714D01*
X153646598Y-114337701D01*
X153700127Y-114502445D01*
X153778768Y-114656788D01*
X153880586Y-114796928D01*
X154003072Y-114919414D01*
X154143212Y-115021232D01*
X154297555Y-115099873D01*
X154462299Y-115153402D01*
X154633389Y-115180500D01*
X154633390Y-115180500D01*
X154806610Y-115180500D01*
X154806611Y-115180500D01*
X154977701Y-115153402D01*
X155142445Y-115099873D01*
X155142449Y-115099871D01*
X155153941Y-115094016D01*
X155210237Y-115080500D01*
X164738542Y-115080500D01*
X164769566Y-115074328D01*
X164835188Y-115061275D01*
X164931836Y-115042051D01*
X164985165Y-115019961D01*
X165113914Y-114966632D01*
X165277782Y-114857139D01*
X165417139Y-114717782D01*
X165417139Y-114717780D01*
X165427347Y-114707573D01*
X165427348Y-114707570D01*
X169077140Y-111057781D01*
X169186632Y-110893914D01*
X169262052Y-110711835D01*
X169300500Y-110518540D01*
X169300500Y-110321459D01*
X169300500Y-101077155D01*
X186985000Y-101077155D01*
X186985000Y-102075000D01*
X187901988Y-102075000D01*
X187869075Y-102132007D01*
X187835000Y-102259174D01*
X187835000Y-102390826D01*
X187869075Y-102517993D01*
X187901988Y-102575000D01*
X186985000Y-102575000D01*
X186985000Y-103572844D01*
X186991401Y-103632372D01*
X186991403Y-103632379D01*
X187041645Y-103767086D01*
X187041649Y-103767093D01*
X187127809Y-103882187D01*
X187127812Y-103882190D01*
X187242906Y-103968350D01*
X187242913Y-103968354D01*
X187377620Y-104018596D01*
X187377627Y-104018598D01*
X187437155Y-104024999D01*
X187437172Y-104025000D01*
X188085000Y-104025000D01*
X188085000Y-102758012D01*
X188142007Y-102790925D01*
X188269174Y-102825000D01*
X188400826Y-102825000D01*
X188527993Y-102790925D01*
X188585000Y-102758012D01*
X188585000Y-104025000D01*
X189232828Y-104025000D01*
X189232844Y-104024999D01*
X189292372Y-104018598D01*
X189292379Y-104018596D01*
X189427086Y-103968354D01*
X189427093Y-103968350D01*
X189542187Y-103882190D01*
X189542190Y-103882187D01*
X189628350Y-103767093D01*
X189628354Y-103767086D01*
X189677422Y-103635529D01*
X189719293Y-103579595D01*
X189784757Y-103555178D01*
X189853030Y-103570030D01*
X189881285Y-103591181D01*
X189995213Y-103705109D01*
X190167179Y-103830048D01*
X190167181Y-103830049D01*
X190167184Y-103830051D01*
X190356588Y-103926557D01*
X190558757Y-103992246D01*
X190768713Y-104025500D01*
X190768714Y-104025500D01*
X190981286Y-104025500D01*
X190981287Y-104025500D01*
X191191243Y-103992246D01*
X191393412Y-103926557D01*
X191582816Y-103830051D01*
X191669471Y-103767093D01*
X191754786Y-103705109D01*
X191754788Y-103705106D01*
X191754792Y-103705104D01*
X191905104Y-103554792D01*
X191905106Y-103554788D01*
X191905109Y-103554786D01*
X192030048Y-103382820D01*
X192030047Y-103382820D01*
X192030051Y-103382816D01*
X192126557Y-103193412D01*
X192192246Y-102991243D01*
X192225500Y-102781287D01*
X192225500Y-101868713D01*
X192192246Y-101658757D01*
X192126557Y-101456588D01*
X192030051Y-101267184D01*
X192030049Y-101267181D01*
X192030048Y-101267179D01*
X191905109Y-101095213D01*
X191754786Y-100944890D01*
X191582820Y-100819951D01*
X191393414Y-100723444D01*
X191393413Y-100723443D01*
X191393412Y-100723443D01*
X191191243Y-100657754D01*
X191191241Y-100657753D01*
X191191240Y-100657753D01*
X191029957Y-100632208D01*
X190981287Y-100624500D01*
X190768713Y-100624500D01*
X190720042Y-100632208D01*
X190558760Y-100657753D01*
X190356585Y-100723444D01*
X190167179Y-100819951D01*
X189995215Y-100944889D01*
X189881285Y-101058819D01*
X189819962Y-101092303D01*
X189750270Y-101087319D01*
X189694337Y-101045447D01*
X189677422Y-101014470D01*
X189628354Y-100882913D01*
X189628350Y-100882906D01*
X189542190Y-100767812D01*
X189542187Y-100767809D01*
X189427093Y-100681649D01*
X189427086Y-100681645D01*
X189292379Y-100631403D01*
X189292372Y-100631401D01*
X189232844Y-100625000D01*
X188585000Y-100625000D01*
X188585000Y-101891988D01*
X188527993Y-101859075D01*
X188400826Y-101825000D01*
X188269174Y-101825000D01*
X188142007Y-101859075D01*
X188085000Y-101891988D01*
X188085000Y-100625000D01*
X187437155Y-100625000D01*
X187377627Y-100631401D01*
X187377620Y-100631403D01*
X187242913Y-100681645D01*
X187242906Y-100681649D01*
X187127812Y-100767809D01*
X187127809Y-100767812D01*
X187041649Y-100882906D01*
X187041645Y-100882913D01*
X186991403Y-101017620D01*
X186991401Y-101017627D01*
X186985000Y-101077155D01*
X169300500Y-101077155D01*
X169300500Y-98879838D01*
X169306569Y-98841520D01*
X169308900Y-98834347D01*
X169353402Y-98697385D01*
X169380500Y-98526295D01*
X169380500Y-98353073D01*
X169353402Y-98181983D01*
X169299873Y-98017239D01*
X169221232Y-97862896D01*
X169119414Y-97722756D01*
X168996928Y-97600270D01*
X168856788Y-97498452D01*
X168702445Y-97419811D01*
X168537701Y-97366282D01*
X168537699Y-97366281D01*
X168537698Y-97366281D01*
X168406271Y-97345465D01*
X168366611Y-97339184D01*
X168193389Y-97339184D01*
X168153728Y-97345465D01*
X168022302Y-97366281D01*
X167857552Y-97419812D01*
X167703211Y-97498452D01*
X167623256Y-97556543D01*
X167563072Y-97600270D01*
X167563070Y-97600272D01*
X167563069Y-97600272D01*
X167440588Y-97722753D01*
X167440588Y-97722754D01*
X167440586Y-97722756D01*
X167430413Y-97736758D01*
X167338768Y-97862895D01*
X167260128Y-98017236D01*
X167206597Y-98181986D01*
X167179500Y-98353073D01*
X167179500Y-98526294D01*
X167199754Y-98654178D01*
X167206598Y-98697385D01*
X167251098Y-98834342D01*
X167260128Y-98862131D01*
X167285985Y-98912878D01*
X167299500Y-98969173D01*
X167299500Y-109954217D01*
X167279815Y-110021256D01*
X167263181Y-110041898D01*
X164261899Y-113043181D01*
X164200576Y-113076666D01*
X164174218Y-113079500D01*
X155210237Y-113079500D01*
X155153941Y-113065984D01*
X155142449Y-113060128D01*
X155060073Y-113033362D01*
X154977701Y-113006598D01*
X154977699Y-113006597D01*
X154977698Y-113006597D01*
X154846271Y-112985781D01*
X154806611Y-112979500D01*
X154633389Y-112979500D01*
X154593728Y-112985781D01*
X154462302Y-113006597D01*
X154297552Y-113060128D01*
X154143211Y-113138768D01*
X154063256Y-113196859D01*
X154003072Y-113240586D01*
X154003070Y-113240588D01*
X154003069Y-113240588D01*
X153880588Y-113363069D01*
X153880588Y-113363070D01*
X153880586Y-113363072D01*
X153836859Y-113423256D01*
X153778768Y-113503211D01*
X153700128Y-113657552D01*
X153646597Y-113822302D01*
X153619500Y-113993389D01*
X129897942Y-113993389D01*
X129912847Y-113987215D01*
X130198842Y-113834347D01*
X130468476Y-113654183D01*
X130719153Y-113448458D01*
X130948458Y-113219153D01*
X131154183Y-112968476D01*
X131334347Y-112698842D01*
X131487215Y-112412847D01*
X131611314Y-112113246D01*
X131705449Y-111802923D01*
X131705451Y-111802913D01*
X131705454Y-111802902D01*
X131737399Y-111642295D01*
X131768714Y-111484868D01*
X131800500Y-111162143D01*
X131800500Y-110837857D01*
X131768714Y-110515132D01*
X131730190Y-110321459D01*
X131705454Y-110197097D01*
X131705451Y-110197086D01*
X131705450Y-110197083D01*
X131705449Y-110197077D01*
X131611314Y-109886754D01*
X131487215Y-109587153D01*
X131478895Y-109571588D01*
X131334353Y-109301169D01*
X131334352Y-109301167D01*
X131334347Y-109301158D01*
X131154183Y-109031524D01*
X130948458Y-108780847D01*
X130948457Y-108780846D01*
X130948453Y-108780841D01*
X130719158Y-108551546D01*
X130468481Y-108345821D01*
X130468480Y-108345820D01*
X130468476Y-108345817D01*
X130198842Y-108165653D01*
X130198837Y-108165650D01*
X130198830Y-108165646D01*
X129912854Y-108012788D01*
X129912849Y-108012786D01*
X129613247Y-107888686D01*
X129302913Y-107794548D01*
X129302902Y-107794545D01*
X128984874Y-107731287D01*
X128984857Y-107731284D01*
X128740812Y-107707248D01*
X128662143Y-107699500D01*
X128337857Y-107699500D01*
X128265099Y-107706666D01*
X128015142Y-107731284D01*
X128015125Y-107731287D01*
X127697097Y-107794545D01*
X127697086Y-107794548D01*
X127386752Y-107888686D01*
X127087150Y-108012786D01*
X127087145Y-108012788D01*
X126801169Y-108165646D01*
X126801151Y-108165657D01*
X126531532Y-108345811D01*
X126531518Y-108345821D01*
X126280841Y-108551546D01*
X126051546Y-108780841D01*
X125845821Y-109031518D01*
X125845811Y-109031532D01*
X125665657Y-109301151D01*
X125665646Y-109301169D01*
X125512788Y-109587145D01*
X125512786Y-109587150D01*
X125388686Y-109886752D01*
X125294548Y-110197086D01*
X125294545Y-110197097D01*
X125231287Y-110515125D01*
X125231284Y-110515142D01*
X125199500Y-110837860D01*
X124500500Y-110837860D01*
X124500500Y-106652135D01*
X161679500Y-106652135D01*
X161679500Y-108447870D01*
X161679501Y-108447876D01*
X161685908Y-108507483D01*
X161736202Y-108642328D01*
X161736206Y-108642335D01*
X161822452Y-108757544D01*
X161822455Y-108757547D01*
X161937664Y-108843793D01*
X161937671Y-108843797D01*
X162069082Y-108892810D01*
X162125016Y-108934681D01*
X162149433Y-109000145D01*
X162134582Y-109068418D01*
X162113431Y-109096673D01*
X161999889Y-109210215D01*
X161874951Y-109382179D01*
X161778444Y-109571585D01*
X161712753Y-109773760D01*
X161694857Y-109886752D01*
X161679500Y-109983713D01*
X161679500Y-110196287D01*
X161712754Y-110406243D01*
X161748134Y-110515132D01*
X161778444Y-110608414D01*
X161874951Y-110797820D01*
X161999890Y-110969786D01*
X162150213Y-111120109D01*
X162322179Y-111245048D01*
X162322181Y-111245049D01*
X162322184Y-111245051D01*
X162511588Y-111341557D01*
X162713757Y-111407246D01*
X162923713Y-111440500D01*
X162923714Y-111440500D01*
X163836286Y-111440500D01*
X163836287Y-111440500D01*
X164046243Y-111407246D01*
X164248412Y-111341557D01*
X164437816Y-111245051D01*
X164551930Y-111162143D01*
X164609786Y-111120109D01*
X164609788Y-111120106D01*
X164609792Y-111120104D01*
X164760104Y-110969792D01*
X164760106Y-110969788D01*
X164760109Y-110969786D01*
X164885048Y-110797820D01*
X164885047Y-110797820D01*
X164885051Y-110797816D01*
X164981557Y-110608412D01*
X165047246Y-110406243D01*
X165080500Y-110196287D01*
X165080500Y-109983713D01*
X165047246Y-109773757D01*
X164981557Y-109571588D01*
X164885051Y-109382184D01*
X164885049Y-109382181D01*
X164885048Y-109382179D01*
X164760109Y-109210213D01*
X164646569Y-109096673D01*
X164613084Y-109035350D01*
X164618068Y-108965658D01*
X164659940Y-108909725D01*
X164690915Y-108892810D01*
X164822331Y-108843796D01*
X164937546Y-108757546D01*
X165023796Y-108642331D01*
X165074091Y-108507483D01*
X165080500Y-108447873D01*
X165080499Y-106652128D01*
X165074091Y-106592517D01*
X165023796Y-106457669D01*
X165023795Y-106457668D01*
X165023793Y-106457664D01*
X164937547Y-106342455D01*
X164937544Y-106342452D01*
X164822335Y-106256206D01*
X164822328Y-106256202D01*
X164687482Y-106205908D01*
X164687483Y-106205908D01*
X164627883Y-106199501D01*
X164627881Y-106199500D01*
X164627873Y-106199500D01*
X164627864Y-106199500D01*
X162132129Y-106199500D01*
X162132123Y-106199501D01*
X162072516Y-106205908D01*
X161937671Y-106256202D01*
X161937664Y-106256206D01*
X161822455Y-106342452D01*
X161822452Y-106342455D01*
X161736206Y-106457664D01*
X161736202Y-106457671D01*
X161685908Y-106592517D01*
X161679501Y-106652116D01*
X161679501Y-106652123D01*
X161679500Y-106652135D01*
X124500500Y-106652135D01*
X124500500Y-89277155D01*
X131805000Y-89277155D01*
X131805000Y-90275000D01*
X132721988Y-90275000D01*
X132689075Y-90332007D01*
X132655000Y-90459174D01*
X132655000Y-90590826D01*
X132689075Y-90717993D01*
X132721988Y-90775000D01*
X131805000Y-90775000D01*
X131805000Y-91772844D01*
X131811401Y-91832372D01*
X131811403Y-91832379D01*
X131861645Y-91967086D01*
X131861649Y-91967093D01*
X131947809Y-92082187D01*
X131947812Y-92082190D01*
X132062906Y-92168350D01*
X132062913Y-92168354D01*
X132197620Y-92218596D01*
X132197627Y-92218598D01*
X132257155Y-92224999D01*
X132257172Y-92225000D01*
X132905000Y-92225000D01*
X132905000Y-90958012D01*
X132962007Y-90990925D01*
X133089174Y-91025000D01*
X133220826Y-91025000D01*
X133347993Y-90990925D01*
X133405000Y-90958012D01*
X133405000Y-92225000D01*
X134052828Y-92225000D01*
X134052844Y-92224999D01*
X134112372Y-92218598D01*
X134112379Y-92218596D01*
X134247086Y-92168354D01*
X134247093Y-92168350D01*
X134362187Y-92082190D01*
X134362190Y-92082187D01*
X134448350Y-91967093D01*
X134448354Y-91967086D01*
X134497422Y-91835529D01*
X134539293Y-91779595D01*
X134604757Y-91755178D01*
X134673030Y-91770030D01*
X134701285Y-91791181D01*
X134815213Y-91905109D01*
X134987179Y-92030048D01*
X134987181Y-92030049D01*
X134987184Y-92030051D01*
X135176588Y-92126557D01*
X135219033Y-92140348D01*
X135276709Y-92179786D01*
X135303907Y-92244144D01*
X135291992Y-92312991D01*
X135244748Y-92364466D01*
X135219033Y-92376210D01*
X135062396Y-92427103D01*
X135062393Y-92427104D01*
X134865974Y-92527187D01*
X134687641Y-92656752D01*
X134687636Y-92656756D01*
X134531756Y-92812636D01*
X134531752Y-92812641D01*
X134402187Y-92990974D01*
X134302104Y-93187393D01*
X134302103Y-93187396D01*
X134233985Y-93397047D01*
X134199500Y-93614778D01*
X134199500Y-93835221D01*
X134233985Y-94052952D01*
X134302103Y-94262603D01*
X134302104Y-94262606D01*
X134402187Y-94459025D01*
X134531752Y-94637358D01*
X134531756Y-94637363D01*
X134582316Y-94687923D01*
X134615801Y-94749246D01*
X134610817Y-94818938D01*
X134568945Y-94874871D01*
X134537969Y-94891785D01*
X134457918Y-94921643D01*
X134457906Y-94921649D01*
X134342812Y-95007809D01*
X134342809Y-95007812D01*
X134256649Y-95122906D01*
X134256645Y-95122913D01*
X134206403Y-95257620D01*
X134206401Y-95257627D01*
X134200000Y-95317155D01*
X134200000Y-96015000D01*
X135524722Y-96015000D01*
X135480667Y-96091306D01*
X135450000Y-96205756D01*
X135450000Y-96324244D01*
X135480667Y-96438694D01*
X135524722Y-96515000D01*
X134200000Y-96515000D01*
X134200000Y-97212844D01*
X134206401Y-97272372D01*
X134206403Y-97272379D01*
X134256645Y-97407086D01*
X134256649Y-97407093D01*
X134342809Y-97522187D01*
X134342812Y-97522190D01*
X134457906Y-97608350D01*
X134457913Y-97608354D01*
X134537968Y-97638213D01*
X134593902Y-97680084D01*
X134618319Y-97745549D01*
X134603467Y-97813822D01*
X134582317Y-97842075D01*
X134531756Y-97892636D01*
X134531752Y-97892641D01*
X134402187Y-98070974D01*
X134302104Y-98267393D01*
X134302103Y-98267396D01*
X134233985Y-98477047D01*
X134233985Y-98477049D01*
X134199500Y-98694778D01*
X134199500Y-98915222D01*
X134208045Y-98969173D01*
X134233985Y-99132952D01*
X134302103Y-99342603D01*
X134302104Y-99342606D01*
X134402187Y-99539025D01*
X134531752Y-99717358D01*
X134531756Y-99717363D01*
X134687636Y-99873243D01*
X134687641Y-99873247D01*
X134843192Y-99986260D01*
X134865978Y-100002815D01*
X134951190Y-100046233D01*
X135062393Y-100102895D01*
X135062396Y-100102896D01*
X135167221Y-100136955D01*
X135272049Y-100171015D01*
X135489778Y-100205500D01*
X135489779Y-100205500D01*
X136310221Y-100205500D01*
X136310222Y-100205500D01*
X136527951Y-100171015D01*
X136737606Y-100102895D01*
X136934022Y-100002815D01*
X137112365Y-99873242D01*
X137268242Y-99717365D01*
X137397815Y-99539022D01*
X137497895Y-99342606D01*
X137566015Y-99132951D01*
X137600500Y-98915222D01*
X137600500Y-98694778D01*
X137566015Y-98477049D01*
X137497895Y-98267394D01*
X137497895Y-98267393D01*
X137452018Y-98177356D01*
X137397815Y-98070978D01*
X137358772Y-98017239D01*
X137268247Y-97892641D01*
X137268243Y-97892636D01*
X137217683Y-97842076D01*
X137184198Y-97780753D01*
X137189182Y-97711061D01*
X137231054Y-97655128D01*
X137262031Y-97638213D01*
X137342086Y-97608354D01*
X137342093Y-97608350D01*
X137457187Y-97522190D01*
X137457190Y-97522187D01*
X137543350Y-97407093D01*
X137543354Y-97407086D01*
X137593596Y-97272379D01*
X137593598Y-97272372D01*
X137599999Y-97212844D01*
X137600000Y-97212827D01*
X137600000Y-96515000D01*
X136275278Y-96515000D01*
X136319333Y-96438694D01*
X136350000Y-96324244D01*
X136350000Y-96205756D01*
X136319333Y-96091306D01*
X136275278Y-96015000D01*
X137600000Y-96015000D01*
X137600000Y-95317172D01*
X137599999Y-95317155D01*
X137593598Y-95257627D01*
X137593596Y-95257620D01*
X137543354Y-95122913D01*
X137543350Y-95122906D01*
X137457190Y-95007812D01*
X137457187Y-95007809D01*
X137342093Y-94921649D01*
X137342087Y-94921646D01*
X137262030Y-94891786D01*
X137206097Y-94849914D01*
X137181680Y-94784450D01*
X137196532Y-94716177D01*
X137217681Y-94687925D01*
X137268242Y-94637365D01*
X137397815Y-94459022D01*
X137497895Y-94262606D01*
X137566015Y-94052951D01*
X137600500Y-93835222D01*
X137600500Y-93614778D01*
X137566015Y-93397049D01*
X137531955Y-93292221D01*
X137497896Y-93187396D01*
X137497895Y-93187393D01*
X137449062Y-93091555D01*
X137397815Y-92990978D01*
X137309999Y-92870109D01*
X137268247Y-92812641D01*
X137268243Y-92812636D01*
X137112363Y-92656756D01*
X137112358Y-92656752D01*
X136934025Y-92527187D01*
X136934024Y-92527186D01*
X136934022Y-92527185D01*
X136871096Y-92495122D01*
X136737606Y-92427104D01*
X136737603Y-92427103D01*
X136527952Y-92358985D01*
X136316941Y-92325564D01*
X136253806Y-92295635D01*
X136216875Y-92236323D01*
X136217873Y-92166461D01*
X136256483Y-92108228D01*
X136280041Y-92092607D01*
X136402816Y-92030051D01*
X136424789Y-92014086D01*
X136574786Y-91905109D01*
X136574788Y-91905106D01*
X136574792Y-91905104D01*
X136725104Y-91754792D01*
X136725106Y-91754788D01*
X136725109Y-91754786D01*
X136850048Y-91582820D01*
X136850047Y-91582820D01*
X136850051Y-91582816D01*
X136854514Y-91574054D01*
X136902488Y-91523259D01*
X136970308Y-91506463D01*
X137036444Y-91528999D01*
X137075486Y-91574056D01*
X137079951Y-91582820D01*
X137204890Y-91754786D01*
X137355213Y-91905109D01*
X137527179Y-92030048D01*
X137527181Y-92030049D01*
X137527184Y-92030051D01*
X137716588Y-92126557D01*
X137918757Y-92192246D01*
X138128713Y-92225500D01*
X138128714Y-92225500D01*
X138341286Y-92225500D01*
X138341287Y-92225500D01*
X138551243Y-92192246D01*
X138753412Y-92126557D01*
X138942816Y-92030051D01*
X138964789Y-92014086D01*
X139114786Y-91905109D01*
X139114788Y-91905106D01*
X139114792Y-91905104D01*
X139265104Y-91754792D01*
X139265106Y-91754788D01*
X139265109Y-91754786D01*
X139390048Y-91582820D01*
X139390047Y-91582820D01*
X139390051Y-91582816D01*
X139394514Y-91574054D01*
X139442488Y-91523259D01*
X139510308Y-91506463D01*
X139576444Y-91528999D01*
X139615486Y-91574056D01*
X139619951Y-91582820D01*
X139744890Y-91754786D01*
X139895213Y-91905109D01*
X140067179Y-92030048D01*
X140067181Y-92030049D01*
X140067184Y-92030051D01*
X140256588Y-92126557D01*
X140458757Y-92192246D01*
X140668713Y-92225500D01*
X140668714Y-92225500D01*
X140881286Y-92225500D01*
X140881287Y-92225500D01*
X141091243Y-92192246D01*
X141293412Y-92126557D01*
X141482816Y-92030051D01*
X141504789Y-92014086D01*
X141654786Y-91905109D01*
X141654788Y-91905106D01*
X141654792Y-91905104D01*
X141805104Y-91754792D01*
X141805106Y-91754788D01*
X141805109Y-91754786D01*
X141930048Y-91582820D01*
X141930047Y-91582820D01*
X141930051Y-91582816D01*
X142026557Y-91393412D01*
X142092246Y-91191243D01*
X142125500Y-90981287D01*
X142125500Y-90251805D01*
X145337136Y-90251805D01*
X145337136Y-90425026D01*
X145363795Y-90593350D01*
X145364234Y-90596117D01*
X145417763Y-90760861D01*
X145496404Y-90915204D01*
X145598222Y-91055344D01*
X145720708Y-91177830D01*
X145860848Y-91279648D01*
X146015191Y-91358289D01*
X146179935Y-91411818D01*
X146351025Y-91438916D01*
X146351026Y-91438916D01*
X146524246Y-91438916D01*
X146524247Y-91438916D01*
X146695337Y-91411818D01*
X146860081Y-91358289D01*
X147014424Y-91279648D01*
X147040728Y-91260536D01*
X147072302Y-91237598D01*
X147092346Y-91230445D01*
X147110252Y-91218939D01*
X147134278Y-91215484D01*
X147138108Y-91214118D01*
X147145187Y-91213916D01*
X147248274Y-91213916D01*
X147315313Y-91233601D01*
X147361068Y-91286405D01*
X147366205Y-91299597D01*
X147380128Y-91342449D01*
X147429281Y-91438916D01*
X147458768Y-91496788D01*
X147560586Y-91636928D01*
X147683072Y-91759414D01*
X147823212Y-91861232D01*
X147977555Y-91939873D01*
X148142299Y-91993402D01*
X148313389Y-92020500D01*
X148313390Y-92020500D01*
X148486610Y-92020500D01*
X148486611Y-92020500D01*
X148657701Y-91993402D01*
X148822445Y-91939873D01*
X148976788Y-91861232D01*
X149116928Y-91759414D01*
X149239414Y-91636928D01*
X149341232Y-91496788D01*
X149419873Y-91342445D01*
X149473402Y-91177701D01*
X149500500Y-91006611D01*
X149500500Y-90833389D01*
X149473402Y-90662299D01*
X149419873Y-90497555D01*
X149341232Y-90343212D01*
X149239414Y-90203072D01*
X149116928Y-90080586D01*
X148976788Y-89978768D01*
X148822445Y-89900127D01*
X148657701Y-89846598D01*
X148657698Y-89846597D01*
X148587038Y-89835405D01*
X148523904Y-89805475D01*
X148518774Y-89800630D01*
X148376515Y-89658371D01*
X148376514Y-89658370D01*
X148376513Y-89658369D01*
X148233127Y-89562561D01*
X148233114Y-89562554D01*
X148073794Y-89496562D01*
X148073782Y-89496559D01*
X147904648Y-89462916D01*
X147904645Y-89462916D01*
X147145187Y-89462916D01*
X147078148Y-89443231D01*
X147072302Y-89439234D01*
X147014427Y-89397186D01*
X147014426Y-89397185D01*
X147014424Y-89397184D01*
X146860081Y-89318543D01*
X146695337Y-89265014D01*
X146695335Y-89265013D01*
X146695334Y-89265013D01*
X146563907Y-89244197D01*
X146524247Y-89237916D01*
X146351025Y-89237916D01*
X146311364Y-89244197D01*
X146179938Y-89265013D01*
X146015188Y-89318544D01*
X145860847Y-89397184D01*
X145802971Y-89439234D01*
X145720708Y-89499002D01*
X145720706Y-89499004D01*
X145720705Y-89499004D01*
X145598224Y-89621485D01*
X145598224Y-89621486D01*
X145598222Y-89621488D01*
X145571425Y-89658371D01*
X145496404Y-89761627D01*
X145417764Y-89915968D01*
X145364233Y-90080718D01*
X145337136Y-90251805D01*
X142125500Y-90251805D01*
X142125500Y-90068713D01*
X142092246Y-89858757D01*
X142026557Y-89656588D01*
X141930051Y-89467184D01*
X141930049Y-89467181D01*
X141930048Y-89467179D01*
X141805109Y-89295213D01*
X141654786Y-89144890D01*
X141482820Y-89019951D01*
X141293414Y-88923444D01*
X141293413Y-88923443D01*
X141293412Y-88923443D01*
X141091243Y-88857754D01*
X141091241Y-88857753D01*
X141091240Y-88857753D01*
X140929957Y-88832208D01*
X140881287Y-88824500D01*
X140668713Y-88824500D01*
X140620042Y-88832208D01*
X140458760Y-88857753D01*
X140458757Y-88857754D01*
X140329043Y-88899901D01*
X140256585Y-88923444D01*
X140067179Y-89019951D01*
X139895213Y-89144890D01*
X139744890Y-89295213D01*
X139619949Y-89467182D01*
X139615484Y-89475946D01*
X139567509Y-89526742D01*
X139499688Y-89543536D01*
X139433553Y-89520998D01*
X139394516Y-89475946D01*
X139390050Y-89467182D01*
X139265109Y-89295213D01*
X139114786Y-89144890D01*
X138942820Y-89019951D01*
X138753414Y-88923444D01*
X138753413Y-88923443D01*
X138753412Y-88923443D01*
X138551243Y-88857754D01*
X138551241Y-88857753D01*
X138551240Y-88857753D01*
X138389957Y-88832208D01*
X138341287Y-88824500D01*
X138128713Y-88824500D01*
X138080042Y-88832208D01*
X137918760Y-88857753D01*
X137918757Y-88857754D01*
X137789043Y-88899901D01*
X137716585Y-88923444D01*
X137527179Y-89019951D01*
X137355213Y-89144890D01*
X137204890Y-89295213D01*
X137079949Y-89467182D01*
X137075484Y-89475946D01*
X137027509Y-89526742D01*
X136959688Y-89543536D01*
X136893553Y-89520998D01*
X136854516Y-89475946D01*
X136850050Y-89467182D01*
X136725109Y-89295213D01*
X136574786Y-89144890D01*
X136402820Y-89019951D01*
X136213414Y-88923444D01*
X136213413Y-88923443D01*
X136213412Y-88923443D01*
X136011243Y-88857754D01*
X136011241Y-88857753D01*
X136011240Y-88857753D01*
X135849957Y-88832208D01*
X135801287Y-88824500D01*
X135588713Y-88824500D01*
X135540042Y-88832208D01*
X135378760Y-88857753D01*
X135378757Y-88857754D01*
X135249043Y-88899901D01*
X135176585Y-88923444D01*
X134987179Y-89019951D01*
X134815215Y-89144889D01*
X134701285Y-89258819D01*
X134639962Y-89292303D01*
X134570270Y-89287319D01*
X134514337Y-89245447D01*
X134497422Y-89214470D01*
X134448354Y-89082913D01*
X134448350Y-89082906D01*
X134362190Y-88967812D01*
X134362187Y-88967809D01*
X134247093Y-88881649D01*
X134247086Y-88881645D01*
X134112379Y-88831403D01*
X134112372Y-88831401D01*
X134052844Y-88825000D01*
X133405000Y-88825000D01*
X133405000Y-90091988D01*
X133347993Y-90059075D01*
X133220826Y-90025000D01*
X133089174Y-90025000D01*
X132962007Y-90059075D01*
X132905000Y-90091988D01*
X132905000Y-88825000D01*
X132257155Y-88825000D01*
X132197627Y-88831401D01*
X132197620Y-88831403D01*
X132062913Y-88881645D01*
X132062906Y-88881649D01*
X131947812Y-88967809D01*
X131947809Y-88967812D01*
X131861649Y-89082906D01*
X131861645Y-89082913D01*
X131811403Y-89217620D01*
X131811401Y-89217627D01*
X131805000Y-89277155D01*
X124500500Y-89277155D01*
X124500500Y-87124500D01*
X124520185Y-87057461D01*
X124572989Y-87011706D01*
X124624500Y-87000500D01*
X141065890Y-87000500D01*
X141065892Y-87000500D01*
X141193186Y-86966392D01*
X141307314Y-86900500D01*
X141400500Y-86807314D01*
X141466392Y-86693186D01*
X141500500Y-86565892D01*
X141500500Y-84043713D01*
X142759500Y-84043713D01*
X142759500Y-84956286D01*
X142792753Y-85166239D01*
X142858444Y-85368414D01*
X142954951Y-85557820D01*
X143079890Y-85729786D01*
X143230213Y-85880109D01*
X143402179Y-86005048D01*
X143402181Y-86005049D01*
X143402184Y-86005051D01*
X143591588Y-86101557D01*
X143793757Y-86167246D01*
X144003713Y-86200500D01*
X144003714Y-86200500D01*
X144216286Y-86200500D01*
X144216287Y-86200500D01*
X144426243Y-86167246D01*
X144628412Y-86101557D01*
X144817816Y-86005051D01*
X144904478Y-85942088D01*
X144989784Y-85880110D01*
X144989784Y-85880109D01*
X144989792Y-85880104D01*
X145103717Y-85766178D01*
X145165036Y-85732696D01*
X145234728Y-85737680D01*
X145290662Y-85779551D01*
X145307577Y-85810528D01*
X145356646Y-85942088D01*
X145356649Y-85942093D01*
X145442809Y-86057187D01*
X145442812Y-86057190D01*
X145557906Y-86143350D01*
X145557913Y-86143354D01*
X145692620Y-86193596D01*
X145692627Y-86193598D01*
X145752155Y-86199999D01*
X145752172Y-86200000D01*
X146400000Y-86200000D01*
X146400000Y-84933012D01*
X146457007Y-84965925D01*
X146584174Y-85000000D01*
X146715826Y-85000000D01*
X146842993Y-84965925D01*
X146900000Y-84933012D01*
X146900000Y-86200000D01*
X147547828Y-86200000D01*
X147547844Y-86199999D01*
X147607372Y-86193598D01*
X147607379Y-86193596D01*
X147742086Y-86143354D01*
X147742093Y-86143350D01*
X147857187Y-86057190D01*
X147857190Y-86057187D01*
X147943350Y-85942093D01*
X147943354Y-85942086D01*
X147992422Y-85810529D01*
X148034293Y-85754595D01*
X148099757Y-85730178D01*
X148168030Y-85745030D01*
X148196285Y-85766181D01*
X148310213Y-85880109D01*
X148482179Y-86005048D01*
X148482181Y-86005049D01*
X148482184Y-86005051D01*
X148671588Y-86101557D01*
X148873757Y-86167246D01*
X149083713Y-86200500D01*
X149083714Y-86200500D01*
X149296286Y-86200500D01*
X149296287Y-86200500D01*
X149506243Y-86167246D01*
X149708412Y-86101557D01*
X149897816Y-86005051D01*
X149984478Y-85942088D01*
X150069786Y-85880109D01*
X150069788Y-85880106D01*
X150069792Y-85880104D01*
X150220104Y-85729792D01*
X150220181Y-85729685D01*
X150220221Y-85729654D01*
X150223276Y-85726079D01*
X150224026Y-85726720D01*
X150275511Y-85687020D01*
X150345124Y-85681041D01*
X150406920Y-85713646D01*
X150441277Y-85774485D01*
X150444500Y-85802571D01*
X150444500Y-100046233D01*
X150478143Y-100215366D01*
X150478146Y-100215378D01*
X150544138Y-100374698D01*
X150544145Y-100374711D01*
X150639954Y-100518098D01*
X150639957Y-100518102D01*
X151533181Y-101411325D01*
X151566666Y-101472648D01*
X151568722Y-101491779D01*
X151569117Y-101491748D01*
X151569499Y-101496608D01*
X151591823Y-101637555D01*
X151596598Y-101667701D01*
X151650127Y-101832445D01*
X151728768Y-101986788D01*
X151830586Y-102126928D01*
X151953072Y-102249414D01*
X152093212Y-102351232D01*
X152247555Y-102429873D01*
X152412299Y-102483402D01*
X152583389Y-102510500D01*
X152583390Y-102510500D01*
X152756610Y-102510500D01*
X152756611Y-102510500D01*
X152927701Y-102483402D01*
X153092445Y-102429873D01*
X153246788Y-102351232D01*
X153386928Y-102249414D01*
X153490105Y-102146236D01*
X153551424Y-102112754D01*
X153621116Y-102117738D01*
X153677050Y-102159609D01*
X153700256Y-102214522D01*
X153716114Y-102314649D01*
X153716598Y-102317701D01*
X153770127Y-102482445D01*
X153848768Y-102636788D01*
X153950586Y-102776928D01*
X154073072Y-102899414D01*
X154213212Y-103001232D01*
X154367555Y-103079873D01*
X154532299Y-103133402D01*
X154703389Y-103160500D01*
X154703390Y-103160500D01*
X154876610Y-103160500D01*
X154876611Y-103160500D01*
X155047701Y-103133402D01*
X155212445Y-103079873D01*
X155366788Y-103001232D01*
X155506928Y-102899414D01*
X155629414Y-102776928D01*
X155731232Y-102636788D01*
X155809873Y-102482445D01*
X155863402Y-102317701D01*
X155890500Y-102146611D01*
X155890500Y-101973389D01*
X155863402Y-101802299D01*
X155809873Y-101637555D01*
X155731232Y-101483212D01*
X155711889Y-101456588D01*
X155689182Y-101425334D01*
X155682029Y-101405289D01*
X155670523Y-101387384D01*
X155667068Y-101363357D01*
X155665702Y-101359528D01*
X155665500Y-101352449D01*
X155665500Y-101153713D01*
X161674500Y-101153713D01*
X161674500Y-101366287D01*
X161707754Y-101576243D01*
X161737469Y-101667697D01*
X161773444Y-101778414D01*
X161869951Y-101967820D01*
X161994890Y-102139786D01*
X162108430Y-102253326D01*
X162141915Y-102314649D01*
X162136931Y-102384341D01*
X162095059Y-102440274D01*
X162064083Y-102457189D01*
X161932669Y-102506203D01*
X161932664Y-102506206D01*
X161817455Y-102592452D01*
X161817452Y-102592455D01*
X161731206Y-102707664D01*
X161731202Y-102707671D01*
X161680908Y-102842517D01*
X161674501Y-102902116D01*
X161674501Y-102902123D01*
X161674500Y-102902135D01*
X161674500Y-104697870D01*
X161674501Y-104697876D01*
X161680908Y-104757483D01*
X161731202Y-104892328D01*
X161731206Y-104892335D01*
X161817452Y-105007544D01*
X161817455Y-105007547D01*
X161932664Y-105093793D01*
X161932671Y-105093797D01*
X162067517Y-105144091D01*
X162067516Y-105144091D01*
X162074444Y-105144835D01*
X162127127Y-105150500D01*
X164622872Y-105150499D01*
X164682483Y-105144091D01*
X164817331Y-105093796D01*
X164932546Y-105007546D01*
X165018796Y-104892331D01*
X165069091Y-104757483D01*
X165075500Y-104697873D01*
X165075499Y-102902128D01*
X165069091Y-102842517D01*
X165049848Y-102790925D01*
X165018797Y-102707671D01*
X165018793Y-102707664D01*
X164932547Y-102592455D01*
X164932544Y-102592452D01*
X164817335Y-102506206D01*
X164817328Y-102506202D01*
X164685917Y-102457189D01*
X164629983Y-102415318D01*
X164605566Y-102349853D01*
X164620418Y-102281580D01*
X164641563Y-102253332D01*
X164755104Y-102139792D01*
X164764450Y-102126929D01*
X164880048Y-101967820D01*
X164880047Y-101967820D01*
X164880051Y-101967816D01*
X164976557Y-101778412D01*
X165042246Y-101576243D01*
X165075500Y-101366287D01*
X165075500Y-101153713D01*
X165042246Y-100943757D01*
X164976557Y-100741588D01*
X164880051Y-100552184D01*
X164880049Y-100552181D01*
X164880048Y-100552179D01*
X164755109Y-100380213D01*
X164604786Y-100229890D01*
X164432820Y-100104951D01*
X164243414Y-100008444D01*
X164243413Y-100008443D01*
X164243412Y-100008443D01*
X164041243Y-99942754D01*
X164041241Y-99942753D01*
X164041240Y-99942753D01*
X163879957Y-99917208D01*
X163831287Y-99909500D01*
X162918713Y-99909500D01*
X162870042Y-99917208D01*
X162708760Y-99942753D01*
X162506585Y-100008444D01*
X162317179Y-100104951D01*
X162145213Y-100229890D01*
X161994890Y-100380213D01*
X161869951Y-100552179D01*
X161773444Y-100741585D01*
X161707753Y-100943760D01*
X161674724Y-101152299D01*
X161674500Y-101153713D01*
X155665500Y-101153713D01*
X155665500Y-99733768D01*
X155665499Y-99733766D01*
X155662235Y-99717358D01*
X155631855Y-99564626D01*
X155631853Y-99564621D01*
X155565861Y-99405301D01*
X155565854Y-99405288D01*
X155470046Y-99261902D01*
X155413593Y-99205449D01*
X155348099Y-99139955D01*
X154421819Y-98213675D01*
X154388334Y-98152352D01*
X154385500Y-98125994D01*
X154385500Y-95837860D01*
X155199500Y-95837860D01*
X155199500Y-96162139D01*
X155231284Y-96484857D01*
X155231287Y-96484874D01*
X155294545Y-96802902D01*
X155294548Y-96802913D01*
X155388686Y-97113247D01*
X155512786Y-97412849D01*
X155512788Y-97412854D01*
X155665646Y-97698830D01*
X155665657Y-97698848D01*
X155845811Y-97968467D01*
X155845821Y-97968481D01*
X156051546Y-98219158D01*
X156280841Y-98448453D01*
X156280846Y-98448457D01*
X156280847Y-98448458D01*
X156531524Y-98654183D01*
X156801158Y-98834347D01*
X156801167Y-98834352D01*
X156801169Y-98834353D01*
X157087145Y-98987211D01*
X157087147Y-98987211D01*
X157087153Y-98987215D01*
X157386754Y-99111314D01*
X157697077Y-99205449D01*
X157697083Y-99205450D01*
X157697086Y-99205451D01*
X157697097Y-99205454D01*
X157896528Y-99245122D01*
X158015132Y-99268714D01*
X158337857Y-99300500D01*
X158337860Y-99300500D01*
X158662140Y-99300500D01*
X158662143Y-99300500D01*
X158984868Y-99268714D01*
X159142295Y-99237399D01*
X159302902Y-99205454D01*
X159302913Y-99205451D01*
X159302913Y-99205450D01*
X159302923Y-99205449D01*
X159613246Y-99111314D01*
X159912847Y-98987215D01*
X160198842Y-98834347D01*
X160468476Y-98654183D01*
X160719153Y-98448458D01*
X160948458Y-98219153D01*
X161154183Y-97968476D01*
X161334347Y-97698842D01*
X161487215Y-97412847D01*
X161611314Y-97113246D01*
X161705449Y-96802923D01*
X161705451Y-96802913D01*
X161705454Y-96802902D01*
X161740822Y-96625090D01*
X161768714Y-96484868D01*
X161800500Y-96162143D01*
X161800500Y-95837860D01*
X185199500Y-95837860D01*
X185199500Y-96162139D01*
X185231284Y-96484857D01*
X185231287Y-96484874D01*
X185294545Y-96802902D01*
X185294548Y-96802913D01*
X185388686Y-97113247D01*
X185512786Y-97412849D01*
X185512788Y-97412854D01*
X185665646Y-97698830D01*
X185665657Y-97698848D01*
X185845811Y-97968467D01*
X185845821Y-97968481D01*
X186051546Y-98219158D01*
X186280841Y-98448453D01*
X186280846Y-98448457D01*
X186280847Y-98448458D01*
X186531524Y-98654183D01*
X186801158Y-98834347D01*
X186801167Y-98834352D01*
X186801169Y-98834353D01*
X187087145Y-98987211D01*
X187087147Y-98987211D01*
X187087153Y-98987215D01*
X187386754Y-99111314D01*
X187697077Y-99205449D01*
X187697083Y-99205450D01*
X187697086Y-99205451D01*
X187697097Y-99205454D01*
X187896528Y-99245122D01*
X188015132Y-99268714D01*
X188337857Y-99300500D01*
X188337860Y-99300500D01*
X188662140Y-99300500D01*
X188662143Y-99300500D01*
X188984868Y-99268714D01*
X189142295Y-99237399D01*
X189302902Y-99205454D01*
X189302913Y-99205451D01*
X189302913Y-99205450D01*
X189302923Y-99205449D01*
X189613246Y-99111314D01*
X189912847Y-98987215D01*
X190198842Y-98834347D01*
X190468476Y-98654183D01*
X190719153Y-98448458D01*
X190948458Y-98219153D01*
X191154183Y-97968476D01*
X191334347Y-97698842D01*
X191487215Y-97412847D01*
X191611314Y-97113246D01*
X191705449Y-96802923D01*
X191705451Y-96802913D01*
X191705454Y-96802902D01*
X191740822Y-96625090D01*
X191768714Y-96484868D01*
X191800500Y-96162143D01*
X191800500Y-95837857D01*
X191768714Y-95515132D01*
X191745122Y-95396528D01*
X191705454Y-95197097D01*
X191705451Y-95197086D01*
X191705450Y-95197083D01*
X191705449Y-95197077D01*
X191611314Y-94886754D01*
X191487215Y-94587153D01*
X191418727Y-94459022D01*
X191334353Y-94301169D01*
X191334352Y-94301167D01*
X191334347Y-94301158D01*
X191154183Y-94031524D01*
X190948458Y-93780847D01*
X190948457Y-93780846D01*
X190948453Y-93780841D01*
X190719158Y-93551546D01*
X190468481Y-93345821D01*
X190468480Y-93345820D01*
X190468476Y-93345817D01*
X190198842Y-93165653D01*
X190198837Y-93165650D01*
X190198830Y-93165646D01*
X189912854Y-93012788D01*
X189912849Y-93012786D01*
X189613247Y-92888686D01*
X189302913Y-92794548D01*
X189302902Y-92794545D01*
X188984874Y-92731287D01*
X188984857Y-92731284D01*
X188740812Y-92707248D01*
X188662143Y-92699500D01*
X188337857Y-92699500D01*
X188265099Y-92706666D01*
X188015142Y-92731284D01*
X188015125Y-92731287D01*
X187697097Y-92794545D01*
X187697086Y-92794548D01*
X187386752Y-92888686D01*
X187087150Y-93012786D01*
X187087145Y-93012788D01*
X186801169Y-93165646D01*
X186801151Y-93165657D01*
X186531532Y-93345811D01*
X186531518Y-93345821D01*
X186280841Y-93551546D01*
X186051546Y-93780841D01*
X185845821Y-94031518D01*
X185845811Y-94031532D01*
X185665657Y-94301151D01*
X185665646Y-94301169D01*
X185512788Y-94587145D01*
X185512786Y-94587150D01*
X185388686Y-94886752D01*
X185294548Y-95197086D01*
X185294545Y-95197097D01*
X185231287Y-95515125D01*
X185231284Y-95515142D01*
X185199500Y-95837860D01*
X161800500Y-95837860D01*
X161800500Y-95837857D01*
X161768714Y-95515132D01*
X161745122Y-95396528D01*
X161705454Y-95197097D01*
X161705451Y-95197086D01*
X161705450Y-95197083D01*
X161705449Y-95197077D01*
X161611314Y-94886754D01*
X161487215Y-94587153D01*
X161418727Y-94459022D01*
X161334353Y-94301169D01*
X161334352Y-94301167D01*
X161334347Y-94301158D01*
X161154183Y-94031524D01*
X160948458Y-93780847D01*
X160948457Y-93780846D01*
X160948453Y-93780841D01*
X160719158Y-93551546D01*
X160468481Y-93345821D01*
X160468480Y-93345820D01*
X160468476Y-93345817D01*
X160198842Y-93165653D01*
X160198837Y-93165650D01*
X160198830Y-93165646D01*
X159912854Y-93012788D01*
X159912849Y-93012786D01*
X159613247Y-92888686D01*
X159302913Y-92794548D01*
X159302902Y-92794545D01*
X158984874Y-92731287D01*
X158984857Y-92731284D01*
X158740812Y-92707248D01*
X158662143Y-92699500D01*
X158337857Y-92699500D01*
X158265099Y-92706666D01*
X158015142Y-92731284D01*
X158015125Y-92731287D01*
X157697097Y-92794545D01*
X157697086Y-92794548D01*
X157386752Y-92888686D01*
X157087150Y-93012786D01*
X157087145Y-93012788D01*
X156801169Y-93165646D01*
X156801151Y-93165657D01*
X156531532Y-93345811D01*
X156531518Y-93345821D01*
X156280841Y-93551546D01*
X156051546Y-93780841D01*
X155845821Y-94031518D01*
X155845811Y-94031532D01*
X155665657Y-94301151D01*
X155665646Y-94301169D01*
X155512788Y-94587145D01*
X155512786Y-94587150D01*
X155388686Y-94886752D01*
X155294548Y-95197086D01*
X155294545Y-95197097D01*
X155231287Y-95515125D01*
X155231284Y-95515142D01*
X155199500Y-95837860D01*
X154385500Y-95837860D01*
X154385500Y-91733713D01*
X182899500Y-91733713D01*
X182899500Y-91946286D01*
X182921024Y-92082187D01*
X182932754Y-92156243D01*
X182987424Y-92324500D01*
X182998444Y-92358414D01*
X183094951Y-92547820D01*
X183219890Y-92719786D01*
X183370213Y-92870109D01*
X183542179Y-92995048D01*
X183542181Y-92995049D01*
X183542184Y-92995051D01*
X183731588Y-93091557D01*
X183933757Y-93157246D01*
X184143713Y-93190500D01*
X184143714Y-93190500D01*
X185056286Y-93190500D01*
X185056287Y-93190500D01*
X185266243Y-93157246D01*
X185468412Y-93091557D01*
X185657816Y-92995051D01*
X185679789Y-92979086D01*
X185829786Y-92870109D01*
X185829788Y-92870106D01*
X185829792Y-92870104D01*
X185980104Y-92719792D01*
X185980106Y-92719788D01*
X185980109Y-92719786D01*
X186105048Y-92547820D01*
X186105047Y-92547820D01*
X186105051Y-92547816D01*
X186201557Y-92358412D01*
X186267246Y-92156243D01*
X186300500Y-91946287D01*
X186300500Y-91733713D01*
X186267246Y-91523757D01*
X186201557Y-91321588D01*
X186105051Y-91132184D01*
X186105049Y-91132181D01*
X186105048Y-91132179D01*
X185980109Y-90960213D01*
X185866181Y-90846285D01*
X185832696Y-90784962D01*
X185837680Y-90715270D01*
X185879552Y-90659337D01*
X185910529Y-90642422D01*
X186042086Y-90593354D01*
X186042093Y-90593350D01*
X186157187Y-90507190D01*
X186157190Y-90507187D01*
X186243350Y-90392093D01*
X186243354Y-90392086D01*
X186293596Y-90257379D01*
X186293598Y-90257372D01*
X186299999Y-90197844D01*
X186300000Y-90197827D01*
X186300000Y-89550000D01*
X185033012Y-89550000D01*
X185065925Y-89492993D01*
X185100000Y-89365826D01*
X185100000Y-89234174D01*
X185065925Y-89107007D01*
X185033012Y-89050000D01*
X186300000Y-89050000D01*
X186300000Y-88402172D01*
X186299999Y-88402155D01*
X186293598Y-88342627D01*
X186293596Y-88342620D01*
X186243354Y-88207913D01*
X186243350Y-88207906D01*
X186157190Y-88092812D01*
X186157187Y-88092809D01*
X186042093Y-88006649D01*
X186042086Y-88006645D01*
X185907379Y-87956403D01*
X185907372Y-87956401D01*
X185847844Y-87950000D01*
X184850000Y-87950000D01*
X184850000Y-88866988D01*
X184792993Y-88834075D01*
X184665826Y-88800000D01*
X184534174Y-88800000D01*
X184407007Y-88834075D01*
X184350000Y-88866988D01*
X184350000Y-87950000D01*
X183352155Y-87950000D01*
X183292627Y-87956401D01*
X183292620Y-87956403D01*
X183157913Y-88006645D01*
X183157906Y-88006649D01*
X183042812Y-88092809D01*
X183042809Y-88092812D01*
X182956649Y-88207906D01*
X182956645Y-88207913D01*
X182906403Y-88342620D01*
X182906401Y-88342627D01*
X182900000Y-88402155D01*
X182900000Y-89050000D01*
X184166988Y-89050000D01*
X184134075Y-89107007D01*
X184100000Y-89234174D01*
X184100000Y-89365826D01*
X184134075Y-89492993D01*
X184166988Y-89550000D01*
X182900000Y-89550000D01*
X182900000Y-90197844D01*
X182906401Y-90257372D01*
X182906403Y-90257379D01*
X182956645Y-90392086D01*
X182956649Y-90392093D01*
X183042809Y-90507187D01*
X183042812Y-90507190D01*
X183157906Y-90593350D01*
X183157913Y-90593354D01*
X183289470Y-90642422D01*
X183345404Y-90684293D01*
X183369821Y-90749758D01*
X183354969Y-90818031D01*
X183333819Y-90846285D01*
X183219889Y-90960215D01*
X183094951Y-91132179D01*
X182998444Y-91321585D01*
X182932753Y-91523760D01*
X182899500Y-91733713D01*
X154385500Y-91733713D01*
X154385500Y-85525864D01*
X154405185Y-85458825D01*
X154457989Y-85413070D01*
X154527147Y-85403126D01*
X154590703Y-85432151D01*
X154619985Y-85469569D01*
X154664951Y-85557820D01*
X154789890Y-85729786D01*
X154940213Y-85880109D01*
X155112179Y-86005048D01*
X155112181Y-86005049D01*
X155112184Y-86005051D01*
X155301588Y-86101557D01*
X155503757Y-86167246D01*
X155713713Y-86200500D01*
X155713714Y-86200500D01*
X155926286Y-86200500D01*
X155926287Y-86200500D01*
X156136243Y-86167246D01*
X156338412Y-86101557D01*
X156527816Y-86005051D01*
X156614478Y-85942088D01*
X156699784Y-85880110D01*
X156699784Y-85880109D01*
X156699792Y-85880104D01*
X156813717Y-85766178D01*
X156875036Y-85732696D01*
X156944728Y-85737680D01*
X157000662Y-85779551D01*
X157017577Y-85810528D01*
X157066646Y-85942088D01*
X157066649Y-85942093D01*
X157152809Y-86057187D01*
X157152812Y-86057190D01*
X157267906Y-86143350D01*
X157267913Y-86143354D01*
X157402620Y-86193596D01*
X157402627Y-86193598D01*
X157462155Y-86199999D01*
X157462172Y-86200000D01*
X158110000Y-86200000D01*
X158110000Y-84933012D01*
X158167007Y-84965925D01*
X158294174Y-85000000D01*
X158425826Y-85000000D01*
X158552993Y-84965925D01*
X158610000Y-84933012D01*
X158610000Y-86200000D01*
X159257828Y-86200000D01*
X159257844Y-86199999D01*
X159317372Y-86193598D01*
X159317379Y-86193596D01*
X159452086Y-86143354D01*
X159452093Y-86143350D01*
X159567187Y-86057190D01*
X159567190Y-86057187D01*
X159653350Y-85942093D01*
X159653354Y-85942086D01*
X159702422Y-85810529D01*
X159744293Y-85754595D01*
X159809757Y-85730178D01*
X159878030Y-85745030D01*
X159906285Y-85766181D01*
X160020213Y-85880109D01*
X160192179Y-86005048D01*
X160192181Y-86005049D01*
X160192184Y-86005051D01*
X160381588Y-86101557D01*
X160583757Y-86167246D01*
X160793713Y-86200500D01*
X160793714Y-86200500D01*
X161006286Y-86200500D01*
X161006287Y-86200500D01*
X161216243Y-86167246D01*
X161418412Y-86101557D01*
X161607816Y-86005051D01*
X161694478Y-85942088D01*
X161779786Y-85880109D01*
X161779788Y-85880106D01*
X161779792Y-85880104D01*
X161930104Y-85729792D01*
X161930106Y-85729788D01*
X161930109Y-85729786D01*
X162055048Y-85557820D01*
X162055047Y-85557820D01*
X162055051Y-85557816D01*
X162151557Y-85368412D01*
X162217246Y-85166243D01*
X162250500Y-84956287D01*
X162250500Y-84043713D01*
X166179500Y-84043713D01*
X166179500Y-84956286D01*
X166212753Y-85166239D01*
X166278444Y-85368414D01*
X166374951Y-85557820D01*
X166499890Y-85729786D01*
X166650213Y-85880109D01*
X166822179Y-86005048D01*
X166822181Y-86005049D01*
X166822184Y-86005051D01*
X167011588Y-86101557D01*
X167213757Y-86167246D01*
X167423713Y-86200500D01*
X167423714Y-86200500D01*
X167636286Y-86200500D01*
X167636287Y-86200500D01*
X167846243Y-86167246D01*
X168048412Y-86101557D01*
X168237816Y-86005051D01*
X168324478Y-85942088D01*
X168409784Y-85880110D01*
X168409784Y-85880109D01*
X168409792Y-85880104D01*
X168523717Y-85766178D01*
X168585036Y-85732696D01*
X168654728Y-85737680D01*
X168710662Y-85779551D01*
X168727577Y-85810528D01*
X168776646Y-85942088D01*
X168776649Y-85942093D01*
X168862809Y-86057187D01*
X168862812Y-86057190D01*
X168977906Y-86143350D01*
X168977913Y-86143354D01*
X169112620Y-86193596D01*
X169112627Y-86193598D01*
X169172155Y-86199999D01*
X169172172Y-86200000D01*
X169820000Y-86200000D01*
X169820000Y-84933012D01*
X169877007Y-84965925D01*
X170004174Y-85000000D01*
X170135826Y-85000000D01*
X170262993Y-84965925D01*
X170320000Y-84933012D01*
X170320000Y-86200000D01*
X170967828Y-86200000D01*
X170967844Y-86199999D01*
X171027372Y-86193598D01*
X171027379Y-86193596D01*
X171162086Y-86143354D01*
X171162093Y-86143350D01*
X171277187Y-86057190D01*
X171277190Y-86057187D01*
X171363350Y-85942093D01*
X171363354Y-85942086D01*
X171412422Y-85810529D01*
X171454293Y-85754595D01*
X171519757Y-85730178D01*
X171588030Y-85745030D01*
X171616285Y-85766181D01*
X171730213Y-85880109D01*
X171902179Y-86005048D01*
X171902181Y-86005049D01*
X171902184Y-86005051D01*
X172091588Y-86101557D01*
X172293757Y-86167246D01*
X172503713Y-86200500D01*
X172503714Y-86200500D01*
X172716286Y-86200500D01*
X172716287Y-86200500D01*
X172926243Y-86167246D01*
X173128412Y-86101557D01*
X173317816Y-86005051D01*
X173404478Y-85942088D01*
X173489786Y-85880109D01*
X173489788Y-85880106D01*
X173489792Y-85880104D01*
X173640104Y-85729792D01*
X173640106Y-85729788D01*
X173640109Y-85729786D01*
X173765048Y-85557820D01*
X173765047Y-85557820D01*
X173765051Y-85557816D01*
X173861557Y-85368412D01*
X173927246Y-85166243D01*
X173960500Y-84956287D01*
X173960500Y-84043713D01*
X173927246Y-83833757D01*
X173861557Y-83631588D01*
X173765051Y-83442184D01*
X173765049Y-83442181D01*
X173765048Y-83442179D01*
X173640109Y-83270213D01*
X173489786Y-83119890D01*
X173317820Y-82994951D01*
X173128414Y-82898444D01*
X173128413Y-82898443D01*
X173128412Y-82898443D01*
X172926243Y-82832754D01*
X172926241Y-82832753D01*
X172926240Y-82832753D01*
X172764957Y-82807208D01*
X172716287Y-82799500D01*
X172503713Y-82799500D01*
X172455042Y-82807208D01*
X172293760Y-82832753D01*
X172091585Y-82898444D01*
X171902179Y-82994951D01*
X171730215Y-83119889D01*
X171616285Y-83233819D01*
X171554962Y-83267303D01*
X171485270Y-83262319D01*
X171429337Y-83220447D01*
X171412422Y-83189470D01*
X171363354Y-83057913D01*
X171363350Y-83057906D01*
X171277190Y-82942812D01*
X171277187Y-82942809D01*
X171162093Y-82856649D01*
X171162086Y-82856645D01*
X171027379Y-82806403D01*
X171027372Y-82806401D01*
X170967844Y-82800000D01*
X170320000Y-82800000D01*
X170320000Y-84066988D01*
X170262993Y-84034075D01*
X170135826Y-84000000D01*
X170004174Y-84000000D01*
X169877007Y-84034075D01*
X169820000Y-84066988D01*
X169820000Y-82800000D01*
X169172155Y-82800000D01*
X169112627Y-82806401D01*
X169112620Y-82806403D01*
X168977913Y-82856645D01*
X168977906Y-82856649D01*
X168862812Y-82942809D01*
X168862809Y-82942812D01*
X168776649Y-83057906D01*
X168776646Y-83057912D01*
X168727577Y-83189471D01*
X168685705Y-83245404D01*
X168620241Y-83269821D01*
X168551968Y-83254969D01*
X168523714Y-83233818D01*
X168409786Y-83119890D01*
X168237820Y-82994951D01*
X168048414Y-82898444D01*
X168048413Y-82898443D01*
X168048412Y-82898443D01*
X167846243Y-82832754D01*
X167846241Y-82832753D01*
X167846240Y-82832753D01*
X167684957Y-82807208D01*
X167636287Y-82799500D01*
X167423713Y-82799500D01*
X167375042Y-82807208D01*
X167213760Y-82832753D01*
X167011585Y-82898444D01*
X166822179Y-82994951D01*
X166650213Y-83119890D01*
X166499890Y-83270213D01*
X166374951Y-83442179D01*
X166278444Y-83631585D01*
X166212753Y-83833760D01*
X166179500Y-84043713D01*
X162250500Y-84043713D01*
X162217246Y-83833757D01*
X162151557Y-83631588D01*
X162055051Y-83442184D01*
X162055049Y-83442181D01*
X162055048Y-83442179D01*
X161930109Y-83270213D01*
X161779786Y-83119890D01*
X161607820Y-82994951D01*
X161418414Y-82898444D01*
X161418413Y-82898443D01*
X161418412Y-82898443D01*
X161216243Y-82832754D01*
X161216241Y-82832753D01*
X161216240Y-82832753D01*
X161054957Y-82807208D01*
X161006287Y-82799500D01*
X160793713Y-82799500D01*
X160745042Y-82807208D01*
X160583760Y-82832753D01*
X160381585Y-82898444D01*
X160192179Y-82994951D01*
X160020215Y-83119889D01*
X159906285Y-83233819D01*
X159844962Y-83267303D01*
X159775270Y-83262319D01*
X159719337Y-83220447D01*
X159702422Y-83189470D01*
X159653354Y-83057913D01*
X159653350Y-83057906D01*
X159567190Y-82942812D01*
X159567187Y-82942809D01*
X159452093Y-82856649D01*
X159452086Y-82856645D01*
X159317379Y-82806403D01*
X159317372Y-82806401D01*
X159257844Y-82800000D01*
X158610000Y-82800000D01*
X158610000Y-84066988D01*
X158552993Y-84034075D01*
X158425826Y-84000000D01*
X158294174Y-84000000D01*
X158167007Y-84034075D01*
X158110000Y-84066988D01*
X158110000Y-82800000D01*
X157462155Y-82800000D01*
X157402627Y-82806401D01*
X157402620Y-82806403D01*
X157267913Y-82856645D01*
X157267906Y-82856649D01*
X157152812Y-82942809D01*
X157152809Y-82942812D01*
X157066649Y-83057906D01*
X157066646Y-83057912D01*
X157017577Y-83189471D01*
X156975705Y-83245404D01*
X156910241Y-83269821D01*
X156841968Y-83254969D01*
X156813714Y-83233818D01*
X156699786Y-83119890D01*
X156527820Y-82994951D01*
X156338414Y-82898444D01*
X156338413Y-82898443D01*
X156338412Y-82898443D01*
X156136243Y-82832754D01*
X156136241Y-82832753D01*
X156136240Y-82832753D01*
X155974957Y-82807208D01*
X155926287Y-82799500D01*
X155713713Y-82799500D01*
X155665042Y-82807208D01*
X155503760Y-82832753D01*
X155301585Y-82898444D01*
X155112179Y-82994951D01*
X154940213Y-83119890D01*
X154789890Y-83270213D01*
X154664951Y-83442180D01*
X154619985Y-83530430D01*
X154572010Y-83581226D01*
X154504189Y-83598021D01*
X154438054Y-83575483D01*
X154394603Y-83520768D01*
X154385500Y-83474135D01*
X154385500Y-81877550D01*
X154405185Y-81810511D01*
X154409182Y-81804664D01*
X154451232Y-81746788D01*
X154529873Y-81592445D01*
X154583402Y-81427701D01*
X154610500Y-81256611D01*
X154610500Y-81083389D01*
X154583402Y-80912299D01*
X154529873Y-80747555D01*
X154451232Y-80593212D01*
X154349414Y-80453072D01*
X154226928Y-80330586D01*
X154086788Y-80228768D01*
X153932445Y-80150127D01*
X153767701Y-80096598D01*
X153767699Y-80096597D01*
X153767698Y-80096597D01*
X153636271Y-80075781D01*
X153596611Y-80069500D01*
X153423389Y-80069500D01*
X153383728Y-80075781D01*
X153252302Y-80096597D01*
X153087552Y-80150128D01*
X152933211Y-80228768D01*
X152903182Y-80250586D01*
X152793072Y-80330586D01*
X152793070Y-80330588D01*
X152793069Y-80330588D01*
X152670588Y-80453069D01*
X152670588Y-80453070D01*
X152670586Y-80453072D01*
X152634589Y-80502617D01*
X152568767Y-80593212D01*
X152560863Y-80608725D01*
X152512887Y-80659519D01*
X152445065Y-80676312D01*
X152378931Y-80653772D01*
X152339895Y-80608720D01*
X152331993Y-80593212D01*
X152291232Y-80513212D01*
X152291231Y-80513211D01*
X152275937Y-80492160D01*
X152189414Y-80373072D01*
X152066928Y-80250586D01*
X151926788Y-80148768D01*
X151772445Y-80070127D01*
X151607701Y-80016598D01*
X151607699Y-80016597D01*
X151607698Y-80016597D01*
X151476271Y-79995781D01*
X151436611Y-79989500D01*
X151263389Y-79989500D01*
X151223728Y-79995781D01*
X151092302Y-80016597D01*
X150927552Y-80070128D01*
X150773211Y-80148768D01*
X150693256Y-80206859D01*
X150633072Y-80250586D01*
X150633070Y-80250588D01*
X150633069Y-80250588D01*
X150510588Y-80373069D01*
X150510588Y-80373070D01*
X150510586Y-80373072D01*
X150466859Y-80433256D01*
X150408768Y-80513211D01*
X150330128Y-80667552D01*
X150276597Y-80832302D01*
X150249500Y-81003389D01*
X150249500Y-81176611D01*
X150276598Y-81347701D01*
X150330127Y-81512445D01*
X150408768Y-81666788D01*
X150420816Y-81683371D01*
X150444298Y-81749175D01*
X150444500Y-81756257D01*
X150444500Y-83197428D01*
X150424815Y-83264467D01*
X150372011Y-83310222D01*
X150302853Y-83320166D01*
X150239297Y-83291141D01*
X150223396Y-83273817D01*
X150223276Y-83273921D01*
X150220382Y-83270533D01*
X150220190Y-83270324D01*
X150220114Y-83270219D01*
X150220105Y-83270209D01*
X150069786Y-83119890D01*
X149897820Y-82994951D01*
X149708414Y-82898444D01*
X149708413Y-82898443D01*
X149708412Y-82898443D01*
X149506243Y-82832754D01*
X149506241Y-82832753D01*
X149506240Y-82832753D01*
X149344957Y-82807208D01*
X149296287Y-82799500D01*
X149083713Y-82799500D01*
X149035042Y-82807208D01*
X148873760Y-82832753D01*
X148671585Y-82898444D01*
X148482179Y-82994951D01*
X148310215Y-83119889D01*
X148196285Y-83233819D01*
X148134962Y-83267303D01*
X148065270Y-83262319D01*
X148009337Y-83220447D01*
X147992422Y-83189470D01*
X147943354Y-83057913D01*
X147943350Y-83057906D01*
X147857190Y-82942812D01*
X147857187Y-82942809D01*
X147742093Y-82856649D01*
X147742086Y-82856645D01*
X147607379Y-82806403D01*
X147607372Y-82806401D01*
X147547844Y-82800000D01*
X146900000Y-82800000D01*
X146900000Y-84066988D01*
X146842993Y-84034075D01*
X146715826Y-84000000D01*
X146584174Y-84000000D01*
X146457007Y-84034075D01*
X146400000Y-84066988D01*
X146400000Y-82800000D01*
X145752155Y-82800000D01*
X145692627Y-82806401D01*
X145692620Y-82806403D01*
X145557913Y-82856645D01*
X145557906Y-82856649D01*
X145442812Y-82942809D01*
X145442809Y-82942812D01*
X145356649Y-83057906D01*
X145356646Y-83057912D01*
X145307577Y-83189471D01*
X145265705Y-83245404D01*
X145200241Y-83269821D01*
X145131968Y-83254969D01*
X145103714Y-83233818D01*
X144989786Y-83119890D01*
X144817820Y-82994951D01*
X144628414Y-82898444D01*
X144628413Y-82898443D01*
X144628412Y-82898443D01*
X144426243Y-82832754D01*
X144426241Y-82832753D01*
X144426240Y-82832753D01*
X144264957Y-82807208D01*
X144216287Y-82799500D01*
X144003713Y-82799500D01*
X143955042Y-82807208D01*
X143793760Y-82832753D01*
X143591585Y-82898444D01*
X143402179Y-82994951D01*
X143230213Y-83119890D01*
X143079890Y-83270213D01*
X142954951Y-83442179D01*
X142858444Y-83631585D01*
X142792753Y-83833760D01*
X142759500Y-84043713D01*
X141500500Y-84043713D01*
X141500500Y-64813713D01*
X152019500Y-64813713D01*
X152019500Y-65726286D01*
X152052753Y-65936239D01*
X152118444Y-66138414D01*
X152214951Y-66327820D01*
X152339890Y-66499786D01*
X152490213Y-66650109D01*
X152662179Y-66775048D01*
X152662181Y-66775049D01*
X152662184Y-66775051D01*
X152851588Y-66871557D01*
X153053757Y-66937246D01*
X153263713Y-66970500D01*
X153263714Y-66970500D01*
X153476286Y-66970500D01*
X153476287Y-66970500D01*
X153686243Y-66937246D01*
X153888412Y-66871557D01*
X154077816Y-66775051D01*
X154164478Y-66712088D01*
X154249786Y-66650109D01*
X154249788Y-66650106D01*
X154249792Y-66650104D01*
X154400104Y-66499792D01*
X154400106Y-66499788D01*
X154400109Y-66499786D01*
X154525048Y-66327820D01*
X154525047Y-66327820D01*
X154525051Y-66327816D01*
X154529514Y-66319054D01*
X154577488Y-66268259D01*
X154645308Y-66251463D01*
X154711444Y-66273999D01*
X154750486Y-66319056D01*
X154754951Y-66327820D01*
X154879890Y-66499786D01*
X155030213Y-66650109D01*
X155202179Y-66775048D01*
X155202181Y-66775049D01*
X155202184Y-66775051D01*
X155391588Y-66871557D01*
X155593757Y-66937246D01*
X155803713Y-66970500D01*
X155803714Y-66970500D01*
X156016286Y-66970500D01*
X156016287Y-66970500D01*
X156226243Y-66937246D01*
X156428412Y-66871557D01*
X156617816Y-66775051D01*
X156704478Y-66712088D01*
X156789786Y-66650109D01*
X156789788Y-66650106D01*
X156789792Y-66650104D01*
X156940104Y-66499792D01*
X156940106Y-66499788D01*
X156940109Y-66499786D01*
X157065048Y-66327820D01*
X157065047Y-66327820D01*
X157065051Y-66327816D01*
X157069514Y-66319054D01*
X157117488Y-66268259D01*
X157185308Y-66251463D01*
X157251444Y-66273999D01*
X157290486Y-66319056D01*
X157294951Y-66327820D01*
X157419890Y-66499786D01*
X157570213Y-66650109D01*
X157742179Y-66775048D01*
X157742181Y-66775049D01*
X157742184Y-66775051D01*
X157931588Y-66871557D01*
X158133757Y-66937246D01*
X158343713Y-66970500D01*
X158343714Y-66970500D01*
X158556286Y-66970500D01*
X158556287Y-66970500D01*
X158766243Y-66937246D01*
X158968412Y-66871557D01*
X159157816Y-66775051D01*
X159244478Y-66712088D01*
X159329784Y-66650110D01*
X159329784Y-66650109D01*
X159329792Y-66650104D01*
X159443717Y-66536178D01*
X159505036Y-66502696D01*
X159574728Y-66507680D01*
X159630662Y-66549551D01*
X159647577Y-66580528D01*
X159696646Y-66712088D01*
X159696649Y-66712093D01*
X159782809Y-66827187D01*
X159782812Y-66827190D01*
X159897906Y-66913350D01*
X159897913Y-66913354D01*
X160032620Y-66963596D01*
X160032627Y-66963598D01*
X160092155Y-66969999D01*
X160092172Y-66970000D01*
X160740000Y-66970000D01*
X160740000Y-65703012D01*
X160797007Y-65735925D01*
X160924174Y-65770000D01*
X161055826Y-65770000D01*
X161182993Y-65735925D01*
X161240000Y-65703012D01*
X161240000Y-66970000D01*
X161887828Y-66970000D01*
X161887844Y-66969999D01*
X161947372Y-66963598D01*
X161947379Y-66963596D01*
X162082086Y-66913354D01*
X162082093Y-66913350D01*
X162197187Y-66827190D01*
X162197190Y-66827187D01*
X162283350Y-66712093D01*
X162283354Y-66712086D01*
X162333596Y-66577379D01*
X162333598Y-66577372D01*
X162339999Y-66517844D01*
X162340000Y-66517827D01*
X162340000Y-65520000D01*
X161423012Y-65520000D01*
X161455925Y-65462993D01*
X161490000Y-65335826D01*
X161490000Y-65204174D01*
X161455925Y-65077007D01*
X161423012Y-65020000D01*
X162340000Y-65020000D01*
X162340000Y-64022172D01*
X162339999Y-64022155D01*
X162333598Y-63962627D01*
X162333596Y-63962620D01*
X162283354Y-63827913D01*
X162283350Y-63827906D01*
X162197190Y-63712812D01*
X162197187Y-63712809D01*
X162082093Y-63626649D01*
X162082086Y-63626645D01*
X161947379Y-63576403D01*
X161947372Y-63576401D01*
X161887844Y-63570000D01*
X161240000Y-63570000D01*
X161240000Y-64836988D01*
X161182993Y-64804075D01*
X161055826Y-64770000D01*
X160924174Y-64770000D01*
X160797007Y-64804075D01*
X160740000Y-64836988D01*
X160740000Y-63570000D01*
X160092155Y-63570000D01*
X160032627Y-63576401D01*
X160032620Y-63576403D01*
X159897913Y-63626645D01*
X159897906Y-63626649D01*
X159782812Y-63712809D01*
X159782809Y-63712812D01*
X159696649Y-63827906D01*
X159696646Y-63827912D01*
X159647577Y-63959471D01*
X159605705Y-64015404D01*
X159540241Y-64039821D01*
X159471968Y-64024969D01*
X159443714Y-64003818D01*
X159329786Y-63889890D01*
X159157820Y-63764951D01*
X158968414Y-63668444D01*
X158968413Y-63668443D01*
X158968412Y-63668443D01*
X158766243Y-63602754D01*
X158766241Y-63602753D01*
X158766240Y-63602753D01*
X158604957Y-63577208D01*
X158556287Y-63569500D01*
X158343713Y-63569500D01*
X158295042Y-63577208D01*
X158133760Y-63602753D01*
X157931585Y-63668444D01*
X157742179Y-63764951D01*
X157570213Y-63889890D01*
X157419890Y-64040213D01*
X157294949Y-64212182D01*
X157290484Y-64220946D01*
X157242509Y-64271742D01*
X157174688Y-64288536D01*
X157108553Y-64265998D01*
X157069516Y-64220946D01*
X157065050Y-64212182D01*
X156940109Y-64040213D01*
X156789786Y-63889890D01*
X156617820Y-63764951D01*
X156428414Y-63668444D01*
X156428413Y-63668443D01*
X156428412Y-63668443D01*
X156226243Y-63602754D01*
X156226241Y-63602753D01*
X156226240Y-63602753D01*
X156064957Y-63577208D01*
X156016287Y-63569500D01*
X155803713Y-63569500D01*
X155755042Y-63577208D01*
X155593760Y-63602753D01*
X155391585Y-63668444D01*
X155202179Y-63764951D01*
X155030213Y-63889890D01*
X154879890Y-64040213D01*
X154754949Y-64212182D01*
X154750484Y-64220946D01*
X154702509Y-64271742D01*
X154634688Y-64288536D01*
X154568553Y-64265998D01*
X154529516Y-64220946D01*
X154525050Y-64212182D01*
X154400109Y-64040213D01*
X154249786Y-63889890D01*
X154077820Y-63764951D01*
X153888414Y-63668444D01*
X153888413Y-63668443D01*
X153888412Y-63668443D01*
X153686243Y-63602754D01*
X153686241Y-63602753D01*
X153686240Y-63602753D01*
X153524957Y-63577208D01*
X153476287Y-63569500D01*
X153263713Y-63569500D01*
X153215042Y-63577208D01*
X153053760Y-63602753D01*
X152851585Y-63668444D01*
X152662179Y-63764951D01*
X152490213Y-63889890D01*
X152339890Y-64040213D01*
X152214951Y-64212179D01*
X152118444Y-64401585D01*
X152052753Y-64603760D01*
X152019500Y-64813713D01*
X141500500Y-64813713D01*
X141500500Y-56624500D01*
X141520185Y-56557461D01*
X141572989Y-56511706D01*
X141624500Y-56500500D01*
X175375500Y-56500500D01*
X175442539Y-56520185D01*
G37*
%TD.AperFunction*%
%TD*%
M02*
