M48
; DRILL file {KiCad 9.0.6} date 2026-01-16T11:33:55+0100
; FORMAT={-:-/ absolute / inch / decimal}
; #@! TF.CreationDate,2026-01-16T11:33:55+01:00
; #@! TF.GenerationSoftware,Kicad,Pcbnew,9.0.6
; #@! TF.FileFunction,Plated,1,2,PTH
FMAT,2
INCH
; #@! TA.AperFunction,Plated,PTH,ViaDrill
T1C0.0236
; #@! TA.AperFunction,Plated,PTH,ComponentDrill
T2C0.0354
; #@! TA.AperFunction,Plated,PTH,ComponentDrill
T3C0.0394
%
G90
G05
T1
X5.3343Y-4.0778
X5.7445Y-3.8535
X5.7653Y-3.5566
X5.7937Y-4.4087
X5.8425Y-3.5795
X5.9587Y-3.1925
X5.998Y-2.6937
X6.0106Y-3.9925
X6.0437Y-3.1957
X6.0913Y-4.4913
X6.0941Y-4.0181
X6.1858Y-4.1913
X6.5406Y-4.0657
X6.6252Y-3.8756
X6.6673Y-2.7055
X6.8077Y-3.8012
X7.0965Y-4.4996
X7.1181Y-3.5433
X7.1717Y-4.0283
T2
X5.3504Y-3.69
X5.3504Y-3.79
X5.3504Y-3.89
T3
X5.2423Y-3.564
X5.3423Y-3.564
X5.4423Y-3.564
X5.5423Y-3.564
X5.6736Y-3.3268
X5.7736Y-3.3268
X5.8736Y-3.3268
X6.0382Y-2.5697
X6.1346Y-3.3268
X6.1382Y-2.5697
X6.2346Y-3.3268
X6.2382Y-2.5697
X6.3346Y-3.3268
X6.3382Y-2.5697
X6.4321Y-3.9866
X6.4321Y-4.0866
X6.4323Y-4.2343
X6.4323Y-4.3343
X6.5957Y-3.3268
X6.6957Y-3.3268
X6.7957Y-3.3268
X7.2677Y-3.5157
X7.2677Y-3.6157
X7.4148Y-4.0285
X7.5148Y-4.0285
M30
