%TF.GenerationSoftware,KiCad,Pcbnew,9.0.6*%
%TF.CreationDate,2026-01-16T11:33:55+01:00*%
%TF.ProjectId,Sumositoire_reborn,53756d6f-7369-4746-9f69-72655f726562,rev?*%
%TF.SameCoordinates,Original*%
%TF.FileFunction,Legend,Bot*%
%TF.FilePolarity,Positive*%
%FSLAX46Y46*%
G04 Gerber Fmt 4.6, Leading zero omitted, Abs format (unit mm)*
G04 Created by KiCad (PCBNEW 9.0.6) date 2026-01-16 11:33:55*
%MOMM*%
%LPD*%
G01*
G04 APERTURE LIST*
%ADD10C,0.000000*%
%ADD11C,0.200000*%
%ADD12C,0.150000*%
%ADD13C,0.120000*%
%ADD14C,5.600000*%
%ADD15O,1.700000X2.400000*%
%ADD16R,1.700000X2.400000*%
%ADD17O,2.400000X1.800000*%
%ADD18R,2.400000X1.800000*%
%ADD19R,2.400000X1.700000*%
%ADD20O,2.400000X1.700000*%
G04 APERTURE END LIST*
D10*
G36*
X135220000Y-111200000D02*
G01*
X134720000Y-111200000D01*
X134720000Y-110700000D01*
X135220000Y-110700000D01*
X135220000Y-111200000D01*
G37*
G36*
X141720000Y-113699999D02*
G01*
X141220000Y-113699999D01*
X141220000Y-113199999D01*
X141720000Y-113199999D01*
X141720000Y-113699999D01*
G37*
G36*
X139219999Y-108200000D02*
G01*
X138719999Y-108200000D01*
X138719999Y-107700000D01*
X139219999Y-107700000D01*
X139219999Y-108200000D01*
G37*
G36*
X133720000Y-110200000D02*
G01*
X133220000Y-110200000D01*
X133220000Y-109700000D01*
X133720000Y-109700000D01*
X133720000Y-110200000D01*
G37*
G36*
X143719999Y-104200000D02*
G01*
X143219999Y-104200000D01*
X143219999Y-103700000D01*
X143719999Y-103700000D01*
X143719999Y-104200000D01*
G37*
G36*
X134220000Y-107700000D02*
G01*
X133720000Y-107700000D01*
X133720000Y-107200000D01*
X134220000Y-107200000D01*
X134220000Y-107700000D01*
G37*
G36*
X138719999Y-109700000D02*
G01*
X138219999Y-109700000D01*
X138219999Y-109200000D01*
X138719999Y-109200000D01*
X138719999Y-109700000D01*
G37*
G36*
X143719999Y-112200000D02*
G01*
X143219999Y-112200000D01*
X143219999Y-111700000D01*
X143719999Y-111700000D01*
X143719999Y-112200000D01*
G37*
G36*
X136720000Y-112225000D02*
G01*
X136720000Y-114674999D01*
X136720000Y-115199999D01*
X136195000Y-115199999D01*
X133745001Y-115199999D01*
X133220000Y-115199999D01*
X133220000Y-114674999D01*
X133220000Y-112225000D01*
X133745001Y-112225000D01*
X133745001Y-114674999D01*
X136195000Y-114674999D01*
X136195000Y-112225000D01*
X133745001Y-112225000D01*
X133220000Y-112225000D01*
X133220000Y-111700000D01*
X133745001Y-111700000D01*
X136195000Y-111700000D01*
X136720000Y-111700000D01*
X136720000Y-112225000D01*
G37*
G36*
X139719999Y-105200000D02*
G01*
X139219999Y-105200000D01*
X139219999Y-104700000D01*
X139719999Y-104700000D01*
X139719999Y-105200000D01*
G37*
G36*
X134220000Y-105700000D02*
G01*
X133720000Y-105700000D01*
X133720000Y-105200000D01*
X134220000Y-105200000D01*
X134220000Y-105700000D01*
G37*
G36*
X142219999Y-109200000D02*
G01*
X141720000Y-109200000D01*
X141720000Y-108700000D01*
X142219999Y-108700000D01*
X142219999Y-109200000D01*
G37*
G36*
X142719999Y-106700000D02*
G01*
X142219999Y-106700000D01*
X142219999Y-106200000D01*
X142719999Y-106200000D01*
X142719999Y-106700000D01*
G37*
G36*
X135720000Y-106200000D02*
G01*
X135220000Y-106200000D01*
X135220000Y-105700000D01*
X135720000Y-105700000D01*
X135720000Y-106200000D01*
G37*
G36*
X138719999Y-114200000D02*
G01*
X138219999Y-114200000D01*
X138219999Y-113700000D01*
X138719999Y-113700000D01*
X138719999Y-114200000D01*
G37*
G36*
X138719999Y-113699999D02*
G01*
X138219999Y-113699999D01*
X138219999Y-113199999D01*
X138719999Y-113199999D01*
X138719999Y-113699999D01*
G37*
G36*
X143219999Y-112700000D02*
G01*
X142719999Y-112700000D01*
X142719999Y-112200000D01*
X143219999Y-112200000D01*
X143219999Y-112700000D01*
G37*
G36*
X139219999Y-104700000D02*
G01*
X138719999Y-104700000D01*
X138719999Y-104200000D01*
X139219999Y-104200000D01*
X139219999Y-104700000D01*
G37*
G36*
X137720000Y-102200000D02*
G01*
X137220000Y-102200000D01*
X137220000Y-101700000D01*
X137720000Y-101700000D01*
X137720000Y-102200000D01*
G37*
G36*
X141220000Y-103200000D02*
G01*
X140720000Y-103200000D01*
X140720000Y-102700000D01*
X141220000Y-102700000D01*
X141220000Y-103200000D01*
G37*
G36*
X140719999Y-114200000D02*
G01*
X140219999Y-114200000D01*
X140219999Y-113700000D01*
X140719999Y-113700000D01*
X140719999Y-114200000D01*
G37*
G36*
X140719999Y-113699999D02*
G01*
X140219999Y-113699999D01*
X140219999Y-113199999D01*
X140719999Y-113199999D01*
X140719999Y-113699999D01*
G37*
G36*
X139719999Y-115199999D02*
G01*
X139219999Y-115199999D01*
X139219999Y-114699997D01*
X139719999Y-114699997D01*
X139719999Y-115199999D01*
G37*
G36*
X138219999Y-110200000D02*
G01*
X137720000Y-110200000D01*
X137720000Y-109700000D01*
X138219999Y-109700000D01*
X138219999Y-110200000D01*
G37*
G36*
X145719999Y-107700000D02*
G01*
X145219999Y-107700000D01*
X145219999Y-107200000D01*
X145719999Y-107200000D01*
X145719999Y-107700000D01*
G37*
G36*
X134720001Y-109700000D02*
G01*
X134220000Y-109700000D01*
X134220000Y-109200000D01*
X134720001Y-109200000D01*
X134720001Y-109700000D01*
G37*
G36*
X138719999Y-107200000D02*
G01*
X138219999Y-107200000D01*
X138219999Y-106700000D01*
X138719999Y-106700000D01*
X138719999Y-107200000D01*
G37*
G36*
X145219999Y-113199999D02*
G01*
X144719999Y-113199999D01*
X144719999Y-112700000D01*
X145219999Y-112700000D01*
X145219999Y-113199999D01*
G37*
G36*
X142719999Y-108200000D02*
G01*
X142219999Y-108200000D01*
X142219999Y-107700000D01*
X142719999Y-107700000D01*
X142719999Y-108200000D01*
G37*
G36*
X136220000Y-106200000D02*
G01*
X135720000Y-106200000D01*
X135720000Y-105700000D01*
X136220000Y-105700000D01*
X136220000Y-106200000D01*
G37*
G36*
X139219999Y-102700001D02*
G01*
X138719999Y-102700001D01*
X138719999Y-102200000D01*
X139219999Y-102200000D01*
X139219999Y-102700001D01*
G37*
G36*
X146719999Y-114699997D02*
G01*
X146220000Y-114699997D01*
X146220000Y-114200000D01*
X146719999Y-114200000D01*
X146719999Y-114699997D01*
G37*
G36*
X138719999Y-107700000D02*
G01*
X138219999Y-107700000D01*
X138219999Y-107200000D01*
X138719999Y-107200000D01*
X138719999Y-107700000D01*
G37*
G36*
X138719999Y-105200000D02*
G01*
X138219999Y-105200000D01*
X138219999Y-104700000D01*
X138719999Y-104700000D01*
X138719999Y-105200000D01*
G37*
G36*
X143219999Y-115199999D02*
G01*
X142719999Y-115199999D01*
X142719999Y-114699997D01*
X143219999Y-114699997D01*
X143219999Y-115199999D01*
G37*
G36*
X141720000Y-108200000D02*
G01*
X141220000Y-108200000D01*
X141220000Y-107700000D01*
X141720000Y-107700000D01*
X141720000Y-108200000D01*
G37*
G36*
X135220000Y-105700000D02*
G01*
X134720000Y-105700000D01*
X134720000Y-105200000D01*
X135220000Y-105200000D01*
X135220000Y-105700000D01*
G37*
G36*
X145219999Y-111200000D02*
G01*
X144719999Y-111200000D01*
X144719999Y-110700000D01*
X145219999Y-110700000D01*
X145219999Y-111200000D01*
G37*
G36*
X144219999Y-113199999D02*
G01*
X143720000Y-113199999D01*
X143720000Y-112700000D01*
X144219999Y-112700000D01*
X144219999Y-113199999D01*
G37*
G36*
X143219999Y-103200000D02*
G01*
X142719999Y-103200000D01*
X142719999Y-102700000D01*
X143219999Y-102700000D01*
X143219999Y-103200000D01*
G37*
G36*
X140719999Y-113199999D02*
G01*
X140219999Y-113199999D01*
X140219999Y-112700000D01*
X140719999Y-112700000D01*
X140719999Y-113199999D01*
G37*
G36*
X146219999Y-113199999D02*
G01*
X145719999Y-113199999D01*
X145719999Y-112700000D01*
X146219999Y-112700000D01*
X146219999Y-113199999D01*
G37*
G36*
X138719999Y-103700000D02*
G01*
X138219999Y-103700000D01*
X138219999Y-103200000D01*
X138719999Y-103200000D01*
X138719999Y-103700000D01*
G37*
G36*
X140719999Y-114699997D02*
G01*
X140219999Y-114699997D01*
X140219999Y-114200000D01*
X140719999Y-114200000D01*
X140719999Y-114699997D01*
G37*
G36*
X137720000Y-110200000D02*
G01*
X137220000Y-110200000D01*
X137220000Y-109700000D01*
X137720000Y-109700000D01*
X137720000Y-110200000D01*
G37*
G36*
X137220000Y-109700000D02*
G01*
X136720000Y-109700000D01*
X136720000Y-109200000D01*
X137220000Y-109200000D01*
X137220000Y-109700000D01*
G37*
G36*
X140219999Y-106200000D02*
G01*
X139720000Y-106200000D01*
X139720000Y-105700000D01*
X140219999Y-105700000D01*
X140219999Y-106200000D01*
G37*
G36*
X134720001Y-110200000D02*
G01*
X134220000Y-110200000D01*
X134220000Y-109700000D01*
X134720001Y-109700000D01*
X134720001Y-110200000D01*
G37*
G36*
X140719999Y-112700000D02*
G01*
X140219999Y-112700000D01*
X140219999Y-112200000D01*
X140719999Y-112200000D01*
X140719999Y-112700000D01*
G37*
G36*
X141220000Y-106200000D02*
G01*
X140720000Y-106200000D01*
X140720000Y-105700000D01*
X141220000Y-105700000D01*
X141220000Y-106200000D01*
G37*
G36*
X136720000Y-101225001D02*
G01*
X136720000Y-103675001D01*
X136720000Y-104200000D01*
X136195000Y-104200000D01*
X133745001Y-104200000D01*
X133220000Y-104200000D01*
X133220000Y-103675001D01*
X133220000Y-101225001D01*
X133745001Y-101225001D01*
X133745001Y-103675001D01*
X136195000Y-103675001D01*
X136195000Y-101225001D01*
X133745001Y-101225001D01*
X133220000Y-101225001D01*
X133220000Y-100700001D01*
X133745001Y-100700001D01*
X136195000Y-100700001D01*
X136720000Y-100700001D01*
X136720000Y-101225001D01*
G37*
G36*
X140219999Y-110700000D02*
G01*
X139720000Y-110700000D01*
X139720000Y-110200000D01*
X140219999Y-110200000D01*
X140219999Y-110700000D01*
G37*
G36*
X146219999Y-111700000D02*
G01*
X145719999Y-111700000D01*
X145719999Y-111200000D01*
X146219999Y-111200000D01*
X146219999Y-111700000D01*
G37*
G36*
X138219999Y-107200000D02*
G01*
X137720000Y-107200000D01*
X137720000Y-106700000D01*
X138219999Y-106700000D01*
X138219999Y-107200000D01*
G37*
G36*
X145219999Y-114200000D02*
G01*
X144719999Y-114200000D01*
X144719999Y-113700000D01*
X145219999Y-113700000D01*
X145219999Y-114200000D01*
G37*
G36*
X144719999Y-110700000D02*
G01*
X144219999Y-110700000D01*
X144219999Y-110200000D01*
X144719999Y-110200000D01*
X144719999Y-110700000D01*
G37*
G36*
X145719999Y-112200000D02*
G01*
X145219999Y-112200000D01*
X145219999Y-111700000D01*
X145719999Y-111700000D01*
X145719999Y-112200000D01*
G37*
G36*
X140219999Y-113199999D02*
G01*
X139720000Y-113199999D01*
X139720000Y-112700000D01*
X140219999Y-112700000D01*
X140219999Y-113199999D01*
G37*
G36*
X147719999Y-107700000D02*
G01*
X147219999Y-107700000D01*
X147219999Y-107200000D01*
X147719999Y-107200000D01*
X147719999Y-107700000D01*
G37*
G36*
X141220000Y-108700000D02*
G01*
X140720000Y-108700000D01*
X140720000Y-108200000D01*
X141220000Y-108200000D01*
X141220000Y-108700000D01*
G37*
G36*
X138219999Y-115199999D02*
G01*
X137720000Y-115199999D01*
X137720000Y-114699997D01*
X138219999Y-114699997D01*
X138219999Y-115199999D01*
G37*
G36*
X141220000Y-110200000D02*
G01*
X140720000Y-110200000D01*
X140720000Y-109700000D01*
X141220000Y-109700000D01*
X141220000Y-110200000D01*
G37*
G36*
X137720000Y-105700000D02*
G01*
X137220000Y-105700000D01*
X137220000Y-105200000D01*
X137720000Y-105200000D01*
X137720000Y-105700000D01*
G37*
G36*
X137720000Y-104200000D02*
G01*
X137220000Y-104200000D01*
X137220000Y-103700000D01*
X137720000Y-103700000D01*
X137720000Y-104200000D01*
G37*
G36*
X143719999Y-103200000D02*
G01*
X143219999Y-103200000D01*
X143219999Y-102700000D01*
X143719999Y-102700000D01*
X143719999Y-103200000D01*
G37*
G36*
X146719999Y-114200000D02*
G01*
X146220000Y-114200000D01*
X146220000Y-113700000D01*
X146719999Y-113700000D01*
X146719999Y-114200000D01*
G37*
G36*
X142719999Y-113699999D02*
G01*
X142219999Y-113699999D01*
X142219999Y-113199999D01*
X142719999Y-113199999D01*
X142719999Y-113699999D01*
G37*
G36*
X136220000Y-109200000D02*
G01*
X135720000Y-109200000D01*
X135720000Y-108700000D01*
X136220000Y-108700000D01*
X136220000Y-109200000D01*
G37*
G36*
X147719999Y-114699997D02*
G01*
X147219999Y-114699997D01*
X147219999Y-114200000D01*
X147719999Y-114200000D01*
X147719999Y-114699997D01*
G37*
G36*
X142719999Y-111700000D02*
G01*
X142219999Y-111700000D01*
X142219999Y-111200000D01*
X142719999Y-111200000D01*
X142719999Y-111700000D01*
G37*
G36*
X142219999Y-105700000D02*
G01*
X141720000Y-105700000D01*
X141720000Y-105200000D01*
X142219999Y-105200000D01*
X142219999Y-105700000D01*
G37*
G36*
X144219999Y-108200000D02*
G01*
X143720000Y-108200000D01*
X143720000Y-107700000D01*
X144219999Y-107700000D01*
X144219999Y-108200000D01*
G37*
G36*
X141720000Y-102200000D02*
G01*
X141220000Y-102200000D01*
X141220000Y-101700000D01*
X141720000Y-101700000D01*
X141720000Y-102200000D01*
G37*
G36*
X141720000Y-107700000D02*
G01*
X141220000Y-107700000D01*
X141220000Y-107200000D01*
X141720000Y-107200000D01*
X141720000Y-107700000D01*
G37*
G36*
X134220000Y-106700000D02*
G01*
X133720000Y-106700000D01*
X133720000Y-106200000D01*
X134220000Y-106200000D01*
X134220000Y-106700000D01*
G37*
G36*
X146219999Y-114200000D02*
G01*
X145719999Y-114200000D01*
X145719999Y-113700000D01*
X146219999Y-113700000D01*
X146219999Y-114200000D01*
G37*
G36*
X139719999Y-114699997D02*
G01*
X139219999Y-114699997D01*
X139219999Y-114200000D01*
X139719999Y-114200000D01*
X139719999Y-114699997D01*
G37*
G36*
X137720000Y-105200000D02*
G01*
X137220000Y-105200000D01*
X137220000Y-104700000D01*
X137720000Y-104700000D01*
X137720000Y-105200000D01*
G37*
G36*
X146719999Y-108700000D02*
G01*
X146220000Y-108700000D01*
X146220000Y-108200000D01*
X146719999Y-108200000D01*
X146719999Y-108700000D01*
G37*
G36*
X146719999Y-115199999D02*
G01*
X146220000Y-115199999D01*
X146220000Y-114699997D01*
X146719999Y-114699997D01*
X146719999Y-115199999D01*
G37*
G36*
X141720000Y-109700000D02*
G01*
X141220000Y-109700000D01*
X141220000Y-109200000D01*
X141720000Y-109200000D01*
X141720000Y-109700000D01*
G37*
G36*
X137720000Y-102700001D02*
G01*
X137220000Y-102700001D01*
X137220000Y-102200000D01*
X137720000Y-102200000D01*
X137720000Y-102700001D01*
G37*
G36*
X135720000Y-110700000D02*
G01*
X135220000Y-110700000D01*
X135220000Y-110200000D01*
X135720000Y-110200000D01*
X135720000Y-110700000D01*
G37*
G36*
X147719999Y-101225001D02*
G01*
X147719999Y-103675001D01*
X147719999Y-104200000D01*
X147194999Y-104200000D01*
X144745000Y-104200000D01*
X144219999Y-104200000D01*
X144219999Y-103675001D01*
X144219999Y-101225001D01*
X144745000Y-101225001D01*
X144745000Y-103675001D01*
X147194999Y-103675001D01*
X147194999Y-101225001D01*
X144745000Y-101225001D01*
X144219999Y-101225001D01*
X144219999Y-100700001D01*
X144745000Y-100700001D01*
X147194999Y-100700001D01*
X147719999Y-100700001D01*
X147719999Y-101225001D01*
G37*
G36*
X147719999Y-111200000D02*
G01*
X147219999Y-111200000D01*
X147219999Y-110700000D01*
X147719999Y-110700000D01*
X147719999Y-111200000D01*
G37*
G36*
X142719999Y-107700000D02*
G01*
X142219999Y-107700000D01*
X142219999Y-107200000D01*
X142719999Y-107200000D01*
X142719999Y-107700000D01*
G37*
G36*
X138719999Y-101200000D02*
G01*
X138219999Y-101200000D01*
X138219999Y-100700001D01*
X138719999Y-100700001D01*
X138719999Y-101200000D01*
G37*
G36*
X142219999Y-113699999D02*
G01*
X141720000Y-113699999D01*
X141720000Y-113199999D01*
X142219999Y-113199999D01*
X142219999Y-113699999D01*
G37*
G36*
X145719999Y-114200000D02*
G01*
X145219999Y-114200000D01*
X145219999Y-113700000D01*
X145719999Y-113700000D01*
X145719999Y-114200000D01*
G37*
G36*
X140719999Y-105200000D02*
G01*
X140219999Y-105200000D01*
X140219999Y-104700000D01*
X140719999Y-104700000D01*
X140719999Y-105200000D01*
G37*
G36*
X139719999Y-106700000D02*
G01*
X139219999Y-106700000D01*
X139219999Y-106200000D01*
X139719999Y-106200000D01*
X139719999Y-106700000D01*
G37*
G36*
X140719999Y-108200000D02*
G01*
X140219999Y-108200000D01*
X140219999Y-107700000D01*
X140719999Y-107700000D01*
X140719999Y-108200000D01*
G37*
G36*
X145719999Y-111700000D02*
G01*
X145219999Y-111700000D01*
X145219999Y-111200000D01*
X145719999Y-111200000D01*
X145719999Y-111700000D01*
G37*
G36*
X133720000Y-107700000D02*
G01*
X133220000Y-107700000D01*
X133220000Y-107200000D01*
X133720000Y-107200000D01*
X133720000Y-107700000D01*
G37*
G36*
X146219999Y-113699999D02*
G01*
X145719999Y-113699999D01*
X145719999Y-113199999D01*
X146219999Y-113199999D01*
X146219999Y-113699999D01*
G37*
G36*
X136719999Y-109200000D02*
G01*
X136220000Y-109200000D01*
X136220000Y-108700000D01*
X136719999Y-108700000D01*
X136719999Y-109200000D01*
G37*
G36*
X144719999Y-107200000D02*
G01*
X144219999Y-107200000D01*
X144219999Y-106700000D01*
X144719999Y-106700000D01*
X144719999Y-107200000D01*
G37*
G36*
X133720000Y-110700000D02*
G01*
X133220000Y-110700000D01*
X133220000Y-110200000D01*
X133720000Y-110200000D01*
X133720000Y-110700000D01*
G37*
G36*
X135720000Y-106700000D02*
G01*
X135220000Y-106700000D01*
X135220000Y-106200000D01*
X135720000Y-106200000D01*
X135720000Y-106700000D01*
G37*
G36*
X138719999Y-113199999D02*
G01*
X138219999Y-113199999D01*
X138219999Y-112700000D01*
X138719999Y-112700000D01*
X138719999Y-113199999D01*
G37*
G36*
X145219999Y-109700000D02*
G01*
X144719999Y-109700000D01*
X144719999Y-109200000D01*
X145219999Y-109200000D01*
X145219999Y-109700000D01*
G37*
G36*
X145719999Y-110200000D02*
G01*
X145219999Y-110200000D01*
X145219999Y-109700000D01*
X145719999Y-109700000D01*
X145719999Y-110200000D01*
G37*
G36*
X134220000Y-107200000D02*
G01*
X133720000Y-107200000D01*
X133720000Y-106700000D01*
X134220000Y-106700000D01*
X134220000Y-107200000D01*
G37*
G36*
X144719999Y-107700000D02*
G01*
X144219999Y-107700000D01*
X144219999Y-107200000D01*
X144719999Y-107200000D01*
X144719999Y-107700000D01*
G37*
G36*
X143719999Y-108200000D02*
G01*
X143219999Y-108200000D01*
X143219999Y-107700000D01*
X143719999Y-107700000D01*
X143719999Y-108200000D01*
G37*
G36*
X135220000Y-109200000D02*
G01*
X134720000Y-109200000D01*
X134720000Y-108700000D01*
X135220000Y-108700000D01*
X135220000Y-109200000D01*
G37*
G36*
X135720000Y-110200000D02*
G01*
X135220000Y-110200000D01*
X135220000Y-109700000D01*
X135720000Y-109700000D01*
X135720000Y-110200000D01*
G37*
G36*
X136719999Y-107200000D02*
G01*
X136220000Y-107200000D01*
X136220000Y-106700000D01*
X136719999Y-106700000D01*
X136719999Y-107200000D01*
G37*
G36*
X137220000Y-107200000D02*
G01*
X136720000Y-107200000D01*
X136720000Y-106700000D01*
X137220000Y-106700000D01*
X137220000Y-107200000D01*
G37*
G36*
X136220000Y-105700000D02*
G01*
X135720000Y-105700000D01*
X135720000Y-105200000D01*
X136220000Y-105200000D01*
X136220000Y-105700000D01*
G37*
G36*
X145719999Y-105700000D02*
G01*
X145219999Y-105700000D01*
X145219999Y-105200000D01*
X145719999Y-105200000D01*
X145719999Y-105700000D01*
G37*
G36*
X145719999Y-115199999D02*
G01*
X145219999Y-115199999D01*
X145219999Y-114699997D01*
X145719999Y-114699997D01*
X145719999Y-115199999D01*
G37*
G36*
X142719999Y-103700000D02*
G01*
X142219999Y-103700000D01*
X142219999Y-103200000D01*
X142719999Y-103200000D01*
X142719999Y-103700000D01*
G37*
G36*
X139719999Y-108700000D02*
G01*
X139219999Y-108700000D01*
X139219999Y-108200000D01*
X139719999Y-108200000D01*
X139719999Y-108700000D01*
G37*
G36*
X147219999Y-113199999D02*
G01*
X146719999Y-113199999D01*
X146719999Y-112700000D01*
X147219999Y-112700000D01*
X147219999Y-113199999D01*
G37*
G36*
X144719999Y-114200000D02*
G01*
X144219999Y-114200000D01*
X144219999Y-113700000D01*
X144719999Y-113700000D01*
X144719999Y-114200000D01*
G37*
G36*
X145219999Y-107700000D02*
G01*
X144719999Y-107700000D01*
X144719999Y-107200000D01*
X145219999Y-107200000D01*
X145219999Y-107700000D01*
G37*
G36*
X136220000Y-111200000D02*
G01*
X135720000Y-111200000D01*
X135720000Y-110700000D01*
X136220000Y-110700000D01*
X136220000Y-111200000D01*
G37*
G36*
X142719999Y-101700000D02*
G01*
X142219999Y-101700000D01*
X142219999Y-101200000D01*
X142719999Y-101200000D01*
X142719999Y-101700000D01*
G37*
G36*
X143219999Y-105700000D02*
G01*
X142719999Y-105700000D01*
X142719999Y-105200000D01*
X143219999Y-105200000D01*
X143219999Y-105700000D01*
G37*
G36*
X137720000Y-108700000D02*
G01*
X137220000Y-108700000D01*
X137220000Y-108200000D01*
X137720000Y-108200000D01*
X137720000Y-108700000D01*
G37*
G36*
X145719999Y-112700000D02*
G01*
X145219999Y-112700000D01*
X145219999Y-112200000D01*
X145719999Y-112200000D01*
X145719999Y-112700000D01*
G37*
G36*
X135720000Y-114200000D02*
G01*
X134220000Y-114200000D01*
X134220000Y-112700000D01*
X135720000Y-112700000D01*
X135720000Y-114200000D01*
G37*
G36*
X139219999Y-101200000D02*
G01*
X138719999Y-101200000D01*
X138719999Y-100700001D01*
X139219999Y-100700001D01*
X139219999Y-101200000D01*
G37*
G36*
X143719999Y-114200000D02*
G01*
X143219999Y-114200000D01*
X143219999Y-113700000D01*
X143719999Y-113700000D01*
X143719999Y-114200000D01*
G37*
G36*
X139719999Y-104700000D02*
G01*
X139219999Y-104700000D01*
X139219999Y-104200000D01*
X139719999Y-104200000D01*
X139719999Y-104700000D01*
G37*
G36*
X146219999Y-114699997D02*
G01*
X145719999Y-114699997D01*
X145719999Y-114200000D01*
X146219999Y-114200000D01*
X146219999Y-114699997D01*
G37*
G36*
X135720000Y-107200000D02*
G01*
X135220000Y-107200000D01*
X135220000Y-106700000D01*
X135720000Y-106700000D01*
X135720000Y-107200000D01*
G37*
G36*
X142219999Y-105200000D02*
G01*
X141720000Y-105200000D01*
X141720000Y-104700000D01*
X142219999Y-104700000D01*
X142219999Y-105200000D01*
G37*
G36*
X143719999Y-104700000D02*
G01*
X143219999Y-104700000D01*
X143219999Y-104200000D01*
X143719999Y-104200000D01*
X143719999Y-104700000D01*
G37*
G36*
X137720000Y-109700000D02*
G01*
X137220000Y-109700000D01*
X137220000Y-109200000D01*
X137720000Y-109200000D01*
X137720000Y-109700000D01*
G37*
G36*
X141220000Y-114200000D02*
G01*
X140720000Y-114200000D01*
X140720000Y-113700000D01*
X141220000Y-113700000D01*
X141220000Y-114200000D01*
G37*
G36*
X142719999Y-112700000D02*
G01*
X142219999Y-112700000D01*
X142219999Y-112200000D01*
X142719999Y-112200000D01*
X142719999Y-112700000D01*
G37*
G36*
X145219999Y-107200000D02*
G01*
X144719999Y-107200000D01*
X144719999Y-106700000D01*
X145219999Y-106700000D01*
X145219999Y-107200000D01*
G37*
G36*
X146219999Y-109200000D02*
G01*
X145719999Y-109200000D01*
X145719999Y-108700000D01*
X146219999Y-108700000D01*
X146219999Y-109200000D01*
G37*
G36*
X146219999Y-108200000D02*
G01*
X145719999Y-108200000D01*
X145719999Y-107700000D01*
X146219999Y-107700000D01*
X146219999Y-108200000D01*
G37*
G36*
X142719999Y-105700000D02*
G01*
X142219999Y-105700000D01*
X142219999Y-105200000D01*
X142719999Y-105200000D01*
X142719999Y-105700000D01*
G37*
G36*
X134720001Y-110700000D02*
G01*
X134220000Y-110700000D01*
X134220000Y-110200000D01*
X134720001Y-110200000D01*
X134720001Y-110700000D01*
G37*
G36*
X135220000Y-107200000D02*
G01*
X134720000Y-107200000D01*
X134720000Y-106700000D01*
X135220000Y-106700000D01*
X135220000Y-107200000D01*
G37*
G36*
X146719999Y-111200000D02*
G01*
X146220000Y-111200000D01*
X146220000Y-110700000D01*
X146719999Y-110700000D01*
X146719999Y-111200000D01*
G37*
G36*
X141720000Y-112200000D02*
G01*
X141220000Y-112200000D01*
X141220000Y-111700000D01*
X141720000Y-111700000D01*
X141720000Y-112200000D01*
G37*
G36*
X134720001Y-111200000D02*
G01*
X134220000Y-111200000D01*
X134220000Y-110700000D01*
X134720001Y-110700000D01*
X134720001Y-111200000D01*
G37*
G36*
X141720000Y-110700000D02*
G01*
X141220000Y-110700000D01*
X141220000Y-110200000D01*
X141720000Y-110200000D01*
X141720000Y-110700000D01*
G37*
G36*
X143219999Y-112200000D02*
G01*
X142719999Y-112200000D01*
X142719999Y-111700000D01*
X143219999Y-111700000D01*
X143219999Y-112200000D01*
G37*
G36*
X137720000Y-101700000D02*
G01*
X137220000Y-101700000D01*
X137220000Y-101200000D01*
X137720000Y-101200000D01*
X137720000Y-101700000D01*
G37*
G36*
X140219999Y-103200000D02*
G01*
X139720000Y-103200000D01*
X139720000Y-102700000D01*
X140219999Y-102700000D01*
X140219999Y-103200000D01*
G37*
G36*
X143719999Y-111200000D02*
G01*
X143219999Y-111200000D01*
X143219999Y-110700000D01*
X143719999Y-110700000D01*
X143719999Y-111200000D01*
G37*
G36*
X144719999Y-115199999D02*
G01*
X144219999Y-115199999D01*
X144219999Y-114699997D01*
X144719999Y-114699997D01*
X144719999Y-115199999D01*
G37*
G36*
X144219999Y-105700000D02*
G01*
X143720000Y-105700000D01*
X143720000Y-105200000D01*
X144219999Y-105200000D01*
X144219999Y-105700000D01*
G37*
G36*
X147219999Y-111200000D02*
G01*
X146719999Y-111200000D01*
X146719999Y-110700000D01*
X147219999Y-110700000D01*
X147219999Y-111200000D01*
G37*
G36*
X139719999Y-109200000D02*
G01*
X139219999Y-109200000D01*
X139219999Y-108700000D01*
X139719999Y-108700000D01*
X139719999Y-109200000D01*
G37*
G36*
X135220000Y-108200000D02*
G01*
X134720000Y-108200000D01*
X134720000Y-107700000D01*
X135220000Y-107700000D01*
X135220000Y-108200000D01*
G37*
G36*
X144719999Y-114699997D02*
G01*
X144219999Y-114699997D01*
X144219999Y-114200000D01*
X144719999Y-114200000D01*
X144719999Y-114699997D01*
G37*
G36*
X143719999Y-113699999D02*
G01*
X143219999Y-113699999D01*
X143219999Y-113199999D01*
X143719999Y-113199999D01*
X143719999Y-113699999D01*
G37*
G36*
X135220000Y-110700000D02*
G01*
X134720000Y-110700000D01*
X134720000Y-110200000D01*
X135220000Y-110200000D01*
X135220000Y-110700000D01*
G37*
G36*
X134720001Y-109200000D02*
G01*
X134220000Y-109200000D01*
X134220000Y-108700000D01*
X134720001Y-108700000D01*
X134720001Y-109200000D01*
G37*
G36*
X138219999Y-101700000D02*
G01*
X137720000Y-101700000D01*
X137720000Y-101200000D01*
X138219999Y-101200000D01*
X138219999Y-101700000D01*
G37*
G36*
X140719999Y-101700000D02*
G01*
X140219999Y-101700000D01*
X140219999Y-101200000D01*
X140719999Y-101200000D01*
X140719999Y-101700000D01*
G37*
G36*
X141220000Y-114699997D02*
G01*
X140720000Y-114699997D01*
X140720000Y-114200000D01*
X141220000Y-114200000D01*
X141220000Y-114699997D01*
G37*
G36*
X137220000Y-110200000D02*
G01*
X136720000Y-110200000D01*
X136720000Y-109700000D01*
X137220000Y-109700000D01*
X137220000Y-110200000D01*
G37*
G36*
X140719999Y-111700000D02*
G01*
X140219999Y-111700000D01*
X140219999Y-111200000D01*
X140719999Y-111200000D01*
X140719999Y-111700000D01*
G37*
G36*
X141220000Y-108200000D02*
G01*
X140720000Y-108200000D01*
X140720000Y-107700000D01*
X141220000Y-107700000D01*
X141220000Y-108200000D01*
G37*
G36*
X137220000Y-105700000D02*
G01*
X136720000Y-105700000D01*
X136720000Y-105200000D01*
X137220000Y-105200000D01*
X137220000Y-105700000D01*
G37*
G36*
X139719999Y-101700000D02*
G01*
X139219999Y-101700000D01*
X139219999Y-101200000D01*
X139719999Y-101200000D01*
X139719999Y-101700000D01*
G37*
G36*
X146719999Y-109700000D02*
G01*
X146220000Y-109700000D01*
X146220000Y-109200000D01*
X146719999Y-109200000D01*
X146719999Y-109700000D01*
G37*
G36*
X147719999Y-113699999D02*
G01*
X147219999Y-113699999D01*
X147219999Y-113199999D01*
X147719999Y-113199999D01*
X147719999Y-113699999D01*
G37*
G36*
X145719999Y-106200000D02*
G01*
X145219999Y-106200000D01*
X145219999Y-105700000D01*
X145719999Y-105700000D01*
X145719999Y-106200000D01*
G37*
G36*
X139219999Y-106700000D02*
G01*
X138719999Y-106700000D01*
X138719999Y-106200000D01*
X139219999Y-106200000D01*
X139219999Y-106700000D01*
G37*
G36*
X140719999Y-104700000D02*
G01*
X140219999Y-104700000D01*
X140219999Y-104200000D01*
X140719999Y-104200000D01*
X140719999Y-104700000D01*
G37*
G36*
X138219999Y-111200000D02*
G01*
X137720000Y-111200000D01*
X137720000Y-110700000D01*
X138219999Y-110700000D01*
X138219999Y-111200000D01*
G37*
G36*
X142719999Y-101200000D02*
G01*
X142219999Y-101200000D01*
X142219999Y-100700001D01*
X142719999Y-100700001D01*
X142719999Y-101200000D01*
G37*
G36*
X137720000Y-107700000D02*
G01*
X137220000Y-107700000D01*
X137220000Y-107200000D01*
X137720000Y-107200000D01*
X137720000Y-107700000D01*
G37*
G36*
X139719999Y-114200000D02*
G01*
X139219999Y-114200000D01*
X139219999Y-113700000D01*
X139719999Y-113700000D01*
X139719999Y-114200000D01*
G37*
G36*
X137720000Y-104700000D02*
G01*
X137220000Y-104700000D01*
X137220000Y-104200000D01*
X137720000Y-104200000D01*
X137720000Y-104700000D01*
G37*
G36*
X135720000Y-108200000D02*
G01*
X135220000Y-108200000D01*
X135220000Y-107700000D01*
X135720000Y-107700000D01*
X135720000Y-108200000D01*
G37*
G36*
X143219999Y-109700000D02*
G01*
X142719999Y-109700000D01*
X142719999Y-109200000D01*
X143219999Y-109200000D01*
X143219999Y-109700000D01*
G37*
G36*
X141220000Y-101200000D02*
G01*
X140720000Y-101200000D01*
X140720000Y-100700001D01*
X141220000Y-100700001D01*
X141220000Y-101200000D01*
G37*
G36*
X141220000Y-106700000D02*
G01*
X140720000Y-106700000D01*
X140720000Y-106200000D01*
X141220000Y-106200000D01*
X141220000Y-106700000D01*
G37*
G36*
X140719999Y-101200000D02*
G01*
X140219999Y-101200000D01*
X140219999Y-100700001D01*
X140719999Y-100700001D01*
X140719999Y-101200000D01*
G37*
G36*
X133720000Y-109200000D02*
G01*
X133220000Y-109200000D01*
X133220000Y-108700000D01*
X133720000Y-108700000D01*
X133720000Y-109200000D01*
G37*
G36*
X136719999Y-108200000D02*
G01*
X136220000Y-108200000D01*
X136220000Y-107700000D01*
X136719999Y-107700000D01*
X136719999Y-108200000D01*
G37*
G36*
X143719999Y-111700000D02*
G01*
X143219999Y-111700000D01*
X143219999Y-111200000D01*
X143719999Y-111200000D01*
X143719999Y-111700000D01*
G37*
G36*
X138219999Y-112700000D02*
G01*
X137720000Y-112700000D01*
X137720000Y-112200000D01*
X138219999Y-112200000D01*
X138219999Y-112700000D01*
G37*
G36*
X144719999Y-105200000D02*
G01*
X144219999Y-105200000D01*
X144219999Y-104700000D01*
X144719999Y-104700000D01*
X144719999Y-105200000D01*
G37*
G36*
X138719999Y-105700000D02*
G01*
X138219999Y-105700000D01*
X138219999Y-105200000D01*
X138719999Y-105200000D01*
X138719999Y-105700000D01*
G37*
G36*
X138219999Y-110700000D02*
G01*
X137720000Y-110700000D01*
X137720000Y-110200000D01*
X138219999Y-110200000D01*
X138219999Y-110700000D01*
G37*
G36*
X139219999Y-103200000D02*
G01*
X138719999Y-103200000D01*
X138719999Y-102700000D01*
X139219999Y-102700000D01*
X139219999Y-103200000D01*
G37*
G36*
X145719999Y-109700000D02*
G01*
X145219999Y-109700000D01*
X145219999Y-109200000D01*
X145719999Y-109200000D01*
X145719999Y-109700000D01*
G37*
G36*
X143219999Y-113699999D02*
G01*
X142719999Y-113699999D01*
X142719999Y-113199999D01*
X143219999Y-113199999D01*
X143219999Y-113699999D01*
G37*
G36*
X144719999Y-111200000D02*
G01*
X144219999Y-111200000D01*
X144219999Y-110700000D01*
X144719999Y-110700000D01*
X144719999Y-111200000D01*
G37*
G36*
X139219999Y-114200000D02*
G01*
X138719999Y-114200000D01*
X138719999Y-113700000D01*
X139219999Y-113700000D01*
X139219999Y-114200000D01*
G37*
G36*
X140719999Y-102200000D02*
G01*
X140219999Y-102200000D01*
X140219999Y-101700000D01*
X140719999Y-101700000D01*
X140719999Y-102200000D01*
G37*
G36*
X133720000Y-109700000D02*
G01*
X133220000Y-109700000D01*
X133220000Y-109200000D01*
X133720000Y-109200000D01*
X133720000Y-109700000D01*
G37*
G36*
X143219999Y-114200000D02*
G01*
X142719999Y-114200000D01*
X142719999Y-113700000D01*
X143219999Y-113700000D01*
X143219999Y-114200000D01*
G37*
G36*
X146719999Y-112200000D02*
G01*
X146220000Y-112200000D01*
X146220000Y-111700000D01*
X146719999Y-111700000D01*
X146719999Y-112200000D01*
G37*
G36*
X144719999Y-109700000D02*
G01*
X144219999Y-109700000D01*
X144219999Y-109200000D01*
X144719999Y-109200000D01*
X144719999Y-109700000D01*
G37*
G36*
X141720000Y-104200000D02*
G01*
X141220000Y-104200000D01*
X141220000Y-103700000D01*
X141720000Y-103700000D01*
X141720000Y-104200000D01*
G37*
G36*
X137720000Y-111700000D02*
G01*
X137220000Y-111700000D01*
X137220000Y-111200000D01*
X137720000Y-111200000D01*
X137720000Y-111700000D01*
G37*
G36*
X143219999Y-111200000D02*
G01*
X142719999Y-111200000D01*
X142719999Y-110700000D01*
X143219999Y-110700000D01*
X143219999Y-111200000D01*
G37*
G36*
X140219999Y-114200000D02*
G01*
X139720000Y-114200000D01*
X139720000Y-113700000D01*
X140219999Y-113700000D01*
X140219999Y-114200000D01*
G37*
G36*
X143219999Y-104700000D02*
G01*
X142719999Y-104700000D01*
X142719999Y-104200000D01*
X143219999Y-104200000D01*
X143219999Y-104700000D01*
G37*
G36*
X146719999Y-103200000D02*
G01*
X145219999Y-103200000D01*
X145219999Y-101700000D01*
X146719999Y-101700000D01*
X146719999Y-103200000D01*
G37*
G36*
X141720000Y-103700000D02*
G01*
X141220000Y-103700000D01*
X141220000Y-103200000D01*
X141720000Y-103200000D01*
X141720000Y-103700000D01*
G37*
G36*
X134220000Y-110200000D02*
G01*
X133720000Y-110200000D01*
X133720000Y-109700000D01*
X134220000Y-109700000D01*
X134220000Y-110200000D01*
G37*
G36*
X145219999Y-114699997D02*
G01*
X144719999Y-114699997D01*
X144719999Y-114200000D01*
X145219999Y-114200000D01*
X145219999Y-114699997D01*
G37*
G36*
X134720001Y-108200000D02*
G01*
X134220000Y-108200000D01*
X134220000Y-107700000D01*
X134720001Y-107700000D01*
X134720001Y-108200000D01*
G37*
G36*
X145219999Y-109200000D02*
G01*
X144719999Y-109200000D01*
X144719999Y-108700000D01*
X145219999Y-108700000D01*
X145219999Y-109200000D01*
G37*
G36*
X139719999Y-112700000D02*
G01*
X139219999Y-112700000D01*
X139219999Y-112200000D01*
X139719999Y-112200000D01*
X139719999Y-112700000D01*
G37*
G36*
X141720000Y-114699997D02*
G01*
X141220000Y-114699997D01*
X141220000Y-114200000D01*
X141720000Y-114200000D01*
X141720000Y-114699997D01*
G37*
G36*
X146219999Y-106700000D02*
G01*
X145719999Y-106700000D01*
X145719999Y-106200000D01*
X146219999Y-106200000D01*
X146219999Y-106700000D01*
G37*
G36*
X137220000Y-108700000D02*
G01*
X136720000Y-108700000D01*
X136720000Y-108200000D01*
X137220000Y-108200000D01*
X137220000Y-108700000D01*
G37*
G36*
X143219999Y-108700000D02*
G01*
X142719999Y-108700000D01*
X142719999Y-108200000D01*
X143219999Y-108200000D01*
X143219999Y-108700000D01*
G37*
G36*
X147219999Y-109700000D02*
G01*
X146719999Y-109700000D01*
X146719999Y-109200000D01*
X147219999Y-109200000D01*
X147219999Y-109700000D01*
G37*
G36*
X147719999Y-109700000D02*
G01*
X147219999Y-109700000D01*
X147219999Y-109200000D01*
X147719999Y-109200000D01*
X147719999Y-109700000D01*
G37*
G36*
X137720000Y-107200000D02*
G01*
X137220000Y-107200000D01*
X137220000Y-106700000D01*
X137720000Y-106700000D01*
X137720000Y-107200000D01*
G37*
G36*
X147219999Y-105700000D02*
G01*
X146719999Y-105700000D01*
X146719999Y-105200000D01*
X147219999Y-105200000D01*
X147219999Y-105700000D01*
G37*
G36*
X140219999Y-109700000D02*
G01*
X139720000Y-109700000D01*
X139720000Y-109200000D01*
X140219999Y-109200000D01*
X140219999Y-109700000D01*
G37*
G36*
X144719999Y-112200000D02*
G01*
X144219999Y-112200000D01*
X144219999Y-111700000D01*
X144719999Y-111700000D01*
X144719999Y-112200000D01*
G37*
G36*
X144219999Y-106700000D02*
G01*
X143720000Y-106700000D01*
X143720000Y-106200000D01*
X144219999Y-106200000D01*
X144219999Y-106700000D01*
G37*
G36*
X142219999Y-109700000D02*
G01*
X141720000Y-109700000D01*
X141720000Y-109200000D01*
X142219999Y-109200000D01*
X142219999Y-109700000D01*
G37*
G36*
X134720001Y-106200000D02*
G01*
X134220000Y-106200000D01*
X134220000Y-105700000D01*
X134720001Y-105700000D01*
X134720001Y-106200000D01*
G37*
G36*
X146719999Y-108200000D02*
G01*
X146220000Y-108200000D01*
X146220000Y-107700000D01*
X146719999Y-107700000D01*
X146719999Y-108200000D01*
G37*
G36*
X143719999Y-113199999D02*
G01*
X143219999Y-113199999D01*
X143219999Y-112700000D01*
X143719999Y-112700000D01*
X143719999Y-113199999D01*
G37*
G36*
X141720000Y-112700000D02*
G01*
X141220000Y-112700000D01*
X141220000Y-112200000D01*
X141720000Y-112200000D01*
X141720000Y-112700000D01*
G37*
G36*
X145719999Y-108200000D02*
G01*
X145219999Y-108200000D01*
X145219999Y-107700000D01*
X145719999Y-107700000D01*
X145719999Y-108200000D01*
G37*
G36*
X138719999Y-104200000D02*
G01*
X138219999Y-104200000D01*
X138219999Y-103700000D01*
X138719999Y-103700000D01*
X138719999Y-104200000D01*
G37*
G36*
X143219999Y-110200000D02*
G01*
X142719999Y-110200000D01*
X142719999Y-109700000D01*
X143219999Y-109700000D01*
X143219999Y-110200000D01*
G37*
G36*
X142719999Y-109700000D02*
G01*
X142219999Y-109700000D01*
X142219999Y-109200000D01*
X142719999Y-109200000D01*
X142719999Y-109700000D01*
G37*
G36*
X140719999Y-111200000D02*
G01*
X140219999Y-111200000D01*
X140219999Y-110700000D01*
X140719999Y-110700000D01*
X140719999Y-111200000D01*
G37*
G36*
X142219999Y-114200000D02*
G01*
X141720000Y-114200000D01*
X141720000Y-113700000D01*
X142219999Y-113700000D01*
X142219999Y-114200000D01*
G37*
G36*
X147219999Y-114200000D02*
G01*
X146719999Y-114200000D01*
X146719999Y-113700000D01*
X147219999Y-113700000D01*
X147219999Y-114200000D01*
G37*
G36*
X138719999Y-102700001D02*
G01*
X138219999Y-102700001D01*
X138219999Y-102200000D01*
X138719999Y-102200000D01*
X138719999Y-102700001D01*
G37*
G36*
X144219999Y-114200000D02*
G01*
X143720000Y-114200000D01*
X143720000Y-113700000D01*
X144219999Y-113700000D01*
X144219999Y-114200000D01*
G37*
G36*
X142719999Y-113199999D02*
G01*
X142219999Y-113199999D01*
X142219999Y-112700000D01*
X142719999Y-112700000D01*
X142719999Y-113199999D01*
G37*
G36*
X143219999Y-106700000D02*
G01*
X142719999Y-106700000D01*
X142719999Y-106200000D01*
X143219999Y-106200000D01*
X143219999Y-106700000D01*
G37*
G36*
X145219999Y-105700000D02*
G01*
X144719999Y-105700000D01*
X144719999Y-105200000D01*
X145219999Y-105200000D01*
X145219999Y-105700000D01*
G37*
G36*
X146719999Y-109200000D02*
G01*
X146220000Y-109200000D01*
X146220000Y-108700000D01*
X146719999Y-108700000D01*
X146719999Y-109200000D01*
G37*
G36*
X142219999Y-111200000D02*
G01*
X141720000Y-111200000D01*
X141720000Y-110700000D01*
X142219999Y-110700000D01*
X142219999Y-111200000D01*
G37*
G36*
X146219999Y-112200000D02*
G01*
X145719999Y-112200000D01*
X145719999Y-111700000D01*
X146219999Y-111700000D01*
X146219999Y-112200000D01*
G37*
G36*
X145219999Y-115199999D02*
G01*
X144719999Y-115199999D01*
X144719999Y-114699997D01*
X145219999Y-114699997D01*
X145219999Y-115199999D01*
G37*
G36*
X143219999Y-105200000D02*
G01*
X142719999Y-105200000D01*
X142719999Y-104700000D01*
X143219999Y-104700000D01*
X143219999Y-105200000D01*
G37*
G36*
X144219999Y-113699999D02*
G01*
X143720000Y-113699999D01*
X143720000Y-113199999D01*
X144219999Y-113199999D01*
X144219999Y-113699999D01*
G37*
G36*
X143219999Y-113199999D02*
G01*
X142719999Y-113199999D01*
X142719999Y-112700000D01*
X143219999Y-112700000D01*
X143219999Y-113199999D01*
G37*
G36*
X135720000Y-107700000D02*
G01*
X135220000Y-107700000D01*
X135220000Y-107200000D01*
X135720000Y-107200000D01*
X135720000Y-107700000D01*
G37*
G36*
X136220000Y-108200000D02*
G01*
X135720000Y-108200000D01*
X135720000Y-107700000D01*
X136220000Y-107700000D01*
X136220000Y-108200000D01*
G37*
G36*
X138219999Y-106200000D02*
G01*
X137720000Y-106200000D01*
X137720000Y-105700000D01*
X138219999Y-105700000D01*
X138219999Y-106200000D01*
G37*
G36*
X145719999Y-113199999D02*
G01*
X145219999Y-113199999D01*
X145219999Y-112700000D01*
X145719999Y-112700000D01*
X145719999Y-113199999D01*
G37*
G36*
X136719999Y-106200000D02*
G01*
X136220000Y-106200000D01*
X136220000Y-105700000D01*
X136719999Y-105700000D01*
X136719999Y-106200000D01*
G37*
G36*
X142719999Y-110700000D02*
G01*
X142219999Y-110700000D01*
X142219999Y-110200000D01*
X142719999Y-110200000D01*
X142719999Y-110700000D01*
G37*
G36*
X136220000Y-108700000D02*
G01*
X135720000Y-108700000D01*
X135720000Y-108200000D01*
X136220000Y-108200000D01*
X136220000Y-108700000D01*
G37*
G36*
X139219999Y-109700000D02*
G01*
X138719999Y-109700000D01*
X138719999Y-109200000D01*
X139219999Y-109200000D01*
X139219999Y-109700000D01*
G37*
G36*
X142219999Y-103700000D02*
G01*
X141720000Y-103700000D01*
X141720000Y-103200000D01*
X142219999Y-103200000D01*
X142219999Y-103700000D01*
G37*
G36*
X144219999Y-105200000D02*
G01*
X143720000Y-105200000D01*
X143720000Y-104700000D01*
X144219999Y-104700000D01*
X144219999Y-105200000D01*
G37*
G36*
X142219999Y-102700001D02*
G01*
X141720000Y-102700001D01*
X141720000Y-102200000D01*
X142219999Y-102200000D01*
X142219999Y-102700001D01*
G37*
G36*
X147719999Y-110200000D02*
G01*
X147219999Y-110200000D01*
X147219999Y-109700000D01*
X147719999Y-109700000D01*
X147719999Y-110200000D01*
G37*
G36*
X143719999Y-103700000D02*
G01*
X143219999Y-103700000D01*
X143219999Y-103200000D01*
X143719999Y-103200000D01*
X143719999Y-103700000D01*
G37*
G36*
X146719999Y-105200000D02*
G01*
X146220000Y-105200000D01*
X146220000Y-104700000D01*
X146719999Y-104700000D01*
X146719999Y-105200000D01*
G37*
G36*
X143719999Y-110700000D02*
G01*
X143219999Y-110700000D01*
X143219999Y-110200000D01*
X143719999Y-110200000D01*
X143719999Y-110700000D01*
G37*
G36*
X136719999Y-111200000D02*
G01*
X136220000Y-111200000D01*
X136220000Y-110700000D01*
X136719999Y-110700000D01*
X136719999Y-111200000D01*
G37*
G36*
X134720001Y-108700000D02*
G01*
X134220000Y-108700000D01*
X134220000Y-108200000D01*
X134720001Y-108200000D01*
X134720001Y-108700000D01*
G37*
G36*
X144719999Y-113199999D02*
G01*
X144219999Y-113199999D01*
X144219999Y-112700000D01*
X144719999Y-112700000D01*
X144719999Y-113199999D01*
G37*
G36*
X147719999Y-107200000D02*
G01*
X147219999Y-107200000D01*
X147219999Y-106700000D01*
X147719999Y-106700000D01*
X147719999Y-107200000D01*
G37*
G36*
X141220000Y-113199999D02*
G01*
X140720000Y-113199999D01*
X140720000Y-112700000D01*
X141220000Y-112700000D01*
X141220000Y-113199999D01*
G37*
G36*
X133720000Y-111200000D02*
G01*
X133220000Y-111200000D01*
X133220000Y-110700000D01*
X133720000Y-110700000D01*
X133720000Y-111200000D01*
G37*
G36*
X147719999Y-108700000D02*
G01*
X147219999Y-108700000D01*
X147219999Y-108200000D01*
X147719999Y-108200000D01*
X147719999Y-108700000D01*
G37*
G36*
X145219999Y-108700000D02*
G01*
X144719999Y-108700000D01*
X144719999Y-108200000D01*
X145219999Y-108200000D01*
X145219999Y-108700000D01*
G37*
G36*
X140719999Y-104200000D02*
G01*
X140219999Y-104200000D01*
X140219999Y-103700000D01*
X140719999Y-103700000D01*
X140719999Y-104200000D01*
G37*
G36*
X137220000Y-109200000D02*
G01*
X136720000Y-109200000D01*
X136720000Y-108700000D01*
X137220000Y-108700000D01*
X137220000Y-109200000D01*
G37*
G36*
X143719999Y-107200000D02*
G01*
X143219999Y-107200000D01*
X143219999Y-106700000D01*
X143719999Y-106700000D01*
X143719999Y-107200000D01*
G37*
G36*
X137720000Y-115199999D02*
G01*
X137220000Y-115199999D01*
X137220000Y-114699997D01*
X137720000Y-114699997D01*
X137720000Y-115199999D01*
G37*
G36*
X141720000Y-115199999D02*
G01*
X141220000Y-115199999D01*
X141220000Y-114699997D01*
X141720000Y-114699997D01*
X141720000Y-115199999D01*
G37*
G36*
X138219999Y-103200000D02*
G01*
X137720000Y-103200000D01*
X137720000Y-102700000D01*
X138219999Y-102700000D01*
X138219999Y-103200000D01*
G37*
G36*
X144219999Y-111200000D02*
G01*
X143720000Y-111200000D01*
X143720000Y-110700000D01*
X144219999Y-110700000D01*
X144219999Y-111200000D01*
G37*
G36*
X141720000Y-103200000D02*
G01*
X141220000Y-103200000D01*
X141220000Y-102700000D01*
X141720000Y-102700000D01*
X141720000Y-103200000D01*
G37*
G36*
X139719999Y-111200000D02*
G01*
X139219999Y-111200000D01*
X139219999Y-110700000D01*
X139719999Y-110700000D01*
X139719999Y-111200000D01*
G37*
G36*
X136719999Y-110200000D02*
G01*
X136220000Y-110200000D01*
X136220000Y-109700000D01*
X136719999Y-109700000D01*
X136719999Y-110200000D01*
G37*
G36*
X141720000Y-106200000D02*
G01*
X141220000Y-106200000D01*
X141220000Y-105700000D01*
X141720000Y-105700000D01*
X141720000Y-106200000D01*
G37*
G36*
X139219999Y-103700000D02*
G01*
X138719999Y-103700000D01*
X138719999Y-103200000D01*
X139219999Y-103200000D01*
X139219999Y-103700000D01*
G37*
G36*
X142719999Y-104200000D02*
G01*
X142219999Y-104200000D01*
X142219999Y-103700000D01*
X142719999Y-103700000D01*
X142719999Y-104200000D01*
G37*
G36*
X141720000Y-114200000D02*
G01*
X141220000Y-114200000D01*
X141220000Y-113700000D01*
X141720000Y-113700000D01*
X141720000Y-114200000D01*
G37*
G36*
X140219999Y-107200000D02*
G01*
X139720000Y-107200000D01*
X139720000Y-106700000D01*
X140219999Y-106700000D01*
X140219999Y-107200000D01*
G37*
G36*
X139719999Y-113199999D02*
G01*
X139219999Y-113199999D01*
X139219999Y-112700000D01*
X139719999Y-112700000D01*
X139719999Y-113199999D01*
G37*
G36*
X147219999Y-105200000D02*
G01*
X146719999Y-105200000D01*
X146719999Y-104700000D01*
X147219999Y-104700000D01*
X147219999Y-105200000D01*
G37*
G36*
X143219999Y-109200000D02*
G01*
X142719999Y-109200000D01*
X142719999Y-108700000D01*
X143219999Y-108700000D01*
X143219999Y-109200000D01*
G37*
G36*
X135720000Y-103200000D02*
G01*
X134220000Y-103200000D01*
X134220000Y-101700000D01*
X135720000Y-101700000D01*
X135720000Y-103200000D01*
G37*
G36*
X143719999Y-112700000D02*
G01*
X143219999Y-112700000D01*
X143219999Y-112200000D01*
X143719999Y-112200000D01*
X143719999Y-112700000D01*
G37*
G36*
X139719999Y-111700000D02*
G01*
X139219999Y-111700000D01*
X139219999Y-111200000D01*
X139719999Y-111200000D01*
X139719999Y-111700000D01*
G37*
G36*
X146719999Y-113699999D02*
G01*
X146220000Y-113699999D01*
X146220000Y-113199999D01*
X146719999Y-113199999D01*
X146719999Y-113699999D01*
G37*
G36*
X143719999Y-107700000D02*
G01*
X143219999Y-107700000D01*
X143219999Y-107200000D01*
X143719999Y-107200000D01*
X143719999Y-107700000D01*
G37*
G36*
X139219999Y-114699997D02*
G01*
X138719999Y-114699997D01*
X138719999Y-114200000D01*
X139219999Y-114200000D01*
X139219999Y-114699997D01*
G37*
G36*
X146219999Y-105200000D02*
G01*
X145719999Y-105200000D01*
X145719999Y-104700000D01*
X146219999Y-104700000D01*
X146219999Y-105200000D01*
G37*
G36*
X139719999Y-102200000D02*
G01*
X139219999Y-102200000D01*
X139219999Y-101700000D01*
X139719999Y-101700000D01*
X139719999Y-102200000D01*
G37*
G36*
X140219999Y-101700000D02*
G01*
X139720000Y-101700000D01*
X139720000Y-101200000D01*
X140219999Y-101200000D01*
X140219999Y-101700000D01*
G37*
G36*
X145719999Y-108700000D02*
G01*
X145219999Y-108700000D01*
X145219999Y-108200000D01*
X145719999Y-108200000D01*
X145719999Y-108700000D01*
G37*
G36*
X136220000Y-107700000D02*
G01*
X135720000Y-107700000D01*
X135720000Y-107200000D01*
X136220000Y-107200000D01*
X136220000Y-107700000D01*
G37*
G36*
X134220000Y-109700000D02*
G01*
X133720000Y-109700000D01*
X133720000Y-109200000D01*
X134220000Y-109200000D01*
X134220000Y-109700000D01*
G37*
G36*
X141220000Y-115199999D02*
G01*
X140720000Y-115199999D01*
X140720000Y-114699997D01*
X141220000Y-114699997D01*
X141220000Y-115199999D01*
G37*
G36*
X146719999Y-105700000D02*
G01*
X146220000Y-105700000D01*
X146220000Y-105200000D01*
X146719999Y-105200000D01*
X146719999Y-105700000D01*
G37*
G36*
X137220000Y-106700000D02*
G01*
X136720000Y-106700000D01*
X136720000Y-106200000D01*
X137220000Y-106200000D01*
X137220000Y-106700000D01*
G37*
G36*
X139719999Y-104200000D02*
G01*
X139219999Y-104200000D01*
X139219999Y-103700000D01*
X139719999Y-103700000D01*
X139719999Y-104200000D01*
G37*
G36*
X141220000Y-107200000D02*
G01*
X140720000Y-107200000D01*
X140720000Y-106700000D01*
X141220000Y-106700000D01*
X141220000Y-107200000D01*
G37*
G36*
X144219999Y-109200000D02*
G01*
X143720000Y-109200000D01*
X143720000Y-108700000D01*
X144219999Y-108700000D01*
X144219999Y-109200000D01*
G37*
G36*
X143219999Y-107700000D02*
G01*
X142719999Y-107700000D01*
X142719999Y-107200000D01*
X143219999Y-107200000D01*
X143219999Y-107700000D01*
G37*
G36*
X137220000Y-108200000D02*
G01*
X136720000Y-108200000D01*
X136720000Y-107700000D01*
X137220000Y-107700000D01*
X137220000Y-108200000D01*
G37*
G36*
X141220000Y-102200000D02*
G01*
X140720000Y-102200000D01*
X140720000Y-101700000D01*
X141220000Y-101700000D01*
X141220000Y-102200000D01*
G37*
G36*
X141220000Y-112200000D02*
G01*
X140720000Y-112200000D01*
X140720000Y-111700000D01*
X141220000Y-111700000D01*
X141220000Y-112200000D01*
G37*
G36*
X146219999Y-110200000D02*
G01*
X145719999Y-110200000D01*
X145719999Y-109700000D01*
X146219999Y-109700000D01*
X146219999Y-110200000D01*
G37*
G36*
X145719999Y-111200000D02*
G01*
X145219999Y-111200000D01*
X145219999Y-110700000D01*
X145719999Y-110700000D01*
X145719999Y-111200000D01*
G37*
G36*
X133720000Y-105200000D02*
G01*
X133220000Y-105200000D01*
X133220000Y-104700000D01*
X133720000Y-104700000D01*
X133720000Y-105200000D01*
G37*
G36*
X143719999Y-106700000D02*
G01*
X143219999Y-106700000D01*
X143219999Y-106200000D01*
X143719999Y-106200000D01*
X143719999Y-106700000D01*
G37*
G36*
X147219999Y-107700000D02*
G01*
X146719999Y-107700000D01*
X146719999Y-107200000D01*
X147219999Y-107200000D01*
X147219999Y-107700000D01*
G37*
G36*
X136719999Y-105200000D02*
G01*
X136220000Y-105200000D01*
X136220000Y-104700000D01*
X136719999Y-104700000D01*
X136719999Y-105200000D01*
G37*
G36*
X135720000Y-108700000D02*
G01*
X135220000Y-108700000D01*
X135220000Y-108200000D01*
X135720000Y-108200000D01*
X135720000Y-108700000D01*
G37*
G36*
X138219999Y-108700000D02*
G01*
X137720000Y-108700000D01*
X137720000Y-108200000D01*
X138219999Y-108200000D01*
X138219999Y-108700000D01*
G37*
D11*
X160700326Y-87527219D02*
X160700326Y-86527219D01*
X159652708Y-87527219D02*
X159986041Y-87051028D01*
X160224136Y-87527219D02*
X160224136Y-86527219D01*
X160224136Y-86527219D02*
X159843184Y-86527219D01*
X159843184Y-86527219D02*
X159747946Y-86574838D01*
X159747946Y-86574838D02*
X159700327Y-86622457D01*
X159700327Y-86622457D02*
X159652708Y-86717695D01*
X159652708Y-86717695D02*
X159652708Y-86860552D01*
X159652708Y-86860552D02*
X159700327Y-86955790D01*
X159700327Y-86955790D02*
X159747946Y-87003409D01*
X159747946Y-87003409D02*
X159843184Y-87051028D01*
X159843184Y-87051028D02*
X160224136Y-87051028D01*
X159462232Y-87622457D02*
X158700327Y-87622457D01*
X158509850Y-87241504D02*
X158033660Y-87241504D01*
X158605088Y-87527219D02*
X158271755Y-86527219D01*
X158271755Y-86527219D02*
X157938422Y-87527219D01*
X157747945Y-86527219D02*
X157414612Y-87527219D01*
X157414612Y-87527219D02*
X157081279Y-86527219D01*
X156986041Y-87622457D02*
X156224136Y-87622457D01*
X155462231Y-86574838D02*
X155557469Y-86527219D01*
X155557469Y-86527219D02*
X155700326Y-86527219D01*
X155700326Y-86527219D02*
X155843183Y-86574838D01*
X155843183Y-86574838D02*
X155938421Y-86670076D01*
X155938421Y-86670076D02*
X155986040Y-86765314D01*
X155986040Y-86765314D02*
X156033659Y-86955790D01*
X156033659Y-86955790D02*
X156033659Y-87098647D01*
X156033659Y-87098647D02*
X155986040Y-87289123D01*
X155986040Y-87289123D02*
X155938421Y-87384361D01*
X155938421Y-87384361D02*
X155843183Y-87479600D01*
X155843183Y-87479600D02*
X155700326Y-87527219D01*
X155700326Y-87527219D02*
X155605088Y-87527219D01*
X155605088Y-87527219D02*
X155462231Y-87479600D01*
X155462231Y-87479600D02*
X155414612Y-87431980D01*
X155414612Y-87431980D02*
X155414612Y-87098647D01*
X155414612Y-87098647D02*
X155605088Y-87098647D01*
X147980326Y-87527219D02*
X147980326Y-86527219D01*
X146932708Y-87527219D02*
X147266041Y-87051028D01*
X147504136Y-87527219D02*
X147504136Y-86527219D01*
X147504136Y-86527219D02*
X147123184Y-86527219D01*
X147123184Y-86527219D02*
X147027946Y-86574838D01*
X147027946Y-86574838D02*
X146980327Y-86622457D01*
X146980327Y-86622457D02*
X146932708Y-86717695D01*
X146932708Y-86717695D02*
X146932708Y-86860552D01*
X146932708Y-86860552D02*
X146980327Y-86955790D01*
X146980327Y-86955790D02*
X147027946Y-87003409D01*
X147027946Y-87003409D02*
X147123184Y-87051028D01*
X147123184Y-87051028D02*
X147504136Y-87051028D01*
X146742232Y-87622457D02*
X145980327Y-87622457D01*
X145789850Y-87241504D02*
X145313660Y-87241504D01*
X145885088Y-87527219D02*
X145551755Y-86527219D01*
X145551755Y-86527219D02*
X145218422Y-87527219D01*
X144313660Y-87527219D02*
X144646993Y-87051028D01*
X144885088Y-87527219D02*
X144885088Y-86527219D01*
X144885088Y-86527219D02*
X144504136Y-86527219D01*
X144504136Y-86527219D02*
X144408898Y-86574838D01*
X144408898Y-86574838D02*
X144361279Y-86622457D01*
X144361279Y-86622457D02*
X144313660Y-86717695D01*
X144313660Y-86717695D02*
X144313660Y-86860552D01*
X144313660Y-86860552D02*
X144361279Y-86955790D01*
X144361279Y-86955790D02*
X144408898Y-87003409D01*
X144408898Y-87003409D02*
X144504136Y-87051028D01*
X144504136Y-87051028D02*
X144885088Y-87051028D01*
X187697219Y-88639673D02*
X186697219Y-88639673D01*
X187697219Y-89115863D02*
X186697219Y-89115863D01*
X186697219Y-89115863D02*
X187697219Y-89687291D01*
X187697219Y-89687291D02*
X186697219Y-89687291D01*
X186697219Y-90020625D02*
X186697219Y-90592053D01*
X187697219Y-90306339D02*
X186697219Y-90306339D01*
X187173409Y-90925387D02*
X187173409Y-91258720D01*
X187697219Y-91401577D02*
X187697219Y-90925387D01*
X187697219Y-90925387D02*
X186697219Y-90925387D01*
X186697219Y-90925387D02*
X186697219Y-91401577D01*
X187697219Y-92401577D02*
X187221028Y-92068244D01*
X187697219Y-91830149D02*
X186697219Y-91830149D01*
X186697219Y-91830149D02*
X186697219Y-92211101D01*
X186697219Y-92211101D02*
X186744838Y-92306339D01*
X186744838Y-92306339D02*
X186792457Y-92353958D01*
X186792457Y-92353958D02*
X186887695Y-92401577D01*
X186887695Y-92401577D02*
X187030552Y-92401577D01*
X187030552Y-92401577D02*
X187125790Y-92353958D01*
X187125790Y-92353958D02*
X187173409Y-92306339D01*
X187173409Y-92306339D02*
X187221028Y-92211101D01*
X187221028Y-92211101D02*
X187221028Y-91830149D01*
X172280326Y-87617219D02*
X172280326Y-86617219D01*
X171232708Y-87617219D02*
X171566041Y-87141028D01*
X171804136Y-87617219D02*
X171804136Y-86617219D01*
X171804136Y-86617219D02*
X171423184Y-86617219D01*
X171423184Y-86617219D02*
X171327946Y-86664838D01*
X171327946Y-86664838D02*
X171280327Y-86712457D01*
X171280327Y-86712457D02*
X171232708Y-86807695D01*
X171232708Y-86807695D02*
X171232708Y-86950552D01*
X171232708Y-86950552D02*
X171280327Y-87045790D01*
X171280327Y-87045790D02*
X171327946Y-87093409D01*
X171327946Y-87093409D02*
X171423184Y-87141028D01*
X171423184Y-87141028D02*
X171804136Y-87141028D01*
X171042232Y-87712457D02*
X170280327Y-87712457D01*
X170089850Y-87331504D02*
X169613660Y-87331504D01*
X170185088Y-87617219D02*
X169851755Y-86617219D01*
X169851755Y-86617219D02*
X169518422Y-87617219D01*
X169327945Y-86617219D02*
X168994612Y-87617219D01*
X168994612Y-87617219D02*
X168661279Y-86617219D01*
X168566041Y-87712457D02*
X167804136Y-87712457D01*
X167566040Y-87617219D02*
X167566040Y-86617219D01*
X167566040Y-86617219D02*
X167327945Y-86617219D01*
X167327945Y-86617219D02*
X167185088Y-86664838D01*
X167185088Y-86664838D02*
X167089850Y-86760076D01*
X167089850Y-86760076D02*
X167042231Y-86855314D01*
X167042231Y-86855314D02*
X166994612Y-87045790D01*
X166994612Y-87045790D02*
X166994612Y-87188647D01*
X166994612Y-87188647D02*
X167042231Y-87379123D01*
X167042231Y-87379123D02*
X167089850Y-87474361D01*
X167089850Y-87474361D02*
X167185088Y-87569600D01*
X167185088Y-87569600D02*
X167327945Y-87617219D01*
X167327945Y-87617219D02*
X167566040Y-87617219D01*
D12*
X160404819Y-102226666D02*
X161119104Y-102226666D01*
X161119104Y-102226666D02*
X161261961Y-102179047D01*
X161261961Y-102179047D02*
X161357200Y-102083809D01*
X161357200Y-102083809D02*
X161404819Y-101940952D01*
X161404819Y-101940952D02*
X161404819Y-101845714D01*
X160738152Y-103131428D02*
X161404819Y-103131428D01*
X160357200Y-102893333D02*
X161071485Y-102655238D01*
X161071485Y-102655238D02*
X161071485Y-103274285D01*
X165434819Y-108306666D02*
X166149104Y-108306666D01*
X166149104Y-108306666D02*
X166291961Y-108259047D01*
X166291961Y-108259047D02*
X166387200Y-108163809D01*
X166387200Y-108163809D02*
X166434819Y-108020952D01*
X166434819Y-108020952D02*
X166434819Y-107925714D01*
X165434819Y-108687619D02*
X165434819Y-109306666D01*
X165434819Y-109306666D02*
X165815771Y-108973333D01*
X165815771Y-108973333D02*
X165815771Y-109116190D01*
X165815771Y-109116190D02*
X165863390Y-109211428D01*
X165863390Y-109211428D02*
X165911009Y-109259047D01*
X165911009Y-109259047D02*
X166006247Y-109306666D01*
X166006247Y-109306666D02*
X166244342Y-109306666D01*
X166244342Y-109306666D02*
X166339580Y-109259047D01*
X166339580Y-109259047D02*
X166387200Y-109211428D01*
X166387200Y-109211428D02*
X166434819Y-109116190D01*
X166434819Y-109116190D02*
X166434819Y-108830476D01*
X166434819Y-108830476D02*
X166387200Y-108735238D01*
X166387200Y-108735238D02*
X166339580Y-108687619D01*
X153354819Y-83986666D02*
X154069104Y-83986666D01*
X154069104Y-83986666D02*
X154211961Y-83939047D01*
X154211961Y-83939047D02*
X154307200Y-83843809D01*
X154307200Y-83843809D02*
X154354819Y-83700952D01*
X154354819Y-83700952D02*
X154354819Y-83605714D01*
X153354819Y-84367619D02*
X153354819Y-85034285D01*
X153354819Y-85034285D02*
X154354819Y-84605714D01*
X141674819Y-84096666D02*
X142389104Y-84096666D01*
X142389104Y-84096666D02*
X142531961Y-84049047D01*
X142531961Y-84049047D02*
X142627200Y-83953809D01*
X142627200Y-83953809D02*
X142674819Y-83810952D01*
X142674819Y-83810952D02*
X142674819Y-83715714D01*
X141674819Y-85001428D02*
X141674819Y-84810952D01*
X141674819Y-84810952D02*
X141722438Y-84715714D01*
X141722438Y-84715714D02*
X141770057Y-84668095D01*
X141770057Y-84668095D02*
X141912914Y-84572857D01*
X141912914Y-84572857D02*
X142103390Y-84525238D01*
X142103390Y-84525238D02*
X142484342Y-84525238D01*
X142484342Y-84525238D02*
X142579580Y-84572857D01*
X142579580Y-84572857D02*
X142627200Y-84620476D01*
X142627200Y-84620476D02*
X142674819Y-84715714D01*
X142674819Y-84715714D02*
X142674819Y-84906190D01*
X142674819Y-84906190D02*
X142627200Y-85001428D01*
X142627200Y-85001428D02*
X142579580Y-85049047D01*
X142579580Y-85049047D02*
X142484342Y-85096666D01*
X142484342Y-85096666D02*
X142246247Y-85096666D01*
X142246247Y-85096666D02*
X142151009Y-85049047D01*
X142151009Y-85049047D02*
X142103390Y-85001428D01*
X142103390Y-85001428D02*
X142055771Y-84906190D01*
X142055771Y-84906190D02*
X142055771Y-84715714D01*
X142055771Y-84715714D02*
X142103390Y-84620476D01*
X142103390Y-84620476D02*
X142151009Y-84572857D01*
X142151009Y-84572857D02*
X142246247Y-84525238D01*
X164994819Y-84216666D02*
X165709104Y-84216666D01*
X165709104Y-84216666D02*
X165851961Y-84169047D01*
X165851961Y-84169047D02*
X165947200Y-84073809D01*
X165947200Y-84073809D02*
X165994819Y-83930952D01*
X165994819Y-83930952D02*
X165994819Y-83835714D01*
X165423390Y-84835714D02*
X165375771Y-84740476D01*
X165375771Y-84740476D02*
X165328152Y-84692857D01*
X165328152Y-84692857D02*
X165232914Y-84645238D01*
X165232914Y-84645238D02*
X165185295Y-84645238D01*
X165185295Y-84645238D02*
X165090057Y-84692857D01*
X165090057Y-84692857D02*
X165042438Y-84740476D01*
X165042438Y-84740476D02*
X164994819Y-84835714D01*
X164994819Y-84835714D02*
X164994819Y-85026190D01*
X164994819Y-85026190D02*
X165042438Y-85121428D01*
X165042438Y-85121428D02*
X165090057Y-85169047D01*
X165090057Y-85169047D02*
X165185295Y-85216666D01*
X165185295Y-85216666D02*
X165232914Y-85216666D01*
X165232914Y-85216666D02*
X165328152Y-85169047D01*
X165328152Y-85169047D02*
X165375771Y-85121428D01*
X165375771Y-85121428D02*
X165423390Y-85026190D01*
X165423390Y-85026190D02*
X165423390Y-84835714D01*
X165423390Y-84835714D02*
X165471009Y-84740476D01*
X165471009Y-84740476D02*
X165518628Y-84692857D01*
X165518628Y-84692857D02*
X165613866Y-84645238D01*
X165613866Y-84645238D02*
X165804342Y-84645238D01*
X165804342Y-84645238D02*
X165899580Y-84692857D01*
X165899580Y-84692857D02*
X165947200Y-84740476D01*
X165947200Y-84740476D02*
X165994819Y-84835714D01*
X165994819Y-84835714D02*
X165994819Y-85026190D01*
X165994819Y-85026190D02*
X165947200Y-85121428D01*
X165947200Y-85121428D02*
X165899580Y-85169047D01*
X165899580Y-85169047D02*
X165804342Y-85216666D01*
X165804342Y-85216666D02*
X165613866Y-85216666D01*
X165613866Y-85216666D02*
X165518628Y-85169047D01*
X165518628Y-85169047D02*
X165471009Y-85121428D01*
X165471009Y-85121428D02*
X165423390Y-85026190D01*
X181244819Y-91080476D02*
X181959104Y-91080476D01*
X181959104Y-91080476D02*
X182101961Y-91032857D01*
X182101961Y-91032857D02*
X182197200Y-90937619D01*
X182197200Y-90937619D02*
X182244819Y-90794762D01*
X182244819Y-90794762D02*
X182244819Y-90699524D01*
X182244819Y-92080476D02*
X182244819Y-91509048D01*
X182244819Y-91794762D02*
X181244819Y-91794762D01*
X181244819Y-91794762D02*
X181387676Y-91699524D01*
X181387676Y-91699524D02*
X181482914Y-91604286D01*
X181482914Y-91604286D02*
X181530533Y-91509048D01*
X181340057Y-92461429D02*
X181292438Y-92509048D01*
X181292438Y-92509048D02*
X181244819Y-92604286D01*
X181244819Y-92604286D02*
X181244819Y-92842381D01*
X181244819Y-92842381D02*
X181292438Y-92937619D01*
X181292438Y-92937619D02*
X181340057Y-92985238D01*
X181340057Y-92985238D02*
X181435295Y-93032857D01*
X181435295Y-93032857D02*
X181530533Y-93032857D01*
X181530533Y-93032857D02*
X181673390Y-92985238D01*
X181673390Y-92985238D02*
X182244819Y-92413810D01*
X182244819Y-92413810D02*
X182244819Y-93032857D01*
D13*
%TO.C,J4*%
X162105000Y-103800000D02*
X162105000Y-105070000D01*
X162105000Y-105070000D02*
X163375000Y-105070000D01*
X164452358Y-100830000D02*
X164765000Y-100830000D01*
X164452358Y-101690000D02*
X164765000Y-101690000D01*
X164535000Y-103370000D02*
X164765000Y-103370000D01*
X164535000Y-104230000D02*
X164765000Y-104230000D01*
X164765000Y-99880000D02*
X167525000Y-99880000D01*
X164765000Y-102530000D02*
X167525000Y-102530000D01*
X164765000Y-105180000D02*
X164765000Y-99880000D01*
X167525000Y-99880000D02*
X167525000Y-105180000D01*
X167525000Y-101690000D02*
X173525000Y-101690000D01*
X167525000Y-105180000D02*
X164765000Y-105180000D01*
X173525000Y-100830000D02*
X167525000Y-100830000D01*
X173525000Y-101690000D02*
X173525000Y-100830000D01*
X167525000Y-104230000D02*
X173525000Y-104230000D01*
X173525000Y-103370000D01*
X167525000Y-103370000D01*
X167525000Y-104230000D01*
G36*
X167525000Y-104230000D02*
G01*
X173525000Y-104230000D01*
X173525000Y-103370000D01*
X167525000Y-103370000D01*
X167525000Y-104230000D01*
G37*
%TO.C,J3*%
X153230000Y-109660000D02*
X153230000Y-110520000D01*
X153230000Y-110520000D02*
X159230000Y-110520000D01*
X159230000Y-106170000D02*
X161990000Y-106170000D01*
X159230000Y-109660000D02*
X153230000Y-109660000D01*
X159230000Y-111470000D02*
X159230000Y-106170000D01*
X161990000Y-106170000D02*
X161990000Y-111470000D01*
X161990000Y-108820000D02*
X159230000Y-108820000D01*
X161990000Y-111470000D02*
X159230000Y-111470000D01*
X162220000Y-107120000D02*
X161990000Y-107120000D01*
X162220000Y-107980000D02*
X161990000Y-107980000D01*
X162302642Y-109660000D02*
X161990000Y-109660000D01*
X162302642Y-110520000D02*
X161990000Y-110520000D01*
X164650000Y-106280000D02*
X163380000Y-106280000D01*
X164650000Y-107550000D02*
X164650000Y-106280000D01*
X159230000Y-107120000D02*
X153230000Y-107120000D01*
X153230000Y-107980000D01*
X159230000Y-107980000D01*
X159230000Y-107120000D01*
G36*
X159230000Y-107120000D02*
G01*
X153230000Y-107120000D01*
X153230000Y-107980000D01*
X159230000Y-107980000D01*
X159230000Y-107120000D01*
G37*
%TO.C,J7*%
X154440000Y-80350000D02*
X162280000Y-80350000D01*
X154440000Y-83110000D02*
X154440000Y-80350000D01*
X155390000Y-74350000D02*
X155390000Y-80350000D01*
X155390000Y-83422642D02*
X155390000Y-83110000D01*
X156250000Y-74350000D02*
X155390000Y-74350000D01*
X156250000Y-80350000D02*
X156250000Y-74350000D01*
X156250000Y-83422642D02*
X156250000Y-83110000D01*
X157090000Y-83110000D02*
X157090000Y-80350000D01*
X157930000Y-74350000D02*
X157930000Y-80350000D01*
X157930000Y-83422642D02*
X157930000Y-83110000D01*
X158790000Y-74350000D02*
X157930000Y-74350000D01*
X158790000Y-80350000D02*
X158790000Y-74350000D01*
X158790000Y-83422642D02*
X158790000Y-83110000D01*
X159630000Y-83110000D02*
X159630000Y-80350000D01*
X160470000Y-83340000D02*
X160470000Y-83110000D01*
X160900000Y-85770000D02*
X162170000Y-85770000D01*
X161330000Y-83340000D02*
X161330000Y-83110000D01*
X162170000Y-85770000D02*
X162170000Y-84500000D01*
X162280000Y-80350000D02*
X162280000Y-83110000D01*
X162280000Y-83110000D02*
X154440000Y-83110000D01*
X161330000Y-80350000D02*
X160470000Y-80350000D01*
X160470000Y-74350000D01*
X161330000Y-74350000D01*
X161330000Y-80350000D01*
G36*
X161330000Y-80350000D02*
G01*
X160470000Y-80350000D01*
X160470000Y-74350000D01*
X161330000Y-74350000D01*
X161330000Y-80350000D01*
G37*
%TO.C,J6*%
X142730000Y-80350000D02*
X150570000Y-80350000D01*
X142730000Y-83110000D02*
X142730000Y-80350000D01*
X143680000Y-74350000D02*
X143680000Y-80350000D01*
X143680000Y-83422642D02*
X143680000Y-83110000D01*
X144540000Y-74350000D02*
X143680000Y-74350000D01*
X144540000Y-80350000D02*
X144540000Y-74350000D01*
X144540000Y-83422642D02*
X144540000Y-83110000D01*
X145380000Y-83110000D02*
X145380000Y-80350000D01*
X146220000Y-74350000D02*
X146220000Y-80350000D01*
X146220000Y-83422642D02*
X146220000Y-83110000D01*
X147080000Y-74350000D02*
X146220000Y-74350000D01*
X147080000Y-80350000D02*
X147080000Y-74350000D01*
X147080000Y-83422642D02*
X147080000Y-83110000D01*
X147920000Y-83110000D02*
X147920000Y-80350000D01*
X148760000Y-83340000D02*
X148760000Y-83110000D01*
X149190000Y-85770000D02*
X150460000Y-85770000D01*
X149620000Y-83340000D02*
X149620000Y-83110000D01*
X150460000Y-85770000D02*
X150460000Y-84500000D01*
X150570000Y-80350000D02*
X150570000Y-83110000D01*
X150570000Y-83110000D02*
X142730000Y-83110000D01*
X149620000Y-80350000D02*
X148760000Y-80350000D01*
X148760000Y-74350000D01*
X149620000Y-74350000D01*
X149620000Y-80350000D01*
G36*
X149620000Y-80350000D02*
G01*
X148760000Y-80350000D01*
X148760000Y-74350000D01*
X149620000Y-74350000D01*
X149620000Y-80350000D01*
G37*
%TO.C,J8*%
X166150000Y-80350000D02*
X173990000Y-80350000D01*
X166150000Y-83110000D02*
X166150000Y-80350000D01*
X167100000Y-74350000D02*
X167100000Y-80350000D01*
X167100000Y-83422642D02*
X167100000Y-83110000D01*
X167960000Y-74350000D02*
X167100000Y-74350000D01*
X167960000Y-80350000D02*
X167960000Y-74350000D01*
X167960000Y-83422642D02*
X167960000Y-83110000D01*
X168800000Y-83110000D02*
X168800000Y-80350000D01*
X169640000Y-74350000D02*
X169640000Y-80350000D01*
X169640000Y-83422642D02*
X169640000Y-83110000D01*
X170500000Y-74350000D02*
X169640000Y-74350000D01*
X170500000Y-80350000D02*
X170500000Y-74350000D01*
X170500000Y-83422642D02*
X170500000Y-83110000D01*
X171340000Y-83110000D02*
X171340000Y-80350000D01*
X172180000Y-83340000D02*
X172180000Y-83110000D01*
X172610000Y-85770000D02*
X173880000Y-85770000D01*
X173040000Y-83340000D02*
X173040000Y-83110000D01*
X173880000Y-85770000D02*
X173880000Y-84500000D01*
X173990000Y-80350000D02*
X173990000Y-83110000D01*
X173990000Y-83110000D02*
X166150000Y-83110000D01*
X173040000Y-80350000D02*
X172180000Y-80350000D01*
X172180000Y-74350000D01*
X173040000Y-74350000D01*
X173040000Y-80350000D01*
G36*
X173040000Y-80350000D02*
G01*
X172180000Y-80350000D01*
X172180000Y-74350000D01*
X173040000Y-74350000D01*
X173040000Y-80350000D01*
G37*
%TO.C,J12*%
X174450000Y-91410000D02*
X174450000Y-92270000D01*
X174450000Y-92270000D02*
X180450000Y-92270000D01*
X180450000Y-87920000D02*
X183210000Y-87920000D01*
X180450000Y-91410000D02*
X174450000Y-91410000D01*
X180450000Y-93220000D02*
X180450000Y-87920000D01*
X183210000Y-87920000D02*
X183210000Y-93220000D01*
X183210000Y-90570000D02*
X180450000Y-90570000D01*
X183210000Y-93220000D02*
X180450000Y-93220000D01*
X183440000Y-88870000D02*
X183210000Y-88870000D01*
X183440000Y-89730000D02*
X183210000Y-89730000D01*
X183522642Y-91410000D02*
X183210000Y-91410000D01*
X183522642Y-92270000D02*
X183210000Y-92270000D01*
X185870000Y-88030000D02*
X184600000Y-88030000D01*
X185870000Y-89300000D02*
X185870000Y-88030000D01*
X180450000Y-88870000D02*
X174450000Y-88870000D01*
X174450000Y-89730000D01*
X180450000Y-89730000D01*
X180450000Y-88870000D01*
G36*
X180450000Y-88870000D02*
G01*
X174450000Y-88870000D01*
X174450000Y-89730000D01*
X180450000Y-89730000D01*
X180450000Y-88870000D01*
G37*
%TD*%
%LPC*%
D14*
%TO.C,H1*%
X128500000Y-111000000D03*
%TD*%
D15*
%TO.C,J1*%
X140775000Y-90525000D03*
X138235000Y-90525000D03*
X135695000Y-90525000D03*
D16*
X133155000Y-90525000D03*
%TD*%
D14*
%TO.C,H2*%
X158500000Y-96000000D03*
%TD*%
D16*
%TO.C,J5*%
X160990000Y-65270000D03*
D15*
X158450000Y-65270000D03*
X155910000Y-65270000D03*
X153370000Y-65270000D03*
%TD*%
D14*
%TO.C,H3*%
X188500000Y-96000000D03*
%TD*%
D17*
%TO.C,U5*%
X135900000Y-93725000D03*
D18*
X135900000Y-96265000D03*
D17*
X135900000Y-98805000D03*
%TD*%
D15*
%TO.C,J11*%
X190875000Y-102325000D03*
D16*
X188335000Y-102325000D03*
%TD*%
D19*
%TO.C,J4*%
X163375000Y-103800000D03*
D20*
X163375000Y-101260000D03*
%TD*%
D19*
%TO.C,J3*%
X163380000Y-107550000D03*
D20*
X163380000Y-110090000D03*
%TD*%
D15*
%TO.C,J7*%
X160900000Y-84500000D03*
D16*
X158360000Y-84500000D03*
D15*
X155820000Y-84500000D03*
%TD*%
%TO.C,J6*%
X149190000Y-84500000D03*
D16*
X146650000Y-84500000D03*
D15*
X144110000Y-84500000D03*
%TD*%
%TO.C,J8*%
X172610000Y-84500000D03*
D16*
X170070000Y-84500000D03*
D15*
X167530000Y-84500000D03*
%TD*%
D19*
%TO.C,J12*%
X184600000Y-89300000D03*
D20*
X184600000Y-91840000D03*
%TD*%
%LPD*%
M02*
