<?xml version="1.0" encoding="UTF-8" standalone="no"?>
<!-- Created with Inkscape (http://www.inkscape.org/) -->

<svg
   width="210mm"
   height="297mm"
   viewBox="0 0 210 297"
   version="1.1"
   id="svg1"
   xml:space="preserve"
   inkscape:version="1.4.2 (f4327f4, 2025-05-13)"
   sodipodi:docname="Logo_GEII_IUT_de_BORDEAUWW.svg"
   xmlns:inkscape="http://www.inkscape.org/namespaces/inkscape"
   xmlns:sodipodi="http://sodipodi.sourceforge.net/DTD/sodipodi-0.dtd"
   xmlns="http://www.w3.org/2000/svg"
   xmlns:svg="http://www.w3.org/2000/svg"><sodipodi:namedview
     id="namedview1"
     pagecolor="#ffffff"
     bordercolor="#000000"
     borderopacity="0.25"
     inkscape:showpageshadow="2"
     inkscape:pageopacity="0.0"
     inkscape:pagecheckerboard="0"
     inkscape:deskcolor="#d1d1d1"
     inkscape:document-units="mm"
     inkscape:zoom="0.50835205"
     inkscape:cx="363.92103"
     inkscape:cy="545.88154"
     inkscape:window-width="1920"
     inkscape:window-height="1009"
     inkscape:window-x="-8"
     inkscape:window-y="-8"
     inkscape:window-maximized="1"
     inkscape:current-layer="layer1" /><defs
     id="defs1"><rect
       x="267.53114"
       y="750.46419"
       width="327.03715"
       height="86.554192"
       id="rect2" /><clipPath
       clipPathUnits="userSpaceOnUse"
       id="clipPath3"><path
         style="fill:none;stroke:#ff0000;stroke-width:0.088578;stroke-opacity:1"
         d="M -33.315963,96.281732 H 84.842747 V 137.93097 H -33.315963 Z"
         id="path3" /></clipPath><clipPath
       clipPathUnits="userSpaceOnUse"
       id="clipPath5"><path
         style="fill:none;fill-opacity:1;stroke:#ff0000;stroke-width:0.1;stroke-opacity:1"
         d="m 15.457249,224.13012 c -1.472119,0 48.579924,0 48.579924,0 l 9.200742,-33.49071 c 0,0 119.241635,4.04833 121.081785,4.04833 1.84015,0 19.13754,-101.576216 19.13754,-101.576216 L 16.929368,81.334573 -1.4721195,195.4238 Z"
         id="path6" /></clipPath><clipPath
       clipPathUnits="userSpaceOnUse"
       id="clipPath5-5"><path
         style="fill:none;fill-opacity:1;stroke:#ff0000;stroke-width:0.1;stroke-opacity:1"
         d="m 15.457249,224.13012 c -1.472119,0 48.579924,0 48.579924,0 l 9.200742,-33.49071 c 0,0 119.241635,4.04833 121.081785,4.04833 1.84015,0 19.13754,-101.576216 19.13754,-101.576216 L 16.929368,81.334573 -1.4721195,195.4238 Z"
         id="path6-2" /></clipPath><clipPath
       clipPathUnits="userSpaceOnUse"
       id="clipPath10"><path
         style="fill:#808000;fill-opacity:1;stroke:#ff0000;stroke-width:0.138072;stroke-opacity:1"
         d="M 149.20629,95.844927 135.85321,196.63985 78.241647,199.2204 C -19.268513,285.28093 9.2555116,128.27554 -24.340201,91.072497 Z"
         id="path10"
         sodipodi:nodetypes="ccccc" /></clipPath></defs><g
     inkscape:label="Calque 1"
     inkscape:groupmode="layer"
     id="layer1"><path
       style="fill:#301613;stroke:none"
       d="m 161.19891,101.57292 c -4.80971,1.10374 -7.9375,6.2995 -7.9375,10.97245 0,4.34538 3.00769,8.16472 7.67291,7.13967 4.89437,-1.0754 8.09689,-6.31696 8.18779,-11.10842 0.0827,-4.35679 -3.48883,-8.02131 -7.9232,-7.0037 m 27.25208,-0.003 c -4.70916,1.02134 -8.39718,6.50807 -8.14676,11.23989 0.2032,3.83972 3.08773,7.8195 7.35301,6.96572 5.0194,-1.00473 8.4907,-5.94075 8.61081,-10.93447 0.10673,-4.43722 -3.18869,-8.27495 -7.81706,-7.27114 M 34.992656,163.60996 c -3.92518,0.57969 -8.245209,2.78032 -10.524943,6.08541 -2.922298,4.23666 -3.344272,11.42133 1.793693,14.2875 v 0.26459 c -11.247517,2.91744 -17.4240735,18.5774 -6.35,25.9359 3.510949,2.33295 7.801757,3.08058 11.90625,3.47777 9.516966,0.92097 20.607592,-0.0143 28.574798,-5.79838 6.651266,-4.8287 11.429802,-14.32503 8.879053,-22.55696 -3.698846,-11.93714 -18.993786,-10.43489 -28.722601,-10.31977 -2.090154,0.0247 -10.03736,0.31192 -8.737988,-3.43755 0.736902,-2.1264 3.054408,-2.95939 5.033822,-3.50797 4.740456,-1.31374 9.761601,-0.75845 14.552083,-1.73368 11.538798,-2.349 20.38477,-12.82578 19.555484,-24.65728 -0.20962,-2.99069 -1.497437,-5.50065 -2.622151,-8.20208 1.645515,-0.56123 3.506593,-1.99252 5.280233,-1.01751 3.13479,1.72326 3.542396,7.50298 8.478101,5.16407 5.537816,-2.62424 3.921619,-10.46255 -1.852084,-11.46792 -2.99972,-0.52233 -6.224483,-0.19462 -8.995833,1.05383 -1.563592,0.70437 -3.82169,2.6547 -5.55625,2.61297 -1.609648,-0.0387 -3.505172,-1.88571 -5.027083,-2.48068 -3.512867,-1.37332 -7.125365,-1.7443 -10.847917,-1.15694 -12.021626,1.89685 -24.200199,14.32836 -21.42737,27.13593 0.992878,4.58605 3.935705,6.82095 6.610703,10.31875 m 98.160414,7.67291 -3.70416,-1.32291 c -1.79841,4.29683 -4.86813,8.27729 -8.99584,10.50146 -8.41271,4.53312 -19.73951,2.04222 -23.839651,-7.06188 -1.132433,-2.51449 -1.701915,-5.19702 -1.835136,-7.9375 -0.180956,-3.7225 -0.212059,-7.15639 0.540391,-10.84792 0.207077,-1.01591 0.305004,-2.8226 1.171843,-3.51001 0.755461,-0.59909 2.155441,-0.45452 3.060473,-0.45853 2.46934,-0.011 4.93897,-2.1e-4 7.40833,-2.1e-4 h 28.575 c 0.52072,-4.09883 1.09104,-8.40433 -0.19742,-12.43541 -4.2167,-13.1924 -19.95826,-14.27329 -31.02341,-10.03702 -12.344006,4.72587 -20.683065,15.96907 -23.577728,28.55785 -2.016414,8.76933 -1.383604,18.97449 4.991976,25.88424 8.706017,9.43547 26.886342,9.40127 37.106582,2.53253 4.96333,-3.33569 8.18938,-8.3761 10.31875,-13.86469 m 18.52084,-45.50833 -8.31437,44.18542 -3.59188,19.84375 h 13.22916 l 3.01332,-16.40417 8.89293,-47.625 h -13.22916 m 15.08125,64.02917 h 9.525 l 3.54553,-0.27193 1.11122,-4.22599 2.3347,-12.43542 8.88355,-47.09583 h -9.525 l -3.5088,0.27193 -1.09486,4.22599 -2.32838,12.17083 -8.94296,47.36042 m -85.989587,-62.97084 -0.264583,0.26459 0.264583,-0.26459 m 1.852083,0.52917 -0.264583,0.26458 0.264583,-0.26458 m -11.377083,0.35277 c 0.204622,0 0.04239,0.13175 -0.0882,0.0882 l 0.0882,-0.0882 m 10.847917,-0.0882 -0.264584,0.26459 0.264584,-0.26459 m 2.645833,1.85209 -0.264583,0.26458 0.264583,-0.26458 m -32.014583,0.60573 c 5.202266,-0.66931 6.613008,4.81927 6.614583,8.91927 0.0024,6.21207 -1.009741,12.9398 -4.48465,18.24583 -1.500951,2.29189 -3.748932,4.82782 -6.62785,5.24656 -6.179783,0.89883 -8.464624,-4.43299 -8.466667,-9.73406 -0.003,-7.80156 3.681171,-21.48323 12.964584,-22.6776 m 71.17292,15.26927 h -16.66875 l -8.995837,0.26458 -0.264583,-0.26458 c 1.957277,-5.74998 5.78507,-11.34295 11.38096,-14.07988 5.08095,-2.48507 11.33702,-1.24818 13.6928,4.29029 1.37918,3.24247 0.85765,6.40985 0.85541,9.78959 m -87.84167,-11.37709 -0.264584,0.26459 0.264584,-0.26459 m 87.57708,0.52917 -0.26458,0.26458 0.26458,-0.26458 m -78.581247,0.26458 -0.264583,0.26459 0.264583,-0.26459 m 38.1,1.5875 -0.264583,0.26459 0.264583,-0.26459 m -39.422917,0.26459 -0.264583,0.26458 0.264583,-0.26458 m -0.79375,1.32291 -0.264583,0.26459 0.264583,-0.26459 m 45.772917,4.49792 -0.264583,0.26458 0.264583,-0.26458 m -33.3375,14.81667 0.264583,0.52916 -0.264583,-0.52916 m -1.852083,2.38125 -0.264584,0.26458 0.264584,-0.26458 m 8.202083,1.05833 -0.264583,0.26458 0.264583,-0.26458 m -9.525,0.52917 -0.264583,0.26458 0.264583,-0.26458 m 7.14375,0.79375 -0.264583,0.26458 0.264583,-0.26458 m -10.583333,1.32291 -0.264584,0.26459 0.264584,-0.26459 m 46.302083,6.87917 -0.264583,0.26458 0.264583,-0.26458 m 33.337497,8.73125 -0.26458,0.26458 0.26458,-0.26458 m -64.55833,0.26458 -0.264584,0.26459 0.264584,-0.26459 m 0.79375,0 -0.264584,0.26459 0.264584,-0.26459 m 20.6375,1.85209 -0.264584,0.26458 0.264584,-0.26458 m 35.45417,4.7625 -0.26459,0.26458 0.26459,-0.26458 m -86.783337,1.05833 c 4.137377,0 8.281661,0.26458 12.435417,0.26458 3.142855,0 6.979806,0.0717 9.520098,2.2067 4.146001,3.48446 1.324209,10.78555 -1.858615,13.909 -5.82395,5.71532 -15.749435,7.45648 -23.536483,5.67241 -3.769752,-0.86367 -9.033352,-2.7544 -9.733034,-7.23602 -0.70433,-4.51139 1.99043,-11.43926 7.612487,-10.24505 2.234727,0.47468 2.388933,4.64474 5.256349,2.6099 2.225882,-1.57957 0.432871,-5.15458 0.303781,-7.18152 m 23.988886,3.08679 -0.08819,0.17642 0.08819,-0.17642 m 7.496531,12.25904 -0.264584,0.26459 0.264584,-0.26459 m -0.529167,0.52917 -0.264583,0.26458 0.264583,-0.26458 m 14.86546,1.0812 c -0.883667,0.20706 -0.831804,1.39803 -0.841526,2.0938 -0.02826,2.02199 -0.06079,4.06406 0.0031,6.08522 0.02448,0.77476 0.174876,1.98997 1.270037,1.75266 0.89003,-0.19287 0.831692,-1.31379 0.841527,-2.01705 0.02933,-2.098 0.122683,-4.2549 -0.01062,-6.34877 -0.0445,-0.69899 -0.303026,-1.79068 -1.262488,-1.56586 m 12.91579,1.82922 c 0,2.11056 -0.08676,4.24139 0.0051,6.3498 0.03276,0.75177 0.251188,1.85325 1.262487,1.72897 0.903878,-0.11106 0.838814,-1.33196 0.848059,-1.99336 0.02835,-2.02763 0.001,-4.05757 0.001,-6.08541 1.495532,-0.0177 2.065418,-0.29117 2.116666,-1.85209 -1.50858,-0.28005 -4.062793,-0.73855 -5.517056,-0.10493 -1.991667,0.86774 0.247667,1.93189 1.283723,1.95702 m 27.781248,-1.97172 c -4.45294,0.96616 -3.97585,11.4446 1.32292,10.29343 4.27684,-0.92914 3.84167,-11.414 -1.32292,-10.29343 m 51.59375,7.26338 h 0.26459 c 0.73548,1.57533 1.30145,2.84909 3.175,2.91042 l -1.84392,-5.02708 1.84392,-5.02709 c -1.89407,0.062 -2.49452,1.28458 -3.175,2.91042 -0.25939,-0.36429 -3.5058,-4.74693 -3.29627,-2.08686 0.11791,1.49675 1.76865,2.59426 1.85065,4.09124 0.0837,1.52822 -1.87107,2.72989 -1.80656,4.30643 0.10106,2.46971 2.75763,-1.52528 2.98759,-2.07748 m -88.899998,-7.14375 v 4.49792 c 0,1.03033 -0.124993,2.15794 0.06043,3.175 0.435067,2.38642 3.384249,3.35923 5.171826,1.74124 1.819575,-1.64698 2.222224,-9.31709 -0.734338,-9.41416 v 3.175 l -2.02e-4,2.11667 c -0.0084,1.22252 -1.495072,4.27146 -2.485984,1.83635 -0.887753,-2.18158 1.415595,-7.01549 -2.011731,-7.12802 m 26.617977,0.27193 c -0.84745,0.6712 -0.42423,3.00031 -0.42423,3.96141 0,1.42772 -0.47863,3.91038 0.15965,5.20756 0.64722,1.31529 4.45381,0.66822 5.36783,-0.0519 1.61014,-1.2685 0.9387,-2.9785 0.59082,-4.62653 -0.55549,-2.63152 0.23429,-4.74441 -3.47246,-4.7623 -0.65145,-0.003 -1.67162,-0.16385 -2.22161,0.27173 m 18.89036,5.81349 c 1.4768,0.46183 2.44106,4.61089 4.14923,3.804 1.24433,-0.58779 -0.64065,-2.69515 -0.80071,-3.49449 -0.38054,-1.90024 2.68147,-5.25381 -0.97115,-6.28019 -4.72993,-1.32908 -4.49404,1.88647 -4.49404,5.44151 0,1.02581 -0.44544,3.50347 0.45995,4.22476 1.89005,1.50577 1.65672,-2.95503 1.65672,-3.69559 m 6.87916,-6.08542 v 6.87917 c 0,0.77001 -0.24121,2.10288 0.27193,2.75077 1.01546,1.28211 4.48043,0.30024 5.33618,-0.72127 1.55599,-1.85738 1.21134,-7.05112 -0.85704,-8.40766 -1.29512,-0.84943 -3.27236,-0.50101 -4.75107,-0.50101 m 14.2875,8.20209 h -3.70416 v -2.64584 h 3.175 c -0.0687,-2.0917 -1.43612,-1.85208 -3.175,-1.85208 v -1.85208 c 0.67056,0 4.69094,0.26589 3.42711,-1.42908 -0.59084,-0.7924 -4.6664,-0.76323 -5.27185,10e-4 -0.43712,0.55191 -0.27164,1.56832 -0.27193,2.22161 -8.2e-4,1.82663 -0.64206,5.15047 0.1964,6.79506 0.90718,1.77935 5.55499,0.87572 5.62443,-1.23881 m 6.87917,-1.05834 c 0.0589,0.6747 1.11702,4.35807 2.28794,2.486 0.60135,-0.96148 -0.56988,-3.10753 -0.85274,-4.0735 -0.28569,-0.97562 -0.59764,-1.9398 -0.89928,-2.91041 -0.1614,-0.51932 -0.27277,-1.06618 -0.47346,-1.572 -0.42437,-1.06964 -1.87511,-1.52387 -2.6348,-0.46057 -1.22392,1.71306 -1.65739,4.77846 -2.22732,6.79507 -0.19157,0.67785 -0.8737,2.37547 0.3295,2.52252 1.30067,0.15898 1.31961,-1.70933 2.0101,-2.36288 0.6183,-0.5852 1.67994,-0.42361 2.46006,-0.42423 m 4.39279,-6.87059 c -0.74807,0.57652 -0.42404,2.34354 -0.42404,3.16643 0,2.63517 0.53274,9.16828 4.99932,6.28957 2.16859,-1.39766 1.61893,-4.88798 1.61526,-7.08332 -0.001,-0.84685 0.1515,-2.85513 -1.27411,-2.54621 -1.53644,0.33294 -0.79653,4.8066 -0.84766,5.98579 -0.0326,0.75125 -0.2654,2.01428 -1.30739,1.87292 -1.87998,-0.25508 -0.96503,-5.3199 -1.08427,-6.63032 -0.0746,-0.82025 -0.78621,-1.74144 -1.67711,-1.05486 m -139.594874,0.25601 -0.264583,0.26458 0.264583,-0.26458 m 31.485417,0.26458 -0.264583,0.26459 0.264583,-0.26459 m 68.254947,1.03628 c 2.07829,0.18762 2.05562,6.33931 -0.24661,6.27243 -2.09732,-0.0609 -2.0602,-6.48066 0.24661,-6.27243 m -9.78203,1.87414 v -1.85208 c 2.4272,0.0288 2.41287,1.79356 0,1.85208 m 17.19792,0.52917 v -2.38125 c 2.77182,0.0327 2.77184,2.3485 0,2.38125 m 8.73125,3.96875 v -6.35 c 3.72209,0.11058 3.79723,6.25821 0,6.35 M 23.615583,206.20761 23.351,206.4722 23.615583,206.20761 M 17.001,206.4722 16.736416,206.73678 17.001,206.4722 m 44.45,0 -0.264584,0.26458 0.264584,-0.26458 m -0.529167,0.26458 -0.264583,0.26458 0.264583,-0.26458 m 40.481247,0 v 2.11667 c -2.240905,0.008 -4.636964,2.17964 -2.509865,4.38318 0.78285,0.81098 2.028045,0.53031 3.039035,0.6439 v -7.14375 h -0.52917 m 53.975,0 0.52917,2.11667 h -1.32292 l 0.79375,-2.11667 m -48.94791,6.08542 c -1.28868,0.22418 -1.97831,0.13058 -2.64584,-1.05834 0.69637,-0.16048 1.90468,0.0206 2.48599,-0.35685 1.63866,-1.06393 -2.76215,-4.6373 -3.00331,-0.4369 -0.0292,0.50766 -0.0408,1.08343 0.10289,1.57588 0.43577,1.49378 2.53273,1.77647 3.06027,0.27621 m -6.1091,-3.15214 c 1.54171,0.33832 1.31092,3.68686 -0.449959,3.3171 -1.358703,-0.2853 -1.138545,-3.66569 0.449959,-3.3171 m 5.57993,1.30005 -2.11667,-0.26458 c 0.69268,-1.36028 1.86203,-1.29404 2.11667,0.26458 m 5.55625,1.05834 v -2.64584 c 3.11011,0.0282 3.13526,2.61746 0,2.64584 z"
       id="path4"
       clip-path="url(#clipPath5)"
       sodipodi:nodetypes="csscccsssccsccsssssscsscsssssssscccssssscscssssscccccccccccccccccccccccccccccccccccsssscccccsscccccccccccccccccccccccccccccccccccccccccccccccccccccccccccscssssscccccccccccsssssccsssccsccscccccccsssccssscccsccsscscccsssssccsssscccccccscssccssssssssccsscssssccccccccsccccccccccccccccccccccccsccccccccccccccsccccccc"
       transform="translate(4.5424344,32.53888)" /><g
       id="g3"
       transform="translate(33.864601,149.39168)"
       style="display:inline;fill:#29d6d1;fill-opacity:1;stroke:none;stroke-opacity:1"><text
         xml:space="preserve"
         style="font-size:7.05556px;line-height:0;text-align:start;letter-spacing:0.460046px;writing-mode:lr-tb;direction:ltr;text-anchor:start;white-space:pre;inline-size:78.461;display:inline;fill:#2f1410;fill-opacity:1;stroke:none;stroke-width:0.1;stroke-opacity:1"
         x="79.95446"
         y="209.50092"
         id="text1"
         transform="matrix(1.5161283,0,0,1.9114796,-72.164518,-303.7498)"><tspan
           x="79.95446"
           y="209.50092"
           id="tspan5"><tspan
             style="font-weight:bold;font-family:Arial;-inkscape-font-specification:Arial"
             id="tspan1">IUT   BORDEAUX</tspan></tspan></text><text
         xml:space="preserve"
         style="font-style:normal;font-variant:normal;font-weight:normal;font-stretch:normal;font-size:8.23263px;line-height:0;font-family:Arial;-inkscape-font-specification:Arial;text-align:start;letter-spacing:0.913822px;writing-mode:lr-tb;direction:ltr;text-anchor:start;fill:#2f1410;fill-opacity:1;stroke:none;stroke-width:0.116683;stroke-opacity:1"
         x="80.644073"
         y="82.762817"
         id="text3"
         transform="scale(0.85525766,1.1692383)"><tspan
           sodipodi:role="line"
           id="tspan3"
           style="fill:#2f1410;fill-opacity:1;stroke:none;stroke-width:0.116683;stroke-opacity:1"
           x="80.644073"
           y="82.762817">de</tspan></text></g></g></svg>
